<svg width="128" height="45" viewBox="0 0 128 45" fill="none" xmlns="http://www.w3.org/2000/svg">
<path fill-rule="evenodd" clip-rule="evenodd" d="M45 22.5C45 34.9264 34.9264 45 22.5 45C10.0736 45 0 34.9264 0 22.5C0 10.0736 10.0736 0 22.5 0C34.9264 0 45 10.0736 45 22.5ZM27.8787 24.8637L30.5675 24.1845C32.8972 23.5961 35.2717 25.013 35.86 27.3428C36.4484 29.6725 35.0316 32.0469 32.7019 32.6354C30.3721 33.2237 27.9978 31.8068 27.4094 29.4771L26.7303 26.7882L20.5844 28.3405L21.2635 31.0294C21.8518 33.3591 20.4351 35.7336 18.1053 36.3219C15.7756 36.9104 13.4013 35.4935 12.8128 33.1638C12.2245 30.834 13.6414 28.4596 15.971 27.8712L18.6599 27.1921L17.1076 21.046L14.4188 21.7251C12.0891 22.3136 9.71468 20.8967 9.12635 18.5669C8.5379 16.2372 9.95476 13.8628 12.2844 13.2743C14.6141 12.686 16.9886 14.1029 17.5769 16.4326L18.256 19.1215L24.402 17.5692L23.7228 14.8803C23.1344 12.5506 24.5512 10.1761 26.881 9.58773C29.2107 8.99927 31.585 10.4162 32.1735 12.7459C32.7618 15.0757 31.3449 17.4501 29.0153 18.0384L26.3264 18.7176L27.8787 24.8637ZM27.2691 11.1242C25.7864 11.4987 24.8849 13.0098 25.2593 14.4922L25.9384 17.1811L28.6272 16.502C30.1099 16.1275 31.0113 14.6163 30.6369 13.1339C30.2625 11.6517 28.7518 10.7497 27.2691 11.1242ZM10.6628 18.1788C11.0372 19.6612 12.548 20.5631 14.0307 20.1887L16.7196 19.5095L16.0405 16.8206C15.6661 15.3383 14.1552 14.4364 12.6725 14.8109C11.1898 15.1853 10.2884 16.6966 10.6628 18.1788ZM17.7172 34.7855C19.2 34.411 20.1013 32.8998 19.7271 31.4174L19.0479 28.7285L16.3591 29.4077C14.8764 29.7822 13.975 31.2934 14.3494 32.7757C14.7238 34.258 16.2345 35.16 17.7172 34.7855ZM18.6441 20.6579L20.1963 26.804L26.3423 25.2517L24.79 19.1057L18.6441 20.6579ZM28.9459 29.089C29.3203 30.5714 30.8311 31.4733 32.3138 31.0988C33.7966 30.7244 34.6979 29.2131 34.3236 27.7309C33.9492 26.2485 32.4383 25.3466 30.9556 25.721L28.2667 26.4001L28.9459 29.089Z" fill="#010101"/>
<path d="M71.2264 30.1014V33.8301H57V9.54297H61.5182V30.1014H71.2264ZM84.5804 26.4734C83.3822 26.5295 82.3745 26.6357 81.5571 26.7925C80.7397 26.9381 80.0847 27.1285 79.5919 27.3636C79.0992 27.5988 78.7465 27.8731 78.5338 28.1866C78.3211 28.5001 78.2146 28.8417 78.2146 29.2112C78.2146 29.9391 78.4273 30.4597 78.8529 30.7732C79.2896 31.0867 79.855 31.2435 80.5493 31.2435C81.4003 31.2435 82.1338 31.0923 82.7496 30.79C83.3767 30.4765 83.9869 30.0062 84.5804 29.3791V26.4734ZM75.0738 18.9992C77.0557 17.1852 79.4408 16.2782 82.2289 16.2782C83.2367 16.2782 84.138 16.4462 84.9331 16.7821C85.7282 17.1068 86.4 17.5659 86.9487 18.1594C87.4973 18.7416 87.9117 19.4415 88.1916 20.2589C88.4828 21.0763 88.6283 21.9721 88.6283 22.9462V33.8301H86.7471C86.3551 33.8301 86.0528 33.7741 85.8401 33.6621C85.6274 33.5389 85.4595 33.2983 85.3362 32.9399L84.9667 31.697C84.53 32.089 84.1045 32.436 83.6902 32.7384C83.2759 33.0295 82.8447 33.2758 82.3969 33.4774C81.949 33.6789 81.4675 33.8301 80.9524 33.9309C80.4485 34.0428 79.8886 34.0988 79.2728 34.0988C78.5449 34.0988 77.8731 34.0037 77.2573 33.8133C76.6415 33.6118 76.1095 33.3151 75.6616 32.9231C75.2138 32.5312 74.8666 32.0441 74.6203 31.4619C74.374 30.8796 74.2507 30.2021 74.2507 29.4295C74.2507 28.9928 74.3236 28.5618 74.4691 28.1362C74.6146 27.6995 74.8498 27.2853 75.1745 26.8933C75.5105 26.5014 75.9415 26.1318 76.4678 25.7848C76.9942 25.4377 77.6379 25.1354 78.3994 24.8778C79.172 24.6202 80.0679 24.4131 81.0868 24.2563C82.1057 24.0884 83.2703 23.9876 84.5804 23.954V22.9462C84.5804 21.7929 84.3341 20.9419 83.8414 20.3932C83.3486 19.8334 82.6377 19.5534 81.7083 19.5534C81.0364 19.5534 80.4765 19.6318 80.0286 19.7886C79.5919 19.9453 79.2056 20.1245 78.8697 20.3261C78.5338 20.5164 78.2258 20.69 77.9459 20.8467C77.6772 21.0035 77.3748 21.0819 77.0389 21.0819C76.7477 21.0819 76.5014 21.0091 76.2999 20.8635C76.0983 20.7068 75.936 20.5276 75.8128 20.3261L75.0738 18.9992ZM106.594 18.3105C106.594 18.6017 106.544 18.8872 106.443 19.1671C106.342 19.4471 106.208 19.6766 106.04 19.8558L97.8599 30.6388H106.342V33.8301H93.0394V32.1001C93.0394 31.9097 93.0842 31.6859 93.1738 31.4283C93.2633 31.1595 93.3976 30.9076 93.5769 30.6724L101.841 19.7718H93.5265V16.5973H106.594V18.3105ZM127 16.5973L117.611 38.5666C117.488 38.8578 117.325 39.0761 117.124 39.2216C116.933 39.3785 116.637 39.4568 116.234 39.4568H113.143L116.368 32.5368L109.398 16.5973H113.042C113.367 16.5973 113.619 16.6757 113.798 16.8325C113.989 16.9892 114.128 17.1684 114.218 17.3699L117.88 26.3055C118.003 26.6078 118.104 26.9101 118.182 27.2124C118.272 27.5148 118.356 27.8228 118.434 28.1362C118.535 27.8228 118.635 27.5148 118.736 27.2124C118.837 26.899 118.949 26.591 119.072 26.2887L122.532 17.3699C122.622 17.146 122.767 16.9612 122.969 16.8157C123.182 16.6701 123.417 16.5973 123.674 16.5973H127Z" fill="black"/>
</svg>
