<svg width="122" height="36" viewBox="0 0 122 36" fill="none" xmlns="http://www.w3.org/2000/svg">
<g clip-path="url(#clip0_718_8951)">
<path fill-rule="evenodd" clip-rule="evenodd" d="M36.0507 0.794922V27.3465H28.9989V0.794922H36.0507ZM27.4235 11.1032V27.3465H0V17.0087L13.7117 11.1032V17.0087L27.4235 11.1032Z" fill="black"/>
<path d="M47.6394 27.3463V15.436H51.0382V11.7161H47.6394V9.62771C47.6394 8.12669 48.3475 7.37618 49.7637 7.37618C50.2866 7.37618 50.8748 7.46319 51.5284 7.63723V4.01519C50.6569 3.7759 49.7528 3.65625 48.8159 3.65625C46.9858 3.65625 45.5915 4.14028 44.6329 5.10833C43.6742 6.07638 43.1949 7.48495 43.1949 9.33404V11.7161H40.9727V15.436H43.1949V27.3463H47.6394ZM58.8843 27.8684C61.0412 27.8684 62.7406 27.0418 63.9824 25.3885H64.1131V27.3463H68.3616V11.7161H64.1131V13.7392H63.9824C62.8713 12.1077 61.2808 11.2919 59.2111 11.2919C57.1413 11.2919 55.382 12.0533 53.9332 13.5761C52.4844 15.0988 51.7599 17.0785 51.7599 19.5149C51.7599 20.9289 51.9833 22.1906 52.4299 23.3001C52.8765 24.4095 53.4648 25.2851 54.1946 25.9269C54.9245 26.5686 55.687 27.0526 56.4823 27.379C57.2775 27.7053 58.0782 27.8684 58.8843 27.8684ZM59.9111 24.0506C58.5124 24.0506 57.4337 23.6101 56.675 22.729C55.9164 21.848 55.537 20.7875 55.537 19.5475C55.537 18.3293 55.9223 17.2742 56.6928 16.3823C57.4633 15.4904 58.5479 15.0445 59.9467 15.0445C61.1558 15.0445 62.1633 15.4632 62.9694 16.3007C63.7755 17.1383 64.1785 18.2314 64.1785 19.5802C64.1785 20.8636 63.7577 21.9296 62.9161 22.778C62.0744 23.6264 61.0728 24.0506 59.9111 24.0506ZM79.1451 27.8684C81.1277 27.8684 82.8543 27.107 84.3249 25.5843C85.7956 24.0615 86.5309 22.071 86.5309 19.6128C86.5309 18.2423 86.3075 17.0023 85.8609 15.8929C85.4143 14.7834 84.8369 13.9078 84.1289 13.2661C83.4208 12.6243 82.6637 12.1349 81.8576 11.7977C81.0514 11.4605 80.2562 11.2919 79.4719 11.2919C77.4239 11.2919 75.7028 12.0533 74.3084 13.5761H74.1777V3.85204H69.9292V27.3463H74.243V25.6169H74.3738C75.5285 27.1179 77.1189 27.8684 79.1451 27.8684ZM78.2245 24.1159C77.0822 24.1159 76.1113 23.6917 75.3117 22.8433C74.5121 21.9948 74.1123 20.918 74.1123 19.6128C74.1123 18.2858 74.5064 17.2035 75.2946 16.366C76.0828 15.5285 77.048 15.1097 78.1903 15.1097C79.561 15.1097 80.6119 15.5448 81.3429 16.415C82.074 17.2851 82.4395 18.3511 82.4395 19.6128C82.4395 20.8093 82.0683 21.8589 81.3258 22.7617C80.5833 23.6645 79.5496 24.1159 78.2245 24.1159ZM92.1091 27.3463V19.7433C92.1091 18.3293 92.4413 17.2362 93.1058 16.4639C93.7703 15.6916 94.7453 15.3055 96.0307 15.3055C96.6843 15.3055 97.3815 15.3708 98.1222 15.5013V11.3898C97.7519 11.3028 97.2725 11.2593 96.6843 11.2593C95.7039 11.2593 94.8106 11.5312 94.0045 12.075C93.1984 12.6189 92.5666 13.3041 92.1091 14.1308H92.011V11.7161H87.6972V27.3463H92.1091ZM103.908 27.3463V11.7161H99.4963V27.3463H103.908ZM122.001 35.0146V11.7161H117.687V13.5108H117.556C116.38 11.9663 114.811 11.194 112.85 11.194C110.781 11.194 109.021 11.9717 107.572 13.5271C106.124 15.0825 105.399 17.0785 105.399 19.5149C105.399 20.9289 105.628 22.1906 106.085 23.3001C106.543 24.4095 107.131 25.2851 107.85 25.9269C108.569 26.5686 109.332 27.0581 110.138 27.3953C110.944 27.7325 111.739 27.9011 112.523 27.9011C114.637 27.9011 116.336 27.1505 117.622 25.6495H117.752V35.0146H122.001ZM113.268 14.9466C114.434 14.9466 115.404 15.3816 116.181 16.2518C116.958 17.122 117.346 18.2314 117.346 19.5802C117.346 20.8636 116.941 21.935 116.13 22.7943C115.319 23.6536 114.354 24.0832 113.234 24.0832C111.886 24.0832 110.847 23.6373 110.116 22.7454C109.385 21.8534 109.019 20.7875 109.019 19.5475C109.019 18.3075 109.385 17.2307 110.116 16.3171C110.87 15.4034 111.921 14.9466 113.268 14.9466ZM104.039 4.24361V8.453H99.3983V4.24361H104.039Z" fill="black"/>
</g>
<defs>
<clipPath id="clip0_718_8951">
<rect width="122" height="34.5667" fill="white" transform="translate(0 0.716797)"/>
</clipPath>
</defs>
</svg>
