<svg width="100" height="30" viewBox="0 0 100 30" fill="none" xmlns="http://www.w3.org/2000/svg">
<g clip-path="url(#clip0_718_8917)">
<path d="M21.5604 5.08586C21.5604 6.75185 20.2099 8.10239 18.5439 8.10239C16.8779 8.10239 15.5273 6.75185 15.5273 5.08586C15.5273 3.41988 16.8779 2.06934 18.5439 2.06934C20.2099 2.06934 21.5604 3.41988 21.5604 5.08586Z" fill="black" fill-opacity="0.32"/>
<path d="M17.257 23.6936C16.5359 23.6936 15.9515 23.1089 15.9515 22.3878V10.8697C15.9515 10.1485 16.5359 9.56387 17.257 9.56387H19.7641C20.4852 9.56387 21.0696 10.1485 21.0696 10.8697V22.3878C21.0696 23.1089 20.4852 23.6936 19.7641 23.6936H17.257Z" fill="black"/>
<path fill-rule="evenodd" clip-rule="evenodd" d="M3.86945 22.6907C3.86945 23.2446 4.31832 23.6936 4.87203 23.6936H7.91991C8.64089 23.6936 9.22538 23.1089 9.22538 22.3878V16.3083C10.0828 16.4404 10.9539 16.384 11.8079 16.1355L12.4925 15.9363C12.8862 15.8216 13.157 15.4606 13.157 15.0505V11.3968C13.157 10.796 12.5919 10.3555 12.0094 10.5024L11.0397 10.7469C10.4384 10.922 9.82152 10.9214 9.22538 10.7499V6.9425C9.22538 6.60335 9.26056 6.32406 9.33092 6.10461C9.41887 5.86521 9.49997 5.71894 9.65827 5.59925C9.83417 5.47955 10.0766 5.38928 10.358 5.38928C10.7496 5.38928 11.124 5.4782 11.4076 5.56596C11.4587 5.58178 11.5098 5.59731 11.5607 5.61256C12.246 5.81772 12.9529 5.39201 13.134 4.69974L13.8967 1.78488C14.0347 1.25705 13.7701 0.698888 13.2533 0.524735C12.4876 0.266769 11.8308 0.155973 11.0577 0.0700199C10.428 0 9.81463 0 9.09346 0C7.97889 0 7.11467 0.289272 6.32315 0.867813C5.54922 1.4264 4.94239 2.17451 4.50265 3.11216C4.08051 4.0498 3.86945 5.08717 3.86945 6.22431V8.31843C3.03272 8.19881 2.18377 8.25838 1.35112 8.50076L0.666452 8.70006C0.272725 8.81466 0.00195312 9.17556 0.00195312 9.58574V13.3154C0.00195312 13.945 0.61856 14.3896 1.21568 14.1905L2.11927 13.8893C2.69901 13.7206 3.29326 13.7151 3.86945 13.8686V22.6907Z" fill="black"/>
<path d="M31.2559 29.7521C29.9879 29.7521 28.7288 29.576 27.4784 29.2237C26.6988 29.0008 26.0073 28.7358 25.4038 28.4283C24.8277 28.1351 24.657 27.4231 24.9495 26.8464L25.6423 25.4804C25.9751 24.8244 26.7997 24.6075 27.4784 24.8904C27.9011 25.0666 28.3413 25.1986 28.7992 25.2868C29.2747 25.3748 29.7765 25.4189 30.3049 25.4189C31.1326 25.4189 31.8018 25.3043 32.3125 25.0754C32.8233 24.864 33.193 24.5205 33.4219 24.0448C33.6685 23.5692 33.7918 22.9616 33.7918 22.2217V20.6887C33.7918 20.3766 34.0594 20.1317 34.37 20.1594C34.6922 20.1881 34.9172 20.4987 34.7822 20.7927C34.6141 21.1592 34.3719 21.4947 34.056 21.7989C33.5805 22.257 32.9905 22.6181 32.2861 22.8823C31.5817 23.1465 30.8333 23.2786 30.0407 23.2786C28.7904 23.2786 27.681 22.9967 26.7124 22.4331C25.7614 21.8694 25.0042 21.0856 24.4406 20.0815C23.8947 19.0598 23.6217 17.862 23.6217 16.4881C23.6217 15.0613 23.8947 13.8106 24.4406 12.7361C24.9866 11.644 25.7261 10.7897 26.6595 10.1732C27.6105 9.55665 28.6936 9.2484 29.9086 9.2484C30.437 9.2484 30.9389 9.30124 31.4144 9.40693C31.8899 9.51262 32.3302 9.66234 32.7351 9.85611C33.1402 10.0323 33.5013 10.2524 33.8182 10.5167C34.1353 10.7809 34.3906 11.0715 34.5842 11.3886C34.7086 11.5751 34.8086 11.7708 34.8842 11.9756C34.9729 12.2162 34.8075 12.4628 34.5571 12.5178C34.2439 12.5866 33.9542 12.3306 33.9841 12.0112L34.104 10.7237C34.1666 10.0523 34.7298 9.53904 35.4039 9.53904H37.8752C38.5962 9.53904 39.1806 10.1237 39.1806 10.8449V22.3009C39.1806 23.4812 38.9958 24.5293 38.6259 25.4453C38.2737 26.3788 37.7543 27.1626 37.0675 27.7968C36.3807 28.4486 35.544 28.9329 34.5579 29.2501C33.5893 29.5848 32.4887 29.7521 31.2559 29.7521ZM31.388 19.4474C31.9339 19.4474 32.3917 19.3329 32.7616 19.1039C33.149 18.8749 33.4397 18.549 33.6334 18.1263C33.827 17.6859 33.9239 17.1574 33.9239 16.541C33.9239 15.9244 33.827 15.3959 33.6334 14.9556C33.4397 14.5152 33.149 14.1805 32.7616 13.9516C32.3917 13.7226 31.9339 13.6081 31.388 13.6081C30.8421 13.6081 30.3841 13.7226 30.0144 13.9516C29.6445 14.1805 29.3627 14.5152 29.1691 14.9556C28.9754 15.3959 28.8784 15.9244 28.8784 16.541C28.8784 17.1574 28.9754 17.6859 29.1691 18.1263C29.3627 18.549 29.6445 18.8749 30.0144 19.1039C30.3841 19.3329 30.8421 19.4474 31.388 19.4474Z" fill="black"/>
<path d="M46.8538 23.9657C45.7795 23.9657 44.8726 23.7455 44.1331 23.3052C43.3934 22.8647 42.8299 22.2218 42.4424 21.3762C42.0549 20.5131 41.8612 19.4738 41.8612 18.2584V10.845C41.8612 10.1237 42.4457 9.5391 43.1668 9.5391H45.9181C46.6392 9.5391 47.2238 10.1237 47.2238 10.845V17.8093C47.2238 18.1968 47.2853 18.5227 47.4086 18.7868C47.5494 19.0511 47.7432 19.2537 47.9898 19.3946C48.2363 19.5355 48.5357 19.606 48.8879 19.606C49.1521 19.606 49.3898 19.5708 49.6011 19.5003C49.83 19.4122 50.0237 19.289 50.1823 19.1303C50.3408 18.9718 50.4641 18.7958 50.5521 18.602C50.6401 18.3906 50.6842 18.1704 50.6842 17.9413V10.845C50.6842 10.1237 51.2686 9.5391 51.9896 9.5391H54.7411C55.462 9.5391 56.0466 10.1237 56.0466 10.845V22.3692C56.0466 23.0903 55.462 23.675 54.7411 23.675H52.3017C51.6365 23.675 51.0777 23.1747 51.0043 22.5134L50.8517 21.1411C50.8311 20.9553 50.9447 20.7809 51.1229 20.7245C51.421 20.6304 51.6952 20.905 51.5591 21.1865C51.3654 21.5876 51.1089 21.959 50.7898 22.301C50.3144 22.8119 49.7332 23.217 49.0464 23.5165C48.3596 23.816 47.6287 23.9657 46.8538 23.9657Z" fill="black"/>
<path d="M60.2783 23.6749C59.5572 23.6749 58.9728 23.0902 58.9728 22.369V10.8448C58.9728 10.1236 59.5572 9.53896 60.2783 9.53896H62.7185C63.4054 9.53896 63.9749 10.0714 64.0211 10.757L64.188 13.2335C64.2163 13.6547 63.7561 13.9311 63.3979 13.7081C63.202 13.5862 63.1084 13.3487 63.1837 13.1306C63.4116 12.4695 63.7338 11.8712 64.1503 11.3357C64.6433 10.6839 65.2334 10.1731 65.9202 9.80317C66.6246 9.43327 67.373 9.24832 68.1656 9.24832C68.4825 9.24832 68.7819 9.27473 69.0637 9.32758C69.4551 9.37652 69.6957 9.81349 69.6957 10.2081V13.6028C69.6957 14.5656 68.4866 15.341 67.558 15.0876C67.1881 14.9819 66.783 14.9291 66.3428 14.9291C66.0257 14.9291 65.7352 14.9819 65.471 15.0876C65.2246 15.1757 65.0132 15.3166 64.8371 15.5104C64.6786 15.7042 64.5553 15.9331 64.4673 16.1974C64.3792 16.4615 64.3352 16.7699 64.3352 17.1222V22.369C64.3352 23.0902 63.7507 23.6749 63.0298 23.6749H60.2783Z" fill="black"/>
<path d="M78.9637 23.9392C77.3259 23.9392 75.9171 23.6221 74.7371 22.988C73.5572 22.3538 72.6503 21.4907 72.0163 20.3985C71.3824 19.2889 71.0653 18.0206 71.0653 16.5937C71.0653 15.5368 71.2415 14.5593 71.5937 13.6609C71.9459 12.7626 72.4389 11.9875 73.0729 11.3358C73.7246 10.6664 74.4818 10.1556 75.3447 9.80326C76.2252 9.43335 77.185 9.2484 78.224 9.2484C79.263 9.2484 80.2052 9.43335 81.0505 9.80326C81.9135 10.1556 82.6531 10.6664 83.2695 11.3358C83.8859 11.9875 84.3524 12.7626 84.6695 13.6609C85.0041 14.5593 85.1538 15.5368 85.1186 16.5937C85.1039 17.2109 84.5995 17.7035 83.9824 17.7035H75.0111C74.4318 17.7035 73.9279 17.307 73.7917 16.7437C73.6003 15.954 74.1987 15.1935 75.0111 15.1935H80.488C80.6204 15.1935 80.6886 15.352 80.5974 15.448C80.5035 15.5468 80.3373 15.4805 80.3373 15.3442V15.2462C80.3373 14.9116 80.2493 14.6209 80.0731 14.3743C79.9147 14.1101 79.6856 13.9075 79.3863 13.7666C79.087 13.6257 78.7348 13.5552 78.3297 13.5552C77.8189 13.5552 77.3875 13.6609 77.0353 13.8723C76.6831 14.0837 76.4102 14.3831 76.2164 14.7706C76.0402 15.1582 75.9522 15.625 75.9522 16.171C75.9522 16.8051 76.0843 17.36 76.3485 17.8356C76.6303 18.3113 77.0353 18.6811 77.5637 18.9454C78.1096 19.2095 78.7787 19.3416 79.5713 19.3416C80.0996 19.3416 80.5486 19.28 80.9184 19.1568C80.9443 19.1474 80.9702 19.1375 80.9961 19.1275C81.6676 18.8665 82.4714 18.9722 82.8885 19.5598L83.8695 20.9421C84.2729 21.5104 84.1648 22.3067 83.569 22.6687C83.2647 22.8537 82.9623 23.013 82.6619 23.1465C82.0455 23.4283 81.4292 23.6309 80.8128 23.7542C80.214 23.8776 79.5976 23.9392 78.9637 23.9392Z" fill="black"/>
<path d="M92.73 23.9392C91.1977 23.9392 89.8594 23.71 88.7147 23.2521C88.0942 22.9903 87.5484 22.6938 87.0775 22.3625C86.4771 21.9404 86.5326 21.0885 87.09 20.6112L88.3319 19.5479C88.8246 19.1261 89.5454 19.1462 90.1084 19.4682C90.4259 19.6498 90.7625 19.8013 91.1185 19.923C91.8582 20.1519 92.4746 20.2663 92.9676 20.2663C93.1438 20.2663 93.2935 20.2575 93.4168 20.24C93.5577 20.2048 93.6632 20.1607 93.7337 20.1078C93.7812 20.0699 93.8209 20.0319 93.8531 19.9939C93.9036 19.9342 93.9479 19.8668 93.9732 19.7927C93.9897 19.7448 93.9979 19.6913 93.9979 19.6322C93.9979 19.3681 93.857 19.1743 93.5752 19.0509C93.4168 18.9805 93.1526 18.8924 92.7828 18.7867C92.4305 18.6811 91.9639 18.5577 91.3827 18.4168C90.6959 18.2407 90.0619 18.0206 89.4807 17.7563C88.9172 17.492 88.4329 17.1838 88.0279 16.8315C87.6052 16.4439 87.2706 16.0036 87.0241 15.5104C86.7951 15.0172 86.6807 14.4623 86.6807 13.8458C86.6807 13.1236 86.848 12.4806 87.1826 11.917C87.5172 11.3533 87.9751 10.8777 88.5562 10.4902C89.1373 10.085 89.789 9.77676 90.5109 9.56537C91.233 9.35401 91.9727 9.24832 92.73 9.24832C93.5928 9.24832 94.3941 9.33638 95.1338 9.51253C95.8911 9.67107 96.5955 9.90886 97.2471 10.2259C97.47 10.3256 97.686 10.4322 97.895 10.5456C98.5614 10.9067 98.6395 11.7896 98.134 12.3543L97.1844 13.4147C96.7176 13.9362 95.9217 13.9923 95.3133 13.6463C95.3062 13.6423 95.2992 13.6384 95.2923 13.6344C94.9049 13.4054 94.4909 13.2205 94.0507 13.0795C93.6281 12.921 93.2318 12.8417 92.8621 12.8417C92.6683 12.8417 92.5009 12.8594 92.3601 12.8946C92.2369 12.9122 92.1312 12.9562 92.0432 13.0267C91.9551 13.0795 91.8846 13.15 91.8318 13.2381C91.7965 13.3085 91.779 13.3966 91.779 13.5023C91.779 13.6432 91.8231 13.7753 91.9111 13.8986C91.9991 14.0219 92.14 14.1276 92.3337 14.2157C92.4921 14.2862 92.7563 14.383 93.1262 14.5063C93.5136 14.6296 94.0771 14.797 94.8168 15.0084C95.6093 15.2373 96.3049 15.5016 96.9037 15.801C97.5201 16.1004 98.0132 16.4527 98.3829 16.8579C98.6295 17.1397 98.8233 17.4569 98.9642 17.8092C99.105 18.1615 99.1755 18.5401 99.1755 18.9453C99.1755 19.914 98.8937 20.7773 98.3301 21.5346C97.7841 22.2745 97.0269 22.8645 96.0583 23.305C95.0897 23.7278 93.9803 23.9392 92.73 23.9392Z" fill="black"/>
</g>
<defs>
<clipPath id="clip0_718_8917">
<rect width="100" height="29.7521" fill="white"/>
</clipPath>
</defs>
</svg>
