<svg width="146" height="21" viewBox="0 0 146 21" fill="none" xmlns="http://www.w3.org/2000/svg">
<g clip-path="url(#clip0_718_9003)">
<path d="M27.2422 18.0959V6.73932H30.8269V8.3847C31.14 7.77104 31.6172 7.29547 32.2585 6.95792C32.8998 6.62041 33.667 6.45166 34.5603 6.45166C35.339 6.45166 35.9803 6.57439 36.4842 6.81986C36.9882 7.06533 37.3967 7.37601 37.7098 7.75188C38.0687 8.18909 38.3052 8.69539 38.4198 9.2707C38.5344 9.84601 38.5915 10.5402 38.5915 11.3533V18.0959H35.0071V12.2738C35.0071 11.476 34.8618 10.8202 34.5718 10.3063C34.2815 9.78463 33.77 9.52383 33.0372 9.52383C32.2889 9.52383 31.7314 9.78463 31.3652 10.3063C31.0062 10.8202 30.8269 11.5144 30.8269 12.3889V18.0959H27.2422Z" fill="black"/>
<path d="M40.959 12.4124C40.959 11.5993 41.1003 10.8322 41.383 10.1112C41.673 9.39013 42.0891 8.75727 42.6313 8.21265C43.1732 7.66803 43.8297 7.23461 44.6009 6.91243C45.3723 6.59025 46.2501 6.4292 47.2352 6.4292C48.2199 6.4292 49.0981 6.59025 49.8692 6.91243C50.6479 7.23461 51.3044 7.66803 51.839 8.21265C52.3809 8.75727 52.7934 9.39013 53.0758 10.1112C53.3585 10.8322 53.4995 11.5993 53.4995 12.4124C53.4995 13.2255 53.3585 13.9965 53.0758 14.7252C52.7934 15.4462 52.3809 16.0791 51.839 16.6237C51.3044 17.1683 50.6479 17.6017 49.8692 17.9239C49.0981 18.2461 48.2199 18.4072 47.2352 18.4072C46.2501 18.4072 45.3723 18.2461 44.6009 17.9239C43.8297 17.6017 43.1732 17.1683 42.6313 16.6237C42.0891 16.0791 41.673 15.4462 41.383 14.7252C41.1003 14.0041 40.959 13.2332 40.959 12.4124ZM44.5437 12.4124C44.5437 12.819 44.6048 13.1987 44.727 13.5515C44.8568 13.8967 45.0361 14.2035 45.2653 14.472C45.5021 14.7328 45.7844 14.9399 46.1127 15.0934C46.4409 15.2391 46.8075 15.312 47.212 15.312C47.6169 15.312 47.9871 15.2391 48.323 15.0934C48.6668 14.9399 48.9531 14.7328 49.1819 14.472C49.4187 14.2035 49.602 13.8967 49.7318 13.5515C49.8692 13.2063 49.9378 12.8266 49.9378 12.4124C49.9378 12.0212 49.8692 11.6492 49.7318 11.2963C49.602 10.9434 49.4187 10.6366 49.1819 10.3758C48.9531 10.115 48.6704 9.90789 48.3345 9.75447C47.9987 9.60108 47.6245 9.52436 47.212 9.52436C46.8075 9.52436 46.4409 9.60108 46.1127 9.75447C45.7844 9.90789 45.5021 10.115 45.2653 10.3758C45.0361 10.6366 44.8568 10.9434 44.727 11.2963C44.6048 11.6492 44.5437 12.0212 44.5437 12.4124Z" fill="black"/>
<path d="M55.3008 12.4125C55.3008 11.5611 55.4345 10.771 55.7017 10.0422C55.9764 9.31353 56.3546 8.68833 56.8354 8.16674C57.3242 7.63745 57.8928 7.2194 58.5417 6.91254C59.191 6.60573 59.8934 6.4523 60.649 6.4523C61.4967 6.4523 62.2295 6.63255 62.8481 6.99309C63.4742 7.35363 63.9438 7.81004 64.2565 8.36236V1.59668H67.8413V18.0966H64.2565V16.4972C63.9742 17.0189 63.5197 17.4638 62.894 17.832C62.2678 18.2002 61.5195 18.3842 60.649 18.3842C59.901 18.3842 59.1986 18.2308 58.5417 17.924C57.8928 17.6172 57.3242 17.1991 56.8354 16.6698C56.3546 16.1406 55.9764 15.5115 55.7017 14.7828C55.4345 14.0541 55.3008 13.264 55.3008 12.4125ZM58.8624 12.4125C58.8624 12.8037 58.9275 13.1796 59.0572 13.5401C59.1946 13.893 59.3779 14.1998 59.6071 14.4606C59.8435 14.7138 60.1262 14.9209 60.4545 15.082C60.7827 15.2354 61.1493 15.3121 61.5538 15.3121C61.9584 15.3121 62.325 15.2354 62.6532 15.082C62.9894 14.9209 63.2717 14.7138 63.5009 14.4606C63.7374 14.1998 63.9207 13.893 64.0504 13.5401C64.1878 13.1873 64.2565 12.8114 64.2565 12.4125C64.2565 12.0213 64.1878 11.6531 64.0504 11.3079C63.9207 10.9628 63.7374 10.6559 63.5009 10.3874C63.2717 10.1189 62.993 9.908 62.6648 9.75458C62.3365 9.60119 61.9663 9.52447 61.5538 9.52447C61.1493 9.52447 60.7827 9.60119 60.4545 9.75458C60.1262 9.908 59.8435 10.1189 59.6071 10.3874C59.3779 10.6559 59.1946 10.9628 59.0572 11.3079C58.9275 11.6531 58.8624 12.0213 58.8624 12.4125Z" fill="black"/>
<path d="M70.4238 12.4129C70.4238 11.5614 70.5576 10.7713 70.8247 10.0426C71.0995 9.31387 71.4776 8.68867 71.9584 8.16707C72.4472 7.63778 73.0159 7.21973 73.6648 6.91288C74.3141 6.60606 75.0165 6.45264 75.772 6.45264C76.6198 6.45264 77.3526 6.63289 77.9711 6.99342C78.5972 7.35396 79.0668 7.81037 79.3796 8.36269V6.74029H82.9643V18.0969H79.3796V16.4976C79.0972 17.0192 78.6428 17.4641 78.017 17.8323C77.3909 18.2005 76.6425 18.3846 75.772 18.3846C75.0241 18.3846 74.3216 18.2312 73.6648 17.9243C73.0159 17.6175 72.4472 17.1994 71.9584 16.6701C71.4776 16.1409 71.0995 15.5119 70.8247 14.7832C70.5576 14.0544 70.4238 13.2643 70.4238 12.4129ZM73.9854 12.4129C73.9854 12.8041 74.0505 13.18 74.1803 13.5405C74.3177 13.8933 74.501 14.2001 74.7301 14.461C74.9666 14.7141 75.2493 14.9212 75.5775 15.0823C75.9058 15.2357 76.2724 15.3124 76.6769 15.3124C77.0814 15.3124 77.448 15.2357 77.7762 15.0823C78.1125 14.9212 78.3948 14.7141 78.624 14.461C78.8604 14.2001 79.0437 13.8933 79.1735 13.5405C79.3109 13.1876 79.3796 12.8118 79.3796 12.4129C79.3796 12.0216 79.3109 11.6535 79.1735 11.3083C79.0437 10.9631 78.8604 10.6562 78.624 10.3878C78.3948 10.1193 78.1161 9.90834 77.7878 9.75491C77.4596 9.60152 77.0894 9.52481 76.6769 9.52481C76.2724 9.52481 75.9058 9.60152 75.5775 9.75491C75.2493 9.90834 74.9666 10.1193 74.7301 10.3878C74.501 10.6562 74.3177 10.9631 74.1803 11.3083C74.0505 11.6535 73.9854 12.0216 73.9854 12.4129Z" fill="black"/>
<path d="M86.2461 18.0961V1.59619H89.8305V18.0961H86.2461Z" fill="black"/>
<path d="M91.5527 6.73975H95.3092L98.0466 13.8736L100.818 6.73975H104.574L99.455 18.0964H96.5918L91.5527 6.73975Z" fill="black"/>
<path d="M106.184 2.96621C106.184 2.32188 106.401 1.78109 106.836 1.34384C107.279 0.906606 107.829 0.687988 108.486 0.687988C108.814 0.687988 109.115 0.745519 109.39 0.860582C109.673 0.975644 109.921 1.13673 110.135 1.34384C110.349 1.54329 110.513 1.78493 110.627 2.06875C110.742 2.35254 110.799 2.65173 110.799 2.96621C110.799 3.28072 110.742 3.57604 110.627 3.8522C110.513 4.12836 110.349 4.37383 110.135 4.5886C109.921 4.79571 109.673 4.96064 109.39 5.08337C109.115 5.19844 108.814 5.25596 108.486 5.25596C108.157 5.25596 107.856 5.19844 107.581 5.08337C107.306 4.96064 107.062 4.79571 106.848 4.5886C106.642 4.37383 106.478 4.12836 106.355 3.8522C106.241 3.57604 106.184 3.28072 106.184 2.96621ZM106.699 18.0969V6.74025H110.283V18.0969H106.699Z" fill="black"/>
<path d="M113.275 12.4124C113.275 11.5763 113.401 10.7977 113.653 10.0766C113.913 9.35561 114.294 8.72658 114.798 8.18962C115.31 7.645 115.932 7.21545 116.665 6.90094C117.406 6.58642 118.253 6.4292 119.208 6.4292C120.116 6.4292 120.933 6.57109 121.658 6.85492C122.384 7.13874 122.999 7.52993 123.502 8.02853C124.014 8.51947 124.407 9.10631 124.682 9.78899C124.957 10.4717 125.094 11.2081 125.094 11.9982C125.094 12.2206 125.087 12.4124 125.072 12.5735C125.056 12.7346 125.026 12.9724 124.98 13.2869H116.883C116.883 13.6321 116.925 13.9581 117.009 14.2649C117.101 14.5717 117.238 14.8402 117.421 15.0704C117.612 15.3005 117.864 15.4808 118.177 15.6112C118.49 15.7416 118.872 15.8067 119.322 15.8067C119.964 15.8067 120.445 15.684 120.765 15.4386C121.086 15.1854 121.307 14.8786 121.43 14.518H124.957C124.865 15.055 124.671 15.5574 124.373 16.0254C124.083 16.4933 123.705 16.9037 123.239 17.2565C122.773 17.6094 122.216 17.8894 121.567 18.0965C120.918 18.3036 120.185 18.4072 119.368 18.4072C118.383 18.4072 117.509 18.2537 116.746 17.9469C115.99 17.6401 115.352 17.2144 114.833 16.6697C114.321 16.1251 113.932 15.4884 113.665 14.7597C113.405 14.0309 113.275 13.2485 113.275 12.4124ZM116.883 11.2158H121.578C121.578 10.5254 121.361 9.98077 120.926 9.58188C120.498 9.17532 119.933 8.97204 119.231 8.97204C118.559 8.97204 117.997 9.16766 117.547 9.55889C117.104 9.94242 116.883 10.4947 116.883 11.2158Z" fill="black"/>
<path d="M125.928 6.74072H129.638L131.723 13.5064L133.715 6.74072H137.025L139.018 13.5064L141.102 6.74072H144.813L140.587 18.0974H137.678L135.376 10.8599L133.063 18.0974H130.154L125.928 6.74072Z" fill="black"/>
<path d="M10.2329 0.981974V5.66125C10.235 5.70479 10.2253 5.74809 10.2047 5.78656C10.1842 5.82501 10.1535 5.85721 10.116 5.8797C10.0785 5.90218 10.0356 5.91413 9.9919 5.9143C9.94813 5.91444 9.90517 5.90276 9.86754 5.88053L1.53039 0.282495C1.45271 0.237418 1.36427 0.214053 1.27439 0.214864C1.1845 0.215675 1.0965 0.240632 1.01965 0.287103C0.942813 0.333575 0.87998 0.39984 0.837778 0.478912C0.795577 0.557984 0.775571 0.646937 0.779868 0.736389V8.95033C0.778021 9.12852 0.822193 9.3042 0.908144 9.46049C0.994095 9.61678 1.11894 9.74842 1.27068 9.84278L17.3023 20.4775C17.3803 20.5241 17.4695 20.5487 17.5605 20.5487C17.6514 20.5487 17.7407 20.5241 17.8186 20.4775C17.8966 20.4309 17.9604 20.364 18.0032 20.2841C18.046 20.2041 18.0662 20.1141 18.0616 20.0236V0.830677C18.0637 0.763142 18.0522 0.695875 18.0279 0.632807C18.0035 0.569735 17.9669 0.512127 17.9199 0.463341C17.873 0.414554 17.8168 0.375569 17.7546 0.34866C17.6924 0.321751 17.6254 0.307458 17.5576 0.306615H10.8778C10.7909 0.308605 10.7052 0.327671 10.6257 0.362721C10.5462 0.397771 10.4745 0.448114 10.4146 0.510862C10.3546 0.573611 10.3077 0.647528 10.2766 0.728373C10.2454 0.809219 10.2305 0.8954 10.2329 0.981974Z" fill="black"/>
<path d="M0.779475 11.0664V20.107C0.77801 20.1523 0.785589 20.1974 0.801774 20.2398C0.817959 20.2821 0.842426 20.3208 0.873756 20.3536C0.905085 20.3865 0.942652 20.4128 0.984275 20.4311C1.0259 20.4493 1.07075 20.4592 1.11622 20.46H8.26265C8.30803 20.4589 8.35275 20.4488 8.39426 20.4305C8.43574 20.4121 8.47319 20.3858 8.50444 20.353C8.53573 20.3202 8.56022 20.2816 8.57649 20.2394C8.59279 20.1972 8.60059 20.1522 8.59942 20.107V15.8049C8.59911 15.7448 8.58387 15.6857 8.55507 15.6329C8.52626 15.5801 8.48478 15.5352 8.43435 15.5023L1.2989 10.7638C1.24613 10.7324 1.18586 10.7156 1.12437 10.7153C1.06289 10.715 1.00246 10.7312 0.949388 10.7621C0.896314 10.793 0.852548 10.8376 0.822659 10.8911C0.792771 10.9446 0.777857 11.0052 0.779475 11.0664Z" fill="black"/>
</g>
<defs>
<clipPath id="clip0_718_9003">
<rect width="145" height="20.5743" fill="white" transform="translate(0.5 0.212402)"/>
</clipPath>
</defs>
</svg>
