<svg width="140" height="19" viewBox="0 0 140 19" fill="none" xmlns="http://www.w3.org/2000/svg">
<g clip-path="url(#clip0_718_8981)">
<path d="M28.1422 14.744C30.8351 14.744 32.7504 12.648 32.7504 9.69878C32.7504 6.74958 30.8339 4.65357 28.1422 4.65357C25.4507 4.65357 23.5341 6.74958 23.5341 9.69878C23.5341 12.648 25.4507 14.744 28.1422 14.744ZM36.8978 9.69878C36.8978 14.8426 33.1385 18.7499 28.1422 18.7499C23.146 18.7499 19.3867 14.8426 19.3867 9.69878C19.3867 4.55493 23.146 0.646484 28.1422 0.646484C33.1385 0.646484 36.8978 4.5537 36.8978 9.69878Z" fill="black"/>
<path d="M42.4337 1.04248V8.0666L48.4976 1.04248H54.0513L46.5327 9.2539L54.8036 18.3543H49.1517L42.4337 10.8111V18.3543H38.3105V1.04248H42.4337Z" fill="black"/>
<path d="M65.6151 11.2316L63.962 6.60678L62.3166 11.2316H65.6151ZM67.0215 15.14H60.909L59.7701 18.3543H55.377L62.0008 1.04248H65.9309L72.5471 18.3543H68.1616L67.0215 15.14Z" fill="black"/>
<path d="M92.1673 11.3554L95.7328 12.9126C94.3256 16.5486 91.5614 18.7494 87.5106 18.7494C81.9557 18.7494 78.9727 14.6683 78.9727 10.0188C78.9727 5.34474 81.981 0.648438 87.8747 0.648438C91.2215 0.648438 93.6228 2.08359 95.1998 4.70484L91.9737 7.1251C91.1008 5.54323 89.5724 4.65922 87.7041 4.65922C84.6246 4.65922 83.1204 7.1251 83.1204 9.67977C83.1204 12.5476 84.9882 14.725 87.8019 14.725C89.9361 14.725 91.415 13.4637 92.1673 11.3615V11.3554Z" fill="black"/>
<path d="M74.6367 14.0149C74.3575 14.2207 73.7203 14.5191 73.499 14.7879C73.2488 15.0937 73.2403 15.2059 73.2222 15.6041C73.1824 16.4438 73.4833 17.3303 74.1278 17.8481C74.2742 17.9611 74.4271 18.0649 74.586 18.1588C74.7393 18.2596 74.9014 18.3462 75.0696 18.4177C75.2772 18.4914 75.4944 18.533 75.7141 18.541C76.2914 18.6003 76.8731 18.485 77.3864 18.2094C77.8869 17.9184 78.2763 17.3968 78.3246 16.8112C78.3491 16.5177 78.2896 16.2231 78.2811 15.9284C78.2715 15.5869 78.3318 15.2441 78.3137 14.9026C78.2956 14.561 78.1774 14.1973 77.9002 14.0037C77.7618 13.9187 77.6101 13.8574 77.4516 13.8225C76.9415 13.6832 76.3634 13.5007 75.8364 13.5217C75.3745 13.5402 74.9899 13.7461 74.6367 14.0149Z" fill="black" fill-opacity="0.32"/>
<path d="M119.916 8.41426C121.105 8.41426 121.953 7.79782 121.953 6.58337C121.953 5.42069 121.202 4.9016 120.061 4.9016H117.49V8.41426H119.916ZM126.083 6.26157C126.083 8.26509 124.943 10.1454 122.857 11.0355L127.004 18.3556H122.225L118.849 12.0724H117.49V18.3605H113.367V1.04248H120.431C124.337 1.04248 126.083 3.51577 126.083 6.26032V6.26157Z" fill="black"/>
<path d="M132.848 5.04957V7.67082H138.741V11.6767H132.848V14.3485H140.002V18.3543H128.725V1.04248H139.809V5.04957H132.848Z" fill="black"/>
<path d="M13.8739 8.6213V18.39H17.9971V1.07812H12.8788L8.99854 10.377L5.11716 1.07812H0V18.39H4.12324V8.6213L6.63101 14.3705C6.68665 14.4803 7.40487 15.9943 9.01065 15.9943C10.6164 15.9943 11.3721 14.373 11.3721 14.373" fill="black"/>
<path d="M105.501 11.2316L103.852 6.60678L102.202 11.2316H105.501ZM106.907 15.14H100.796L99.6559 18.3543H95.2656L101.887 1.04248H105.817L112.438 18.3543H108.047L106.907 15.14Z" fill="black"/>
</g>
<defs>
<clipPath id="clip0_718_8981">
<rect width="140" height="18.1034" fill="white" transform="translate(0 0.646484)"/>
</clipPath>
</defs>
</svg>
