<svg width="104" height="28" viewBox="0 0 104 28" fill="none" xmlns="http://www.w3.org/2000/svg">
<g clip-path="url(#clip0_720_9054)">
<path d="M95.5351 23.8086C95.334 23.8086 95.124 23.8017 94.9051 23.7877C93.3281 23.6885 92.3072 22.9847 91.7287 22.4112C91.0987 21.7874 90.8462 21.1875 90.8356 21.1619C90.8139 21.1061 90.815 21.044 90.8385 20.9889C90.8619 20.9338 90.906 20.8901 90.9612 20.8671C91.0165 20.8441 91.0785 20.8437 91.134 20.8659C91.1896 20.8881 91.2343 20.9311 91.2585 20.9859C91.2605 20.9907 91.4951 21.5391 92.0652 22.0991C92.8241 22.8448 93.7891 23.2589 94.9337 23.3323C96.3515 23.4218 97.328 23.2176 97.8368 22.7229C98.1198 22.4482 98.2558 22.0768 98.2415 21.6185C98.2068 20.5201 95.9967 20.2158 93.8601 19.9216C93.1124 19.8164 92.3393 19.7114 91.6377 19.568C89.9481 19.2259 88.5853 18.4722 87.6942 17.3885C86.8752 16.3922 86.4935 15.149 86.6192 13.8877C86.7675 12.4028 87.5837 11.0308 88.9181 10.0239C90.4072 8.90002 92.4461 8.30523 94.8126 8.30322H94.8226C97.1183 8.30322 98.998 8.68521 100.409 9.43859C102.266 10.43 103.309 12.0569 103.509 14.2746C103.515 14.3352 103.496 14.3955 103.457 14.4423C103.418 14.489 103.362 14.5183 103.302 14.5238C103.241 14.5293 103.181 14.5105 103.134 14.4715C103.087 14.4325 103.058 14.3765 103.053 14.3159C102.955 13.2333 102.641 12.2958 102.119 11.5301C101.651 10.8418 101.002 10.2757 100.194 9.84353C98.8494 9.12657 97.0433 8.76207 94.8226 8.76207H94.8128C92.5466 8.76207 90.6033 9.32589 89.1939 10.3896C87.9625 11.3184 87.2105 12.5766 87.0748 13.9325C86.9602 15.0713 87.3067 16.1949 88.0484 17.0959C88.872 18.0977 90.1446 18.7966 91.729 19.1178C92.4149 19.2566 93.1809 19.3621 93.9217 19.4639C95.1078 19.6274 96.2283 19.7814 97.1003 20.0661C98.155 20.4103 98.6782 20.9124 98.6999 21.6013C98.7185 22.1941 98.5356 22.6813 98.1558 23.0495C97.637 23.5543 96.7555 23.8084 95.5351 23.8086Z" fill="black"/>
<path d="M95.6568 25.1132C95.3949 25.1132 95.1213 25.1048 94.8361 25.088C93.8104 25.0289 92.8797 24.7848 92.0701 24.3627C91.4222 24.0255 90.8442 23.5681 90.3669 23.0148C89.5493 22.0684 89.2876 21.1591 89.2767 21.1221C89.2602 21.0635 89.2677 21.0007 89.2975 20.9476C89.3272 20.8945 89.3768 20.8555 89.4353 20.839C89.4939 20.8225 89.5565 20.83 89.6095 20.8598C89.6625 20.8896 89.7015 20.9393 89.718 20.9979C89.7203 21.0059 89.9694 21.8611 90.7268 22.7312C91.1667 23.2376 91.6983 23.656 92.2935 23.9644C93.0426 24.3524 93.9069 24.5769 94.8627 24.632C96.485 24.7281 97.7352 24.5333 98.5792 24.0527C99.4142 23.5772 99.8695 22.8273 99.9714 21.7601C100.065 20.7759 99.5774 20.0865 98.436 19.5906C97.3733 19.1289 95.8962 18.9024 94.4681 18.6836C93.9304 18.6012 93.3745 18.5158 92.8545 18.4197C91.3465 18.1407 90.1263 17.5307 89.3257 16.6577C88.5877 15.8519 88.2375 14.847 88.3397 13.8283C88.4571 12.6583 89.1415 11.5866 90.2681 10.8105C91.512 9.95306 93.2061 9.52002 95.168 9.55357C99.3225 9.63157 101.672 11.2611 101.962 14.2597C101.966 14.29 101.963 14.3208 101.955 14.3503C101.946 14.3797 101.932 14.4071 101.913 14.431C101.894 14.4549 101.87 14.4747 101.844 14.4892C101.817 14.5038 101.787 14.5128 101.757 14.5158C101.726 14.5187 101.696 14.5156 101.666 14.5065C101.637 14.4974 101.61 14.4826 101.587 14.4628C101.564 14.4431 101.544 14.4189 101.53 14.3916C101.517 14.3644 101.508 14.3346 101.506 14.3041C101.361 12.8128 100.658 11.6927 99.4156 10.9774C98.3635 10.3712 96.9317 10.046 95.1597 10.0113C91.0613 9.939 88.9877 11.9614 88.7959 13.8731C88.7068 14.7598 89.015 15.6382 89.6636 16.3463C90.3964 17.1461 91.5286 17.7065 92.9381 17.9675C93.451 18.0624 94.0034 18.147 94.5377 18.2287C95.9947 18.4521 97.5016 18.6833 98.6187 19.1685C99.95 19.7469 100.542 20.6087 100.428 21.8026C100.313 23.0125 99.7667 23.9036 98.8059 24.4504C98.0242 24.8944 96.989 25.1132 95.6568 25.1132Z" fill="black"/>
<path d="M95.7141 26.4293C95.3895 26.4293 95.0521 26.4197 94.7018 26.4006C93.3462 26.3263 92.132 26.0031 91.0936 25.4402C90.2632 24.9914 89.5326 24.3784 88.9459 23.6383C87.9405 22.3722 87.6693 21.1576 87.6573 21.1063C87.6498 21.0765 87.6484 21.0454 87.6532 21.015C87.6579 20.9846 87.6687 20.9555 87.6849 20.9294C87.7011 20.9032 87.7224 20.8806 87.7475 20.8629C87.7726 20.8452 87.801 20.8327 87.8311 20.8262C87.8611 20.8197 87.8921 20.8193 87.9223 20.8251C87.9525 20.8308 87.9812 20.8426 88.0067 20.8597C88.0323 20.8768 88.0541 20.8988 88.071 20.9245C88.0879 20.9503 88.0994 20.9791 88.1049 21.0094C88.1075 21.0206 88.3703 22.1852 89.3162 23.3687C89.8645 24.0568 90.5464 24.6264 91.3207 25.043C92.2969 25.5695 93.4421 25.8721 94.7247 25.9423C99.0273 26.1835 101.223 24.9099 101.634 21.9317C101.846 20.3994 101.296 19.3549 99.9035 18.6446C98.6375 17.9987 96.8681 17.7269 95.1568 17.4625C94.7751 17.4037 94.3805 17.3429 94.0031 17.2795C92.6755 17.0561 91.5976 16.5878 90.89 15.925C90.2297 15.3079 89.9112 14.541 89.9934 13.7658C90.0842 12.9098 90.6409 12.1407 91.5604 11.5995C92.5567 11.0133 93.9043 10.7412 95.4575 10.8117C96.8607 10.8794 97.9906 11.1897 98.8159 11.7343C99.7114 12.3251 100.227 13.1734 100.349 14.2551C100.353 14.285 100.35 14.3153 100.342 14.3443C100.334 14.3733 100.32 14.4003 100.301 14.4239C100.282 14.4474 100.259 14.4671 100.233 14.4817C100.206 14.4963 100.177 14.5055 100.147 14.5089C100.118 14.5123 100.087 14.5097 100.058 14.5014C100.029 14.4931 100.002 14.4791 99.9787 14.4604C99.9552 14.4416 99.9356 14.4184 99.921 14.392C99.9064 14.3656 99.8972 14.3367 99.8938 14.3067C99.748 13.0122 98.856 11.4349 95.436 11.27C93.9721 11.2034 92.7121 11.4541 91.7926 11.9953C91.0014 12.4607 90.5241 13.1068 90.449 13.8143C90.3823 14.4426 90.6495 15.073 91.2027 15.5895C91.8459 16.1917 92.8404 16.6185 94.079 16.827C94.4532 16.8898 94.8464 16.9503 95.2264 17.0088C96.9732 17.2781 98.7801 17.5565 100.112 18.2356C101.68 19.036 102.327 20.2658 102.088 21.9948C101.845 23.7522 100.992 25.0011 99.5536 25.7069C98.5691 26.1907 97.3054 26.4293 95.7141 26.4293Z" fill="black"/>
<path d="M95.8181 27.7646C95.3834 27.7646 94.9591 27.7502 94.5484 27.7284C92.8632 27.6387 91.3661 27.2366 90.0986 26.5331C89.0863 25.9732 88.2037 25.2051 87.5088 24.2793C86.3158 22.6951 86.0346 21.1761 86.0232 21.1124C86.0178 21.0827 86.0184 21.0523 86.0249 21.0229C86.0313 20.9935 86.0435 20.9656 86.0606 20.9409C86.0778 20.9161 86.0997 20.895 86.1251 20.8788C86.1504 20.8625 86.1787 20.8514 86.2083 20.8461C86.2379 20.8408 86.2683 20.8414 86.2977 20.8478C86.327 20.8543 86.3549 20.8665 86.3796 20.8837C86.4043 20.9009 86.4253 20.9228 86.4415 20.9482C86.4578 20.9735 86.4689 21.0019 86.4742 21.0315C86.4767 21.0461 86.7531 22.5228 87.8871 24.0195C88.5443 24.8903 89.3777 25.6123 90.3326 26.1385C91.5353 26.8039 92.9628 27.1847 94.5728 27.2705C96.9753 27.3981 98.7324 27.1715 100.102 26.5569C100.941 26.1807 101.627 25.6487 102.141 24.9756C102.716 24.2231 103.1 23.2641 103.282 22.1259C103.504 20.7333 103.31 19.6464 102.692 18.8021C102.13 18.0355 101.197 17.4599 99.8412 17.0418C98.6168 16.6647 97.2093 16.4594 95.8479 16.2609C95.6095 16.2261 95.3728 16.1913 95.138 16.1565C92.3838 15.7427 91.5273 14.5936 91.631 13.7352C91.6974 13.1846 92.1304 12.714 92.8497 12.4097C93.5966 12.0943 94.5951 11.9827 95.7371 12.0877C96.7199 12.1783 97.4779 12.4579 97.9896 12.9193C98.3759 13.2675 98.6216 13.7166 98.7193 14.254C98.7249 14.2838 98.7246 14.3143 98.7184 14.344C98.7122 14.3736 98.7003 14.4017 98.6832 14.4267C98.6661 14.4517 98.6442 14.473 98.6188 14.4894C98.5934 14.5059 98.5651 14.5172 98.5353 14.5226C98.5056 14.5281 98.4751 14.5275 98.4455 14.5211C98.416 14.5147 98.388 14.5024 98.3632 14.4851C98.3384 14.4678 98.3173 14.4457 98.301 14.4202C98.2848 14.3946 98.2737 14.3661 98.2685 14.3363C98.0775 13.2873 97.2119 12.6847 95.6953 12.5451C94.0367 12.3919 92.2083 12.7768 92.0871 13.7906C92.0445 14.1459 92.2678 14.5196 92.7171 14.8431C93.2744 15.2446 94.1358 15.5419 95.2085 15.7034C95.4422 15.7384 95.678 15.7731 95.9161 15.8075C97.2946 16.0083 98.7201 16.2162 99.9784 16.6039C101.432 17.0519 102.441 17.6822 103.064 18.5311C103.76 19.4792 103.98 20.6791 103.736 22.199C102.978 26.9286 99.1396 27.7646 95.8181 27.7646Z" fill="black"/>
<path d="M78.4766 27.2609C78.4154 27.2609 78.3568 27.2367 78.3136 27.1937C78.2704 27.1507 78.2461 27.0923 78.2461 27.0315V8.72503C78.2461 8.66418 78.2704 8.60583 78.3136 8.5628C78.3568 8.51978 78.4154 8.49561 78.4766 8.49561C78.5377 8.49561 78.5963 8.51978 78.6395 8.5628C78.6827 8.60583 78.707 8.66418 78.707 8.72503V27.0315C78.707 27.0923 78.6827 27.1507 78.6395 27.1937C78.5963 27.2367 78.5377 27.2609 78.4766 27.2609Z" fill="black"/>
<path d="M80.0117 27.2609C79.9505 27.2609 79.8919 27.2367 79.8487 27.1937C79.8055 27.1507 79.7812 27.0923 79.7812 27.0315V8.72503C79.7812 8.66418 79.8055 8.60583 79.8487 8.5628C79.8919 8.51978 79.9505 8.49561 80.0117 8.49561C80.0728 8.49561 80.1314 8.51978 80.1746 8.5628C80.2178 8.60583 80.2421 8.66418 80.2421 8.72503V27.0315C80.2421 27.0923 80.2178 27.1507 80.1746 27.1937C80.1314 27.2367 80.0728 27.2609 80.0117 27.2609Z" fill="black"/>
<path d="M81.4511 27.2609C81.39 27.2609 81.3314 27.2367 81.2881 27.1937C81.2449 27.1507 81.2207 27.0923 81.2207 27.0315V8.72503C81.2207 8.66418 81.2449 8.60583 81.2881 8.5628C81.3314 8.51978 81.39 8.49561 81.4511 8.49561C81.5122 8.49561 81.5708 8.51978 81.614 8.5628C81.6572 8.60583 81.6815 8.66418 81.6815 8.72503V27.0315C81.6815 27.0923 81.6572 27.1507 81.614 27.1937C81.5708 27.2367 81.5122 27.2609 81.4511 27.2609Z" fill="black"/>
<path d="M82.9864 27.2609C82.9252 27.2609 82.8666 27.2367 82.8234 27.1937C82.7802 27.1507 82.7559 27.0923 82.7559 27.0315V8.72503C82.7559 8.66418 82.7802 8.60583 82.8234 8.5628C82.8666 8.51978 82.9252 8.49561 82.9864 8.49561C83.0475 8.49561 83.1061 8.51978 83.1493 8.5628C83.1925 8.60583 83.2168 8.66418 83.2168 8.72503V27.0315C83.2168 27.0923 83.1925 27.1507 83.1493 27.1937C83.1061 27.2367 83.0475 27.2609 82.9864 27.2609Z" fill="black"/>
<path d="M80.9175 6.54406C80.2945 6.54406 79.6855 6.35905 79.1675 6.01242C78.6495 5.66578 78.2458 5.1731 78.0073 4.59668C77.7689 4.02025 77.7066 3.38596 77.8281 2.77403C77.9496 2.1621 78.2496 1.6 78.6902 1.15883C79.1307 0.717647 79.692 0.4172 80.303 0.295479C80.914 0.173758 81.5474 0.23623 82.123 0.474994C82.6986 0.713759 83.1905 1.11809 83.5366 1.63686C83.8828 2.15563 84.0675 2.76554 84.0675 3.38946C84.0665 4.22581 83.7343 5.02762 83.1438 5.61901C82.5533 6.2104 81.7527 6.54308 80.9175 6.54406ZM80.9175 0.693715C80.3852 0.693715 79.8647 0.851818 79.4221 1.14803C78.9794 1.44424 78.6344 1.86526 78.4306 2.35784C78.2269 2.85043 78.1736 3.39245 78.2775 3.91538C78.3813 4.4383 78.6377 4.91864 79.0142 5.29565C79.3906 5.67265 79.8702 5.9294 80.3924 6.03341C80.9146 6.13743 81.4558 6.08404 81.9476 5.88001C82.4395 5.67598 82.8599 5.33045 83.1557 4.88714C83.4515 4.44383 83.6093 3.92263 83.6093 3.38946C83.6085 2.67476 83.3246 1.98957 82.82 1.4842C82.3154 0.978834 81.6312 0.69455 80.9175 0.693715Z" fill="black"/>
<path d="M80.9115 5.38328C80.4124 5.38237 79.9316 5.19431 79.564 4.85614C79.1964 4.51797 78.9685 4.05421 78.9253 3.5562C78.8916 3.16253 78.9752 2.76769 79.1655 2.4216C79.3559 2.07552 79.6444 1.79373 79.9947 1.61188C80.3449 1.43002 80.7412 1.35627 81.1333 1.39994C81.5254 1.44361 81.8958 1.60275 82.1976 1.85723C82.4994 2.11171 82.7191 2.4501 82.8288 2.82961C82.9386 3.20912 82.9335 3.61271 82.8143 3.98934C82.695 4.36596 82.4669 4.69871 82.1588 4.9455C81.8507 5.1923 81.4764 5.34205 81.0833 5.37583C81.0258 5.3807 80.9682 5.38328 80.9115 5.38328ZM79.3818 3.51691C79.4077 3.82015 79.5229 4.10887 79.7127 4.34656C79.9026 4.58425 80.1585 4.76022 80.4482 4.85224C80.7379 4.94426 81.0483 4.94818 81.3402 4.86351C81.6321 4.77885 81.8924 4.60939 82.0882 4.37658C82.2839 4.14376 82.4063 3.85805 82.44 3.55556C82.4736 3.25307 82.4169 2.94739 82.277 2.67718C82.1371 2.40697 81.9204 2.18436 81.6542 2.0375C81.388 1.89065 81.0843 1.82614 80.7815 1.85214C80.3757 1.88759 80.0005 2.08274 79.7381 2.3948C79.4757 2.70687 79.3476 3.11039 79.3818 3.51691Z" fill="black"/>
<path d="M80.9614 4.32497C80.7377 4.32495 80.5223 4.24072 80.3578 4.08901C80.1933 3.9373 80.0917 3.7292 80.0733 3.506C80.0549 3.2828 80.121 3.06083 80.2584 2.88413C80.3958 2.70744 80.5945 2.58894 80.8151 2.55216C81.0357 2.51538 81.262 2.563 81.4492 2.68557C81.6364 2.80814 81.7707 2.99671 81.8255 3.21384C81.8803 3.43097 81.8515 3.6608 81.745 3.8577C81.6384 4.05461 81.4619 4.2042 81.2503 4.27679C81.1573 4.30866 81.0597 4.32493 80.9614 4.32497ZM80.9614 2.99631C80.9132 2.99643 80.8654 3.00447 80.8199 3.02011C80.7176 3.05559 80.6324 3.12824 80.5811 3.22368C80.5298 3.31912 80.5162 3.43038 80.543 3.53539C80.5698 3.64041 80.635 3.73152 80.7257 3.79066C80.8164 3.8498 80.9259 3.87265 81.0326 3.8547C81.1394 3.83674 81.2355 3.77928 81.3019 3.6937C81.3683 3.60812 81.4002 3.50068 81.3912 3.39267C81.3822 3.28466 81.3331 3.18397 81.2535 3.11056C81.1738 3.03714 81.0696 2.99637 80.9614 2.99631Z" fill="black"/>
<path d="M63.3527 4.97894C63.3527 4.91809 63.3286 4.85973 63.2856 4.81671C63.2427 4.77368 63.1844 4.74951 63.1236 4.74951C63.0629 4.74951 63.0046 4.77368 62.9616 4.81671C62.9187 4.85973 62.8945 4.91809 62.8945 4.97894C62.8945 6.11775 62.8945 7.3879 62.8945 8.70022H63.3527C63.353 7.38733 63.3527 6.11775 63.3527 4.97894Z" fill="black"/>
<path d="M64.7921 4.59466C64.7921 4.53381 64.768 4.47546 64.725 4.43243C64.6821 4.38941 64.6238 4.36523 64.5631 4.36523C64.5023 4.36523 64.444 4.38941 64.4011 4.43243C64.3581 4.47546 64.334 4.53381 64.334 4.59466C64.334 5.75383 64.334 7.16967 64.334 8.66897H64.7921C64.7924 7.16967 64.7921 5.75383 64.7921 4.59466Z" fill="black"/>
<path d="M66.3273 8.6711C66.3273 6.98712 66.3273 5.43047 66.3273 4.30657C66.3273 4.24573 66.3031 4.18737 66.2601 4.14435C66.2172 4.10132 66.1589 4.07715 66.0982 4.07715C66.0374 4.07715 65.9791 4.10132 65.9362 4.14435C65.8932 4.18737 65.8691 4.24573 65.8691 4.30657C65.8691 5.43162 65.8691 6.98712 65.8691 8.6711V8.7342H66.3273V8.6711Z" fill="black"/>
<path d="M67.7668 3.9223C67.7668 3.86145 67.7426 3.80309 67.6997 3.76007C67.6567 3.71704 67.5984 3.69287 67.5377 3.69287C67.4769 3.69287 67.4187 3.71704 67.3757 3.76007C67.3327 3.80309 67.3086 3.86145 67.3086 3.9223V8.70295H67.7668V3.9223Z" fill="black"/>
<path d="M75.2919 26.3638C75.2766 26.3377 75.2563 26.3149 75.2322 26.2966C75.2081 26.2784 75.1806 26.2651 75.1513 26.2576C75.122 26.25 75.0915 26.2483 75.0616 26.2527C75.0317 26.257 75.0029 26.2672 74.9769 26.2827C74.3226 26.6684 72.9927 27.0957 71.2233 27.1376C69.4435 27.1797 67.7583 26.7989 66.4791 26.065C65.5187 25.5141 64.7673 24.7659 64.2455 23.841C63.651 22.7874 63.3506 21.4948 63.3526 19.9981C63.3546 18.6138 63.3546 16.0761 63.3541 13.2983H62.8959C62.8959 16.0761 62.8959 18.6136 62.8945 19.9976C62.8924 21.5734 63.2129 22.942 63.8466 24.0656C64.4096 25.0636 65.2188 25.8697 66.252 26.4619C67.8637 27.3859 69.6494 27.5987 70.9512 27.5987C71.0483 27.5987 71.1431 27.5987 71.2347 27.5953C72.7885 27.5586 74.3117 27.2067 75.21 26.6776C75.2624 26.6468 75.3004 26.5965 75.3158 26.5377C75.3311 26.4788 75.3225 26.4163 75.2919 26.3638Z" fill="black"/>
<path d="M64.334 19.2846C64.332 21.5238 64.9419 23.2588 66.1469 24.441C66.7867 25.0687 67.5902 25.5342 68.5352 25.821C69.282 26.0504 70.1036 26.1651 70.9807 26.1651C71.0533 26.1651 71.126 26.1643 71.1989 26.1628C72.8389 26.1272 74.3415 25.6581 75.0436 25.2368C75.0958 25.2055 75.1334 25.1548 75.1481 25.0958C75.1629 25.0367 75.1537 24.9742 75.1225 24.922C75.0913 24.8698 75.0406 24.8322 74.9817 24.8173C74.9228 24.8025 74.8604 24.8118 74.8082 24.843C74.1356 25.2465 72.6763 25.6718 71.1892 25.7034C68.6829 25.7573 67.2374 24.868 66.4688 24.1126C65.3551 23.02 64.7916 21.3956 64.7936 19.2843C64.7936 18.1191 64.7936 15.8197 64.7936 13.2983H64.3354C64.3351 15.8203 64.3351 18.1194 64.334 19.2846Z" fill="black"/>
<path d="M65.8702 18.5702C65.8702 20.7905 66.4283 22.4418 67.5311 23.4825C68.4105 24.3108 69.6485 24.7418 71.1333 24.7418C71.2968 24.7418 71.4637 24.7363 71.6333 24.726C72.8884 24.6477 74.3434 24.1811 74.9717 23.7951C75.0234 23.7633 75.0604 23.7121 75.0745 23.6529C75.0886 23.5937 75.0787 23.5314 75.0468 23.4795C75.015 23.4277 74.9639 23.3906 74.9048 23.3765C74.8457 23.3624 74.7834 23.3724 74.7317 23.4042C74.2449 23.7045 72.913 24.1866 71.6049 24.268C71.4408 24.2781 71.2827 24.2829 71.1298 24.2829C69.4257 24.2829 68.4094 23.6807 67.845 23.1481C66.8373 22.1992 66.3272 20.6589 66.3272 18.5705C66.3272 17.5932 66.3272 15.5906 66.3272 13.2983H65.8691C65.8702 15.5906 65.8702 17.5929 65.8702 18.5702Z" fill="black"/>
<path d="M67.3086 17.8567C67.3086 20.065 67.8077 21.6282 68.792 22.5026C69.4168 23.057 70.2378 23.3363 71.2392 23.3363C71.4857 23.3354 71.7319 23.3198 71.9766 23.2895C73.0118 23.1639 74.3439 22.6514 74.8061 22.3538C74.8316 22.3375 74.8536 22.3164 74.8709 22.2917C74.8882 22.2669 74.9004 22.239 74.9069 22.2095C74.9134 22.18 74.914 22.1494 74.9087 22.1197C74.9034 22.09 74.8922 22.0616 74.8759 22.0361C74.8596 22.0107 74.8384 21.9888 74.8136 21.9716C74.7888 21.9543 74.7609 21.9422 74.7314 21.9359C74.7019 21.9295 74.6714 21.9291 74.6417 21.9345C74.612 21.94 74.5837 21.9513 74.5584 21.9678C74.2036 22.1972 72.9514 22.7091 71.9216 22.8341C70.716 22.9804 69.7653 22.7532 69.0958 22.159C68.2141 21.3764 67.7668 19.9293 67.7668 17.8573V13.2983H67.3086V17.8567Z" fill="black"/>
<path d="M74.3354 13.5653H59.6685C59.6078 13.5653 59.5495 13.5411 59.5066 13.4981C59.4636 13.4551 59.4395 13.3967 59.4395 13.3359C59.4395 13.275 59.4636 13.2167 59.5066 13.1736C59.5495 13.1306 59.6078 13.1064 59.6685 13.1064H74.3354C74.3962 13.1064 74.4543 13.1306 74.4973 13.1736C74.5403 13.2167 74.5644 13.275 74.5644 13.3359C74.5644 13.3967 74.5403 13.4551 74.4973 13.4981C74.4543 13.5411 74.3962 13.5653 74.3354 13.5653Z" fill="black"/>
<path d="M74.3354 12.0282H59.6685C59.6078 12.0282 59.5495 12.004 59.5066 11.961C59.4636 11.918 59.4395 11.8596 59.4395 11.7988C59.4395 11.7379 59.4636 11.6796 59.5066 11.6365C59.5495 11.5935 59.6078 11.5693 59.6685 11.5693H74.3354C74.3962 11.5693 74.4543 11.5935 74.4973 11.6365C74.5403 11.6796 74.5644 11.7379 74.5644 11.7988C74.5644 11.8596 74.5403 11.918 74.4973 11.961C74.4543 12.004 74.3962 12.0282 74.3354 12.0282Z" fill="black"/>
<path d="M74.3354 10.5878H59.6685C59.6078 10.5878 59.5495 10.5636 59.5066 10.5206C59.4636 10.4775 59.4395 10.4192 59.4395 10.3583C59.4395 10.2975 59.4636 10.2391 59.5066 10.1961C59.5495 10.1531 59.6078 10.1289 59.6685 10.1289H74.3354C74.3962 10.1289 74.4543 10.1531 74.4973 10.1961C74.5403 10.2391 74.5644 10.2975 74.5644 10.3583C74.5644 10.4192 74.5403 10.4775 74.4973 10.5206C74.4543 10.5636 74.3962 10.5878 74.3354 10.5878Z" fill="black"/>
<path d="M74.3354 9.05065H59.6685C59.6078 9.05065 59.5495 9.02648 59.5066 8.98345C59.4636 8.94042 59.4395 8.88207 59.4395 8.82122C59.4395 8.76038 59.4636 8.70202 59.5066 8.65899C59.5495 8.61597 59.6078 8.5918 59.6685 8.5918H74.3354C74.3962 8.5918 74.4543 8.61597 74.4973 8.65899C74.5403 8.70202 74.5644 8.76038 74.5644 8.82122C74.5644 8.88207 74.5403 8.94042 74.4973 8.98345C74.4543 9.02648 74.3962 9.05065 74.3354 9.05065Z" fill="black"/>
<path d="M52.6646 27.2461C52.6038 27.2461 52.5455 27.222 52.5026 27.179C52.4596 27.1359 52.4355 27.0776 52.4355 27.0167V1.71282C52.4355 1.65198 52.4596 1.59362 52.5026 1.5506C52.5455 1.50757 52.6038 1.4834 52.6646 1.4834C52.7253 1.4834 52.7836 1.50757 52.8265 1.5506C52.8695 1.59362 52.8937 1.65198 52.8937 1.71282V27.0167C52.8937 27.0776 52.8695 27.1359 52.8265 27.179C52.7836 27.222 52.7253 27.2461 52.6646 27.2461Z" fill="black"/>
<path d="M54.1998 27.2461C54.139 27.2461 54.0807 27.222 54.0378 27.179C53.9948 27.1359 53.9707 27.0776 53.9707 27.0167V1.71282C53.9707 1.65198 53.9948 1.59362 54.0378 1.5506C54.0807 1.50757 54.139 1.4834 54.1998 1.4834C54.2605 1.4834 54.3188 1.50757 54.3617 1.5506C54.4047 1.59362 54.4288 1.65198 54.4288 1.71282V27.0167C54.4288 27.0776 54.4047 27.1359 54.3617 27.179C54.3188 27.222 54.2605 27.2461 54.1998 27.2461Z" fill="black"/>
<path d="M55.6393 27.2461C55.5785 27.2461 55.5202 27.222 55.4773 27.179C55.4343 27.1359 55.4102 27.0776 55.4102 27.0167V1.71282C55.4102 1.65198 55.4343 1.59362 55.4773 1.5506C55.5202 1.50757 55.5785 1.4834 55.6393 1.4834C55.7 1.4834 55.7583 1.50757 55.8013 1.5506C55.8442 1.59362 55.8684 1.65198 55.8684 1.71282V27.0167C55.8684 27.0776 55.8442 27.1359 55.8013 27.179C55.7583 27.222 55.7 27.2461 55.6393 27.2461Z" fill="black"/>
<path d="M57.1744 27.2461C57.1136 27.2461 57.0554 27.222 57.0124 27.179C56.9694 27.1359 56.9453 27.0776 56.9453 27.0167V1.71282C56.9453 1.65198 56.9694 1.59362 57.0124 1.5506C57.0554 1.50757 57.1136 1.4834 57.1744 1.4834C57.2351 1.4834 57.2934 1.50757 57.3364 1.5506C57.3793 1.59362 57.4035 1.65198 57.4035 1.71282V27.0167C57.4035 27.0776 57.3793 27.1359 57.3364 27.179C57.2934 27.222 57.2351 27.2461 57.1744 27.2461Z" fill="black"/>
<path d="M43.9061 25.0094C43.9061 24.6099 43.8944 24.2104 43.8775 23.8112C43.8223 23.8181 43.7715 23.845 43.7346 23.8867C43.6978 23.9283 43.6773 23.982 43.677 24.0377C43.6736 25.1436 42.9084 25.8445 42.2673 26.2374C41.3795 26.7822 40.1834 27.0808 38.8974 27.0808H38.8845C38.04 27.0795 37.2008 26.9465 36.3971 26.6867C35.5446 26.4071 34.7869 25.993 34.1446 25.4556C33.444 24.8705 32.8857 24.1332 32.5124 23.2996C32.0914 22.3667 31.8781 21.2881 31.8781 20.0942V8.72503C31.8781 8.66418 31.8539 8.60583 31.811 8.5628C31.768 8.51978 31.7097 8.49561 31.649 8.49561C31.5882 8.49561 31.53 8.51978 31.487 8.5628C31.444 8.60583 31.4199 8.66418 31.4199 8.72503V20.0931C31.4199 22.5003 32.2604 24.4762 33.85 25.8066C34.5372 26.3802 35.3459 26.8238 36.2537 27.1215C37.1026 27.3983 37.9899 27.539 38.8828 27.5385H38.8965C40.2656 27.5385 41.5471 27.2153 42.5047 26.6277C43.1768 26.2159 43.6553 25.6893 43.9133 25.0934C43.9078 25.0657 43.9054 25.0375 43.9061 25.0094Z" fill="black"/>
<path d="M43.71 21.5952C43.6865 21.6166 43.6678 21.6427 43.6549 21.6717C43.642 21.7007 43.6353 21.7321 43.6352 21.7639C43.6329 23.1717 42.8681 24.0458 42.2269 24.5313C41.3678 25.1809 40.2204 25.5385 38.991 25.5385H38.9856C36.1643 25.5359 33.3176 23.6342 33.3176 19.3916V8.72503C33.3176 8.66418 33.2935 8.60583 33.2505 8.5628C33.2075 8.51978 33.1493 8.49561 33.0885 8.49561C33.0278 8.49561 32.9695 8.51978 32.9265 8.5628C32.8836 8.60583 32.8594 8.66418 32.8594 8.72503V19.3916C32.8594 21.4969 33.5344 23.2345 34.8115 24.4197C35.9075 25.4355 37.3888 25.997 38.985 25.997H38.991C40.3191 25.997 41.566 25.6064 42.5029 24.8969C42.9975 24.5241 43.3852 24.0739 43.6555 23.5631C43.7113 23.4576 43.7617 23.35 43.8067 23.2405C43.7772 22.693 43.7406 22.1441 43.71 21.5952Z" fill="black"/>
<path d="M43.7027 19.4131C43.6939 19.4377 43.6893 19.4636 43.6893 19.4897C43.6893 20.8591 43.217 22.0245 42.3262 22.8605C41.5341 23.6036 40.4391 24.0297 39.3211 24.0297H39.32C37.0966 24.0297 34.8527 22.377 34.8527 18.6887V8.72503C34.8527 8.66418 34.8286 8.60583 34.7856 8.5628C34.7427 8.51978 34.6844 8.49561 34.6236 8.49561C34.5629 8.49561 34.5046 8.51978 34.4616 8.5628C34.4187 8.60583 34.3945 8.66418 34.3945 8.72503V18.6878C34.3945 20.51 34.9252 22.0237 35.9291 23.0656C36.8126 23.9833 38.0164 24.4871 39.3191 24.4877H39.3211C40.5542 24.4877 41.7635 24.0162 42.6395 23.1943C43.1275 22.7374 43.5106 22.1796 43.762 21.5597C43.7222 20.8441 43.6933 20.1283 43.7027 19.4131Z" fill="black"/>
<path d="M43.7842 17.6219C43.7919 17.5587 43.8113 17.4975 43.8415 17.4415C43.814 17.3006 43.7864 17.16 43.7587 17.0196C43.7251 17.04 43.6972 17.0687 43.6778 17.1031C43.6585 17.1374 43.6483 17.1761 43.6482 17.2155C43.6482 19.2883 42.9549 20.5402 42.3733 21.2256C41.6574 22.0696 40.6772 22.5536 39.6855 22.5536C38.7858 22.5536 37.9576 22.1608 37.3537 21.4481C36.6593 20.6285 36.2921 19.4312 36.2921 17.9861V8.72503C36.2921 8.66418 36.268 8.60583 36.225 8.5628C36.1821 8.51978 36.1238 8.49561 36.0631 8.49561C36.0023 8.49561 35.944 8.51978 35.9011 8.5628C35.8581 8.60583 35.834 8.66418 35.834 8.72503V17.9861C35.834 19.5416 36.2386 20.8413 37.0043 21.7449C37.697 22.5623 38.6492 23.0125 39.6855 23.0125C40.8118 23.0125 41.9191 22.4693 42.721 21.5227C43.0405 21.1461 43.391 20.6136 43.6594 19.8929C43.6551 19.1346 43.6846 18.377 43.7842 17.6219Z" fill="black"/>
<path d="M43.8365 27.271C43.7757 27.271 43.7174 27.2469 43.6745 27.2038C43.6315 27.1608 43.6074 27.1025 43.6074 27.0416V8.82122C43.6074 8.76037 43.6315 8.70202 43.6745 8.659C43.7174 8.61597 43.7757 8.5918 43.8365 8.5918C43.8972 8.5918 43.9555 8.61597 43.9984 8.659C44.0414 8.70202 44.0655 8.76037 44.0655 8.82122V27.0416C44.0655 27.1025 44.0414 27.1608 43.9984 27.2038C43.9555 27.2469 43.8972 27.271 43.8365 27.271Z" fill="black"/>
<path d="M45.3716 27.271C45.3109 27.271 45.2526 27.2469 45.2097 27.2038C45.1667 27.1608 45.1426 27.1025 45.1426 27.0416V8.82122C45.1426 8.76037 45.1667 8.70202 45.2097 8.659C45.2526 8.61597 45.3109 8.5918 45.3716 8.5918C45.4324 8.5918 45.4907 8.61597 45.5336 8.659C45.5766 8.70202 45.6007 8.76037 45.6007 8.82122V27.0416C45.6007 27.1025 45.5766 27.1608 45.5336 27.2038C45.4907 27.2469 45.4324 27.271 45.3716 27.271Z" fill="black"/>
<path d="M46.8111 27.271C46.7503 27.271 46.6921 27.2469 46.6491 27.2038C46.6061 27.1608 46.582 27.1025 46.582 27.0416V8.82122C46.582 8.76037 46.6061 8.70202 46.6491 8.659C46.6921 8.61597 46.7503 8.5918 46.8111 8.5918C46.8718 8.5918 46.9301 8.61597 46.9731 8.659C47.016 8.70202 47.0402 8.76037 47.0402 8.82122V27.0416C47.0402 27.1025 47.016 27.1608 46.9731 27.2038C46.9301 27.2469 46.8718 27.271 46.8111 27.271Z" fill="black"/>
<path d="M48.3463 27.271C48.2855 27.271 48.2272 27.2469 48.1843 27.2038C48.1413 27.1608 48.1172 27.1025 48.1172 27.0416V8.82122C48.1172 8.76037 48.1413 8.70202 48.1843 8.659C48.2272 8.61597 48.2855 8.5918 48.3463 8.5918C48.407 8.5918 48.4653 8.61597 48.5083 8.659C48.5512 8.70202 48.5754 8.76037 48.5754 8.82122V27.0416C48.5754 27.1025 48.5512 27.1608 48.5083 27.2038C48.4653 27.2469 48.407 27.271 48.3463 27.271Z" fill="black"/>
<path d="M28.0182 12.3172C27.6671 11.4546 27.1362 10.6771 26.461 10.0364C25.2583 8.89734 23.5793 8.18984 21.7312 8.04387C20.0568 7.91138 18.4034 8.24003 17.0755 8.96846C16.1563 9.47291 15.4538 10.146 15.0117 10.9289C15.0916 10.9978 15.1674 11.0715 15.2385 11.1494C15.2731 11.1873 15.3086 11.228 15.3442 11.2719C15.4594 11.05 15.5956 10.8396 15.7508 10.6435C16.1428 10.1466 16.6626 9.71839 17.2971 9.3711C18.5285 8.69458 20.1321 8.37769 21.6968 8.50129C23.4405 8.63894 25.0212 9.30256 26.1477 10.3697C26.7756 10.9659 27.2693 11.6894 27.5958 12.4919C27.9615 13.3809 28.1471 14.3964 28.1471 15.5074V27.0744C28.1471 27.1353 28.1712 27.1936 28.2142 27.2366C28.2572 27.2797 28.3154 27.3038 28.3762 27.3038C28.4369 27.3038 28.4952 27.2797 28.5382 27.2366C28.5811 27.1936 28.6053 27.1353 28.6053 27.0744V15.5074C28.6038 14.3361 28.4068 13.2627 28.0182 12.3172Z" fill="black"/>
<path d="M17.2909 10.9005C18.3284 10.201 19.6597 9.85432 21.0403 9.92372C22.5314 9.99885 23.8973 10.5581 24.8864 11.4984C26.0233 12.5796 26.624 14.1294 26.624 15.9808V27.0827C26.624 27.1436 26.6482 27.2019 26.6911 27.245C26.7341 27.288 26.7924 27.3122 26.8531 27.3122C26.9139 27.3122 26.9722 27.288 27.0151 27.245C27.0581 27.2019 27.0822 27.1436 27.0822 27.0827V15.9808C27.0822 14.002 26.4319 12.3356 25.202 11.1658C24.1336 10.15 22.6639 9.54603 21.0632 9.46544C19.5847 9.39059 18.154 9.76541 17.0352 10.5199C16.5028 10.8727 16.0437 11.3256 15.6836 11.8535C15.7687 12.0205 15.8418 12.1934 15.9024 12.3708C16.2913 11.69 16.8239 11.2154 17.2909 10.9005Z" fill="black"/>
<path d="M16.2477 14.0065C16.5031 13.39 16.9033 12.8443 17.4143 12.4157C18.2602 11.7057 19.3753 11.3303 20.5557 11.3572C21.7816 11.3859 22.9168 11.8496 23.7524 12.6606C24.7017 13.5818 25.2034 14.8975 25.2034 16.4637V27.1015C25.2034 27.1624 25.2275 27.2207 25.2705 27.2638C25.3134 27.3068 25.3717 27.331 25.4324 27.331C25.4932 27.331 25.5515 27.3068 25.5944 27.2638C25.6374 27.2207 25.6615 27.1624 25.6615 27.1015V16.4648C25.6615 14.7708 25.1117 13.3418 24.0711 12.3323C23.1527 11.441 21.9082 10.9322 20.5666 10.8984C19.2748 10.8697 18.0512 11.2821 17.1194 12.0641C16.7443 12.3784 16.4218 12.7506 16.1641 13.1668C16.2044 13.4103 16.2305 13.6559 16.2422 13.9024C16.2445 13.9383 16.246 13.9718 16.2477 14.0065Z" fill="black"/>
<path d="M17.458 13.8122C17.7836 13.4596 18.1788 13.1787 18.6186 12.9872C19.0584 12.7957 19.5331 12.6978 20.0126 12.6997C20.4817 12.6982 20.9463 12.7904 21.3793 12.9709C21.8123 13.1515 22.205 13.4168 22.5343 13.7514C23.2874 14.5125 23.6855 15.5868 23.6855 16.8612V27.0328C23.6855 27.0936 23.7096 27.152 23.7526 27.195C23.7955 27.238 23.8538 27.2622 23.9146 27.2622C23.9753 27.2622 24.0336 27.238 24.0766 27.195C24.1195 27.152 24.1436 27.0936 24.1436 27.0328V16.8612C24.1436 13.8285 22.0655 12.2417 20.0123 12.2417C19.4698 12.2394 18.9327 12.35 18.4351 12.5667C17.9375 12.7833 17.4904 13.1012 17.1221 13.5001C16.7542 13.8993 16.4621 14.3621 16.2598 14.8661C16.2816 15.4396 16.2991 16.0255 16.3134 16.5868C16.4276 15.4511 16.8171 14.5004 17.458 13.8122Z" fill="black"/>
<path d="M0.463464 27.4062C0.402706 27.4062 0.344436 27.382 0.301473 27.339C0.258511 27.296 0.234375 27.2376 0.234375 27.1768V15.304C0.234375 13.0341 1.10234 11.1365 2.74405 9.81587C4.1876 8.65469 6.14259 8.01517 8.2482 8.01517C9.2738 8.01271 10.2936 8.16932 11.2714 8.47945C12.2736 8.79893 13.1671 9.26697 13.9305 9.87007C15.6441 11.2243 16.5496 13.1394 16.5496 15.405V27.0575C16.5496 27.1183 16.5254 27.1767 16.4825 27.2197C16.4395 27.2627 16.3812 27.2869 16.3205 27.2869C16.2597 27.2869 16.2015 27.2627 16.1585 27.2197C16.1155 27.1767 16.0914 27.1183 16.0914 27.0575V15.4044C16.0914 13.2822 15.2461 11.4944 13.6467 10.2303C12.9268 9.66129 12.0806 9.21936 11.1322 8.91652C10.1994 8.62092 9.22656 8.47165 8.2482 8.47402C6.24654 8.47402 4.39349 9.07626 3.03098 10.1735C1.50124 11.4041 0.692553 13.1781 0.692553 15.304V27.1768C0.692553 27.2376 0.668417 27.296 0.625454 27.339C0.582492 27.382 0.524222 27.4062 0.463464 27.4062Z" fill="black"/>
<path d="M1.90292 27.3845C1.84216 27.3845 1.78389 27.3603 1.74093 27.3173C1.69796 27.2743 1.67383 27.2159 1.67383 27.1551V15.7891C1.67383 13.8249 2.38973 12.1788 3.74565 11.0285C4.94064 10.0153 6.554 9.45605 8.2905 9.45605C10.0562 9.45605 11.7097 10.0296 12.9468 11.0692C14.3465 12.245 15.0865 13.9135 15.0865 15.8909V27.0788C15.0865 27.1396 15.0623 27.198 15.0194 27.241C14.9764 27.284 14.9181 27.3082 14.8574 27.3082C14.7966 27.3082 14.7383 27.284 14.6954 27.241C14.6524 27.198 14.6283 27.1396 14.6283 27.0788V15.8909C14.6283 14.0535 13.945 12.5068 12.6524 11.4205C12.0716 10.933 11.3887 10.553 10.6224 10.2937C9.87098 10.041 9.0834 9.91304 8.29078 9.91492C6.66339 9.91492 5.15455 10.4348 4.04204 11.3775C2.79264 12.4386 2.13229 13.9625 2.13229 15.7876V27.1536C2.13248 27.1839 2.12669 27.2139 2.11524 27.2419C2.10379 27.27 2.08692 27.2954 2.0656 27.3169C2.04428 27.3384 2.01893 27.3554 1.99101 27.367C1.96308 27.3786 1.93315 27.3845 1.90292 27.3845Z" fill="black"/>
<path d="M3.34237 27.3637C3.28161 27.3637 3.22335 27.3395 3.18038 27.2965C3.13742 27.2535 3.11328 27.1951 3.11328 27.1343V16.275C3.11328 14.6177 3.67684 13.2242 4.74325 12.2448C5.68825 11.3765 6.96227 10.897 8.32822 10.897C9.71163 10.8981 11.0003 11.3856 11.9633 12.2718C13.0492 13.2715 13.6242 14.6914 13.6242 16.3785V27.1013C13.6242 27.1621 13.6001 27.2205 13.5571 27.2635C13.5141 27.3065 13.4559 27.3307 13.3951 27.3307C13.3344 27.3307 13.2761 27.3065 13.2331 27.2635C13.1902 27.2205 13.166 27.1621 13.166 27.1013V16.3785C13.166 14.8233 12.6431 13.5199 11.6543 12.6096C10.776 11.8018 9.59508 11.357 8.32822 11.357C7.0771 11.357 5.9139 11.7926 5.05281 12.5832C4.08376 13.4723 3.57146 14.7499 3.57146 16.275V27.1343C3.57146 27.1951 3.54733 27.2535 3.50436 27.2965C3.4614 27.3395 3.40313 27.3637 3.34237 27.3637Z" fill="black"/>
<path d="M11.9302 27.255C11.8695 27.255 11.8112 27.2309 11.7683 27.1878C11.7253 27.1448 11.7012 27.0864 11.7012 27.0256V16.768C11.7012 15.4927 11.3369 14.4304 10.6473 13.6954C10.355 13.3804 10.0007 13.1294 9.60682 12.9582C9.21291 12.787 8.78788 12.6993 8.35848 12.7006C7.92941 12.6995 7.50466 12.7863 7.11028 12.9556C6.7159 13.1248 6.3602 13.373 6.06501 13.6848C5.37545 14.4058 5.01091 15.4356 5.01091 16.663V27.0159C5.01091 27.0767 4.98677 27.1351 4.94381 27.1781C4.90085 27.2211 4.84258 27.2453 4.78182 27.2453C4.72106 27.2453 4.66279 27.2211 4.61983 27.1781C4.57687 27.1351 4.55273 27.0767 4.55273 27.0159V16.663C4.55273 15.3152 4.96137 14.1752 5.73426 13.3673C6.0721 13.0107 6.47912 12.7269 6.93037 12.5333C7.38162 12.3397 7.86758 12.2405 8.35848 12.2417C8.85051 12.2402 9.33754 12.3406 9.78893 12.5368C10.2403 12.7329 10.6462 13.0205 10.9812 13.3814C11.7521 14.2027 12.1593 15.3739 12.1593 16.768V27.0256C12.1593 27.0864 12.1352 27.1448 12.0922 27.1878C12.0493 27.2309 11.991 27.255 11.9302 27.255Z" fill="black"/>
</g>
<defs>
<clipPath id="clip0_720_9054">
<rect width="104" height="28" fill="white"/>
</clipPath>
</defs>
</svg>
