<svg width="120" height="22" viewBox="0 0 120 22" fill="none" xmlns="http://www.w3.org/2000/svg">
<g clip-path="url(#clip0_718_8968)">
<path d="M8.54345 21.2238C6.10554 21.2238 4.06676 20.3999 2.42711 18.7522C0.809036 17.1045 -1.27955e-06 15.0665 0 12.6383C1.27955e-06 10.21 0.809041 8.17208 2.42712 6.52435C4.06677 4.87663 6.10555 4.05277 8.54346 4.05277C10.1184 4.05278 11.5531 4.43219 12.8475 5.19101C14.142 5.94983 15.1236 6.96881 15.7924 8.24797L12.2003 10.3618C11.8767 9.68972 11.3805 9.15855 10.7117 8.7683C10.0644 8.37805 9.33092 8.18292 8.51109 8.18292C7.25978 8.18292 6.22421 8.60569 5.40438 9.45123C4.58456 10.2751 4.17465 11.3374 4.17464 12.6383C4.17464 13.9174 4.58455 14.9798 5.40438 15.8253C6.2242 16.6492 7.25977 17.0611 8.51108 17.0611C9.35248 17.0611 10.0968 16.8768 10.744 16.5083C11.4128 16.118 11.909 15.5868 12.2327 14.9147L15.8571 16.9961C15.1452 18.2752 14.142 19.305 12.8475 20.0855C11.5531 20.8444 10.1184 21.2238 8.54345 21.2238Z" fill="black"/>
<path d="M44.9132 4.08117C46.6932 4.08117 48.1584 4.67499 49.3089 5.86263C50.481 7.05026 51.0671 8.69136 51.0671 10.7859L51.0671 20.7297L46.8668 20.7297L46.8668 11.3042C46.8668 10.2245 46.5738 9.40394 45.9877 8.84252C45.4016 8.25949 44.6202 7.96798 43.6434 7.96798C42.558 7.96798 41.6897 8.30268 41.0385 8.97207C40.3873 9.64147 40.0617 10.6456 40.0617 11.9844L40.0617 20.7297L35.8615 20.7297L35.8615 4.53463L40.0617 4.53463L40.0617 6.34847C41.082 4.83694 42.6991 4.08117 44.9132 4.08117Z" fill="black"/>
<path d="M63.0017 8.55099L59.3224 8.55099V15.2881C59.3224 15.8496 59.4635 16.2598 59.7456 16.519C60.0278 16.7781 60.4403 16.9292 60.9829 16.9724C61.5256 16.994 62.1985 16.9832 63.0017 16.94L63.0017 20.7297C60.1147 21.0536 58.0742 20.7836 56.8803 19.9199C55.7082 19.0562 55.1221 17.5122 55.1221 15.2881L55.1221 8.55099L52.2893 8.55098L52.2893 4.53461L55.1221 4.53461V1.26321L59.3224 0V4.53462L63.0017 4.53462V8.55099Z" fill="black"/>
<path d="M70.4178 7.32012C70.8085 6.28364 71.4488 5.50628 72.3388 4.98804C73.2505 4.4698 74.2599 4.21067 75.3669 4.21068L75.3669 8.87485C74.0862 8.7237 72.9358 8.98282 71.9155 9.65221C70.917 10.3216 70.4178 11.4337 70.4178 12.9884L70.4178 20.7296L66.2175 20.7296L66.2175 4.53457L70.4178 4.53457V7.32012Z" fill="black"/>
<path fill-rule="evenodd" clip-rule="evenodd" d="M93.2567 4.53463L89.1635 4.53463V6.44565C87.9046 4.86933 86.1354 4.08117 83.8562 4.08117C81.6855 4.08117 79.8187 4.91251 78.2559 6.5752C76.7147 8.2163 75.9441 10.2353 75.9441 12.6322C75.9441 15.029 76.7147 17.0588 78.2558 18.7215C79.8187 20.3626 81.6855 21.1831 83.8562 21.1831C86.1354 21.1831 87.9045 20.395 89.1635 18.8187V20.7297L93.2567 20.7297L93.2567 4.53463ZM81.1036 15.9944C81.9584 16.8499 83.0434 17.2777 84.3585 17.2777C85.6736 17.2777 86.7586 16.8499 87.6134 15.9944C88.4902 15.117 88.9285 13.9983 88.9285 12.6383C88.9285 11.2783 88.4902 10.1706 87.6134 9.31507C86.7586 8.43765 85.6736 7.99893 84.3585 7.99893C83.0434 7.99893 81.9584 8.43764 81.1036 9.31507C80.2488 10.1706 79.8214 11.2783 79.8214 12.6383C79.8214 13.9983 80.2488 15.117 81.1036 15.9944Z" fill="black"/>
<path d="M100.063 9.13402C100.063 9.56589 100.345 9.92218 100.909 10.2029C101.496 10.462 102.201 10.6995 103.026 10.9155C103.851 11.1098 104.676 11.3689 105.5 11.6928C106.325 11.9952 107.02 12.5134 107.584 13.2476C108.17 13.9817 108.463 14.8995 108.463 16.0007C108.463 17.6634 107.834 18.9482 106.575 19.8552C105.338 20.7405 103.786 21.1831 101.919 21.1831C98.576 21.1831 96.2968 19.8983 95.0812 17.3287L98.7279 15.2881C99.2055 16.6917 100.269 17.3935 101.919 17.3935C103.417 17.3935 104.165 16.9292 104.165 16.0007C104.165 15.5689 103.872 15.2234 103.286 14.9642C102.722 14.6835 102.027 14.4352 101.203 14.2193C100.378 14.0033 99.5528 13.7334 98.7279 13.4095C97.9031 13.0856 97.1976 12.5782 96.6115 11.8872C96.0471 11.1746 95.765 10.2893 95.765 9.23119C95.765 7.63328 96.351 6.38086 97.5232 5.47394C98.7171 4.54542 100.193 4.08117 101.951 4.08117C103.276 4.08117 104.48 4.38348 105.566 4.98809C106.651 5.57111 107.508 6.41326 108.138 7.51452L104.556 9.45793C104.035 8.35666 103.167 7.80603 101.951 7.80603C101.409 7.80603 100.953 7.92479 100.584 8.16232C100.237 8.39985 100.063 8.72375 100.063 9.13402Z" fill="black"/>
<path d="M120 8.55099L116.321 8.55099V15.2881C116.321 15.8496 116.462 16.2598 116.744 16.519C117.026 16.7781 117.439 16.9292 117.981 16.9724C118.524 16.994 119.197 16.9832 120 16.94V20.7297C117.113 21.0536 115.073 20.7836 113.879 19.9199C112.707 19.0562 112.12 17.5122 112.12 15.2881V8.55099L109.288 8.55098V4.53461L112.12 4.53461V1.26321L116.321 0V4.53462L120 4.53462V8.55099Z" fill="black"/>
<path fill-rule="evenodd" clip-rule="evenodd" d="M33.9644 12.6383C33.9644 7.8966 30.1028 4.05273 25.3394 4.05273C20.5759 4.05273 16.7143 7.8966 16.7143 12.6383C16.7143 17.3799 20.5759 21.2238 25.3394 21.2238C30.1028 21.2238 33.9644 17.3799 33.9644 12.6383ZM30.4511 12.6383C30.4511 15.4484 28.1625 17.7266 25.3394 17.7266C23.7479 17.7266 22.3264 17.0026 21.3889 15.8676L28.5836 8.70587C29.7238 9.63908 30.4511 11.0541 30.4511 12.6383Z" fill="black"/>
</g>
<defs>
<clipPath id="clip0_718_8968">
<rect width="120" height="21.2238" fill="white"/>
</clipPath>
</defs>
</svg>
