<svg width="91" height="48" viewBox="0 0 91 48" fill="none" xmlns="http://www.w3.org/2000/svg">
<g clip-path="url(#clip0_718_8926)">
<mask id="mask0_718_8926" style="mask-type:luminance" maskUnits="userSpaceOnUse" x="0" y="0" width="91" height="48">
<path d="M90.5 0.263672H0.5V47.7362H90.5V0.263672Z" fill="white"/>
</mask>
<g mask="url(#mask0_718_8926)">
<path fill-rule="evenodd" clip-rule="evenodd" d="M52.1587 3.34657C52.6379 3.16733 53.1711 3.20225 53.6229 3.44246L70.2595 12.2883C71.1305 12.7514 71.4611 13.8329 70.998 14.7039L70.1514 16.2943L83.833 15.0976C84.7666 15.0159 85.5951 15.668 85.7494 16.5759L85.768 16.7214L87.4109 35.4982C87.4551 36.0042 87.2819 36.505 86.9346 36.8755L86.0105 37.8612C85.7106 38.1811 85.3034 38.3796 84.8665 38.4187L66.0165 40.1047L65.9954 40.1064C65.0119 40.1828 64.1528 39.4473 64.0765 38.4638L63.349 29.0882L62.1491 31.3464C61.9371 31.7449 61.5832 32.0466 61.1609 32.194L60.9995 32.242L59.6879 32.5653C59.2619 32.6704 58.8123 32.615 58.4246 32.4097L50.5262 28.2277L50.3564 28.1377L43.0792 43.3507C42.9169 43.69 42.6523 43.9681 42.3245 44.1472L42.1803 44.2179L40.9286 44.7622C40.4594 44.9663 39.9252 44.9593 39.4614 44.743L22.3847 36.7801C21.4906 36.3631 21.1038 35.3004 21.5208 34.4064L24.2119 28.6332L10.5076 32.3345C9.55518 32.5916 8.57467 32.0281 8.3175 31.0758L8.31212 31.0553L3.63451 12.8823C3.52735 12.4659 3.57394 12.0249 3.76572 11.6402L4.37465 10.4187C4.60294 9.9607 5.01666 9.62264 5.51093 9.4902L23.7109 4.61352C24.6639 4.35819 25.6433 4.92366 25.8985 5.87651L29.1559 18.032L29.4866 17.3237C29.6774 16.9145 30.0149 16.5948 30.4289 16.4255L30.5876 16.3691L31.8807 15.9774C32.3004 15.8503 32.7523 15.8821 33.1502 16.0667L41.5858 19.9804L49.9371 4.64358C50.117 4.31322 50.3958 4.04934 50.7325 3.88764L50.8802 3.82471L52.1587 3.34657Z" stroke="black" stroke-width="4.48615"/>
<path fill-rule="evenodd" clip-rule="evenodd" d="M52.1587 3.34657C52.6379 3.16733 53.1711 3.20225 53.6229 3.44246L70.2595 12.2883C71.1305 12.7514 71.4611 13.8329 70.998 14.7039L70.1514 16.2943L83.833 15.0976C84.7666 15.0159 85.5951 15.668 85.7494 16.5759L85.768 16.7214L87.4109 35.4982C87.4551 36.0042 87.2819 36.505 86.9346 36.8755L86.0105 37.8612C85.7106 38.1811 85.3034 38.3796 84.8665 38.4187L66.0165 40.1047L65.9954 40.1064C65.0119 40.1828 64.1528 39.4473 64.0765 38.4638L63.349 29.0882L62.1491 31.3464C61.9371 31.7449 61.5832 32.0466 61.1609 32.194L60.9995 32.242L59.6879 32.5653C59.2619 32.6704 58.8123 32.615 58.4246 32.4097L50.5262 28.2277L50.3564 28.1377L43.0792 43.3507C42.9169 43.69 42.6523 43.9681 42.3245 44.1472L42.1803 44.2179L40.9286 44.7622C40.4594 44.9663 39.9252 44.9593 39.4614 44.743L22.3847 36.7801C21.4906 36.3631 21.1038 35.3004 21.5208 34.4064L24.2119 28.6332L10.5076 32.3345C9.55518 32.5916 8.57467 32.0281 8.3175 31.0758L8.31212 31.0553L3.63451 12.8823C3.52735 12.4659 3.57394 12.0249 3.76572 11.6402L4.37465 10.4187C4.60294 9.9607 5.01666 9.62264 5.51093 9.4902L23.7109 4.61352C24.6639 4.35819 25.6433 4.92366 25.8985 5.87651L29.1559 18.032L29.4866 17.3237C29.6774 16.9145 30.0149 16.5948 30.4289 16.4255L30.5876 16.3691L31.8807 15.9774C32.3004 15.8503 32.7523 15.8821 33.1502 16.0667L41.5858 19.9804L49.9371 4.64358C50.117 4.31322 50.3958 4.04934 50.7325 3.88764L50.8802 3.82471L52.1587 3.34657Z" stroke="black" stroke-width="1.99385"/>
<path fill-rule="evenodd" clip-rule="evenodd" d="M53.4694 3.37001L53.6229 3.44246L70.2595 12.2883C71.0847 12.727 71.4248 13.7208 71.0646 14.5647L70.998 14.7039L70.1514 16.2943L83.833 15.0976C84.7666 15.0159 85.5951 15.668 85.7494 16.5759L85.768 16.7214L87.4109 35.4982C87.4501 35.948 87.3177 36.3937 87.0438 36.7474L86.9346 36.8755L86.0105 37.8612C85.748 38.1412 85.4036 38.3281 85.0288 38.3966L84.8665 38.4187L66.0165 40.1048L65.9954 40.1064C65.0611 40.1789 64.239 39.5188 64.0938 38.6094L64.0765 38.4638L63.349 29.0882L62.1491 31.3464C61.9371 31.7449 61.5832 32.0466 61.1609 32.194L60.9995 32.242L59.6879 32.5653C59.3152 32.6572 58.9244 32.6262 58.5728 32.4796L58.4246 32.4097L50.5262 28.2277L50.3564 28.1377L43.0792 43.3507C42.9169 43.69 42.6523 43.9681 42.3245 44.1472L42.1803 44.2179L40.9286 44.7622C40.5116 44.9436 40.0431 44.9582 39.6184 44.8074L39.4614 44.743L22.3847 36.7801C21.5377 36.3851 21.1459 35.4105 21.4615 34.5489L21.5208 34.4064L24.2119 28.6332L10.5076 32.3345C9.55518 32.5916 8.57467 32.0281 8.3175 31.0758L8.31212 31.0553L3.63451 12.8823C3.52735 12.466 3.57394 12.025 3.76572 11.6402L4.37465 10.4187C4.60294 9.9607 5.01666 9.62264 5.51093 9.4902L23.7109 4.61352C24.6639 4.3582 25.6433 4.92366 25.8985 5.87652L29.1559 18.032L29.4866 17.3237C29.6774 16.9145 30.0149 16.5948 30.4289 16.4255L30.5876 16.3691L31.8807 15.9774C32.248 15.8663 32.6398 15.8767 32.9985 16.0046L33.1502 16.0667L41.5858 19.9804L49.9371 4.64359C50.117 4.31323 50.3958 4.04934 50.7325 3.88764L50.8802 3.82471L52.1587 3.34657C52.5847 3.18725 53.0533 3.19713 53.4694 3.37001ZM31.8477 20.1062C31.3505 19.8742 30.7592 20.0894 30.5273 20.5868L24.2718 34.0019C24.0399 34.4992 24.255 35.0904 24.7524 35.3223L38.1674 41.5779C38.6648 41.8098 39.2559 41.5946 39.4878 41.0972L45.7434 27.6822C45.9754 27.1848 45.7602 26.5937 45.2629 26.3618L31.8477 20.1062ZM82.5114 17.5439L68.852 18.739L67.0556 22.1165L68.1527 34.656C68.2005 35.2027 68.6825 35.607 69.2291 35.5593L83.9747 34.2692C84.5214 34.2213 84.9258 33.7394 84.8779 33.1928L83.5878 18.4472C83.5401 17.9005 83.0581 17.4962 82.5114 17.5439ZM53.4056 7.0819L46.4566 20.1513C46.199 20.6358 46.3828 21.2374 46.8674 21.495L59.9367 28.444C60.4213 28.7017 61.0229 28.5178 61.2805 28.0333L68.2296 14.9639C68.4871 14.4794 68.3033 13.8778 67.8188 13.6201L54.7494 6.67108C54.2649 6.41345 53.6632 6.59739 53.4056 7.0819ZM24.0512 7.95472C23.9091 7.42467 23.3643 7.11012 22.8343 7.25214L8.53671 11.0831C8.00666 11.2252 7.69209 11.77 7.83413 12.3001L11.6652 26.5976C11.8072 27.1276 12.352 27.4422 12.8821 27.3002L26.5377 23.6412L27.6271 21.3005L24.0512 7.95472Z" fill="black"/>
<path fill-rule="evenodd" clip-rule="evenodd" d="M70.5312 21.0721L79.9486 20.248L80.1777 22.8747L74.3049 23.3878L74.475 25.3246L79.6298 24.8682L79.8498 27.3567L74.6927 27.8068L74.8769 29.9158L80.9763 29.3819L81.2062 32.0092L71.559 32.8528L70.5312 21.0721Z" fill="black"/>
<path fill-rule="evenodd" clip-rule="evenodd" d="M18.794 23.9177C20.4362 23.4777 21.5715 22.7303 22.1999 21.6756C22.8283 20.6209 22.921 19.2666 22.4778 17.6127L20.4789 10.1528L12.3086 12.342L13.136 15.4301L17.2645 14.3239L18.5011 18.9386C18.6343 19.4359 18.6223 19.842 18.465 20.1569C18.3076 20.4717 18.015 20.6865 17.5871 20.8011C17.2518 20.891 16.9017 20.8795 16.5367 20.7665C16.1718 20.6536 15.7732 20.4381 15.3409 20.12L13.8351 23.3126C14.4905 23.7693 15.2437 24.0478 16.0948 24.1481C16.9461 24.2486 17.8458 24.1718 18.794 23.9177Z" fill="black"/>
<path fill-rule="evenodd" clip-rule="evenodd" d="M32.484 36.5881C34.1399 37.3602 35.6385 37.5163 36.98 37.0563C38.3215 36.5963 39.3674 35.5617 40.1176 33.9527L42.8777 28.0338L39.2984 26.3648L36.5886 32.176C36.2206 32.9651 35.8116 33.4732 35.3615 33.7C34.9113 33.9267 34.4189 33.9155 33.884 33.6661C33.3491 33.4167 33.024 33.0467 32.9084 32.5561C32.7928 32.0655 32.919 31.4256 33.287 30.6364L35.9968 24.8253L32.3559 23.1274L29.5959 29.0463C28.8456 30.6553 28.7253 32.1215 29.2353 33.4448C29.7451 34.7681 30.8281 35.8159 32.484 36.5881Z" fill="black"/>
<path fill-rule="evenodd" clip-rule="evenodd" d="M49.6836 19.8987L52.6647 21.4862L55.4482 16.2499L57.1076 23.8478L59.6823 25.2179L65.0003 15.2162L62.0166 13.6307L59.2331 18.867L57.5733 11.2664L54.9979 9.89795L49.6836 19.8987Z" fill="black"/>
</g>
</g>
<defs>
<clipPath id="clip0_718_8926">
<rect width="90" height="47.4725" fill="white" transform="translate(0.5 0.263672)"/>
</clipPath>
</defs>
</svg>
