<svg width="50" height="51" viewBox="0 0 50 51" fill="none" xmlns="http://www.w3.org/2000/svg">
<path d="M28.3616 47.8097C8.13466 50.2615 -0.651461 31.6594 4.49789 18.7326C5.22432 18.9156 8.41746 19.6049 10.1783 20.0893C12.0875 13.5203 13.6792 9.00513 14.8629 5.88205C16.6555 6.89492 18.2263 8.23609 20.8167 9.4524C24.8335 6.14992 25.5252 5.36229 28.5839 2.90625C31.1037 6.36051 34.2308 11.5984 36.0897 14.479L44.0459 10.6013C50.9823 21.4026 48.5885 45.3578 28.3616 47.8097Z" fill="#FFD231" stroke="black" stroke-width="4"/>
<path d="M25.9981 35.1058C21.4882 35.1058 17.8322 31.4498 17.8322 26.9399C17.8322 22.4299 21.4882 18.7739 25.9981 18.7739C30.508 18.7739 34.1641 22.4299 34.1641 26.9399C34.1641 31.4498 30.508 35.1058 25.9981 35.1058Z" fill="#23C1F2" stroke="black" stroke-width="4" stroke-linejoin="round"/>
<path d="M20.1172 31.813L13.6751 37.5617" stroke="black" stroke-width="4" stroke-linejoin="round"/>
</svg>
