<svg width="50" height="50" viewBox="0 0 50 50" fill="none" xmlns="http://www.w3.org/2000/svg">
<path d="M27.2539 48H29.2539V46V39.5C29.2539 34.8056 25.4483 31 20.7539 31C16.0595 31 12.2539 34.8056 12.2539 39.5V46V48H14.2539H27.2539Z" fill="#FFD231" stroke="black" stroke-width="4" stroke-miterlimit="10"/>
<path d="M45.8164 48H47.8164V46V39.5C47.8164 34.8056 44.0108 31 39.3164 31C34.622 31 30.8164 34.8056 30.8164 39.5V46V48H32.8164H45.8164Z" fill="#27E2A0" stroke="black" stroke-width="4" stroke-miterlimit="10"/>
<path d="M26.9783 22.5111L26.9778 22.3813C26.9635 18.8882 24.1073 16.0324 20.6134 16.0179C17.1618 16.0036 14.3831 18.77 14.3831 22.2206L14.3831 22.3504C14.3831 25.8638 17.2598 28.7399 20.7739 28.7399C24.2253 28.7399 26.9924 25.9619 26.9783 22.5111Z" fill="#FFD231" stroke="black" stroke-width="4" stroke-miterlimit="10"/>
<path d="M45.5408 22.5111L45.5403 22.3813C45.526 18.8882 42.6698 16.0324 39.1759 16.0179C35.7243 16.0036 32.9456 18.77 32.9456 22.2206L32.9456 22.3504C32.9456 25.8638 35.8223 28.7399 39.3364 28.7399C42.7878 28.7399 45.5549 25.9619 45.5408 22.5111Z" fill="#27E2A0" stroke="black" stroke-width="4" stroke-miterlimit="10"/>
<path d="M0.709964 13.2183L19.6746 19.615L13.2408 0.687421L9.949 9.88938L0.709964 13.2183Z" fill="white" stroke="black" stroke-width="4" stroke-linejoin="bevel"/>
</svg>
