<svg width="50" height="50" viewBox="0 0 50 50" fill="none" xmlns="http://www.w3.org/2000/svg">
<circle cx="17.5771" cy="32.2625" r="15.5537" fill="#27E2A0" stroke="black" stroke-width="4"/>
<circle cx="32.4209" cy="17.5774" r="15.5537" fill="#F2BBFB" stroke="black" stroke-width="4"/>
<path fill-rule="evenodd" clip-rule="evenodd" d="M16.8902 16.7239C17.118 16.714 17.347 16.709 17.5771 16.709C26.1672 16.709 33.1309 23.6726 33.1309 32.2627C33.1309 32.5491 33.1231 32.8337 33.1078 33.1163C32.8801 33.1262 32.6511 33.1312 32.4209 33.1312C23.8308 33.1312 16.8672 26.1675 16.8672 17.5775C16.8672 17.2911 16.8749 17.0065 16.8902 16.7239Z" fill="white"/>
<path d="M16.8902 16.7239L16.8034 14.7258L14.9911 14.8045L14.8931 16.6159L16.8902 16.7239ZM33.1078 33.1163L33.1947 35.1144L35.007 35.0356L35.1049 33.2243L33.1078 33.1163ZM16.977 18.722C17.1759 18.7134 17.3759 18.709 17.5771 18.709V14.709C17.318 14.709 17.06 14.7146 16.8034 14.7258L16.977 18.722ZM17.5771 18.709C25.0627 18.709 31.1309 24.7772 31.1309 32.2627H35.1309C35.1309 22.568 27.2718 14.709 17.5771 14.709V18.709ZM31.1309 32.2627C31.1309 32.513 31.1241 32.7616 31.1108 33.0083L35.1049 33.2243C35.1221 32.9058 35.1309 32.5851 35.1309 32.2627H31.1309ZM33.021 31.1182C32.8222 31.1268 32.6221 31.1312 32.4209 31.1312V35.1312C32.6801 35.1312 32.938 35.1255 33.1947 35.1144L33.021 31.1182ZM32.4209 31.1312C24.9354 31.1312 18.8672 25.063 18.8672 17.5775H14.8672C14.8672 27.2721 22.7263 35.1312 32.4209 35.1312V31.1312ZM18.8672 17.5775C18.8672 17.3271 18.874 17.0785 18.8873 16.8319L14.8931 16.6159C14.8759 16.9344 14.8672 17.255 14.8672 17.5775H18.8672Z" fill="black"/>
</svg>
