<svg width="800" height="330" viewBox="0 0 800 330" fill="none" xmlns="http://www.w3.org/2000/svg">
<rect x="198.758" y="137.888" width="69.5652" height="14.9068" fill="#FCECCF"/>
<rect x="383.851" y="157.765" width="53.4161" height="14.9068" fill="#DECFFC"/>
<rect x="508.074" y="157.765" width="47.205" height="14.9068" fill="#FCCFEA"/>
<path d="M202.186 149.335V141.577H204.951C205.552 141.577 206.051 141.681 206.447 141.888C206.846 142.095 207.144 142.382 207.341 142.748C207.538 143.111 207.637 143.532 207.637 144.009C207.637 144.484 207.537 144.902 207.337 145.263C207.14 145.622 206.842 145.901 206.443 146.1C206.047 146.3 205.548 146.399 204.947 146.399H202.852V145.392H204.841C205.22 145.392 205.528 145.337 205.765 145.229C206.005 145.12 206.181 144.962 206.292 144.755C206.403 144.548 206.458 144.3 206.458 144.009C206.458 143.716 206.402 143.462 206.288 143.248C206.177 143.033 206.001 142.869 205.762 142.755C205.524 142.639 205.212 142.581 204.826 142.581H203.356V149.335H202.186ZM206.015 145.835L207.932 149.335H206.599L204.72 145.835H206.015ZM211.405 149.452C210.831 149.452 210.338 149.33 209.923 149.085C209.512 148.837 209.194 148.49 208.969 148.043C208.747 147.594 208.636 147.067 208.636 146.464C208.636 145.868 208.747 145.343 208.969 144.888C209.194 144.433 209.507 144.079 209.908 143.824C210.312 143.569 210.785 143.441 211.325 143.441C211.653 143.441 211.971 143.495 212.28 143.604C212.588 143.712 212.864 143.883 213.109 144.115C213.354 144.348 213.547 144.649 213.689 145.021C213.83 145.389 213.901 145.837 213.901 146.365V146.767H209.276V145.918H212.791C212.791 145.62 212.73 145.356 212.609 145.127C212.488 144.894 212.317 144.711 212.098 144.577C211.881 144.444 211.625 144.377 211.333 144.377C211.014 144.377 210.737 144.455 210.499 144.611C210.264 144.766 210.083 144.968 209.954 145.218C209.827 145.465 209.764 145.734 209.764 146.024V146.687C209.764 147.076 209.833 147.407 209.969 147.68C210.108 147.952 210.301 148.161 210.548 148.305C210.796 148.446 211.085 148.517 211.416 148.517C211.631 148.517 211.826 148.486 212.003 148.426C212.18 148.363 212.333 148.269 212.461 148.146C212.59 148.022 212.689 147.869 212.757 147.687L213.829 147.88C213.743 148.196 213.589 148.473 213.367 148.71C213.147 148.945 212.87 149.128 212.537 149.259C212.206 149.388 211.829 149.452 211.405 149.452ZM216.29 141.577V149.335H215.157V141.577H216.29ZM220.321 149.452C219.748 149.452 219.254 149.33 218.84 149.085C218.429 148.837 218.11 148.49 217.886 148.043C217.663 147.594 217.552 147.067 217.552 146.464C217.552 145.868 217.663 145.343 217.886 144.888C218.11 144.433 218.423 144.079 218.825 143.824C219.229 143.569 219.701 143.441 220.242 143.441C220.57 143.441 220.888 143.495 221.196 143.604C221.504 143.712 221.781 143.883 222.026 144.115C222.271 144.348 222.464 144.649 222.605 145.021C222.747 145.389 222.817 145.837 222.817 146.365V146.767H218.192V145.918H221.708C221.708 145.62 221.647 145.356 221.526 145.127C221.405 144.894 221.234 144.711 221.014 144.577C220.797 144.444 220.542 144.377 220.249 144.377C219.931 144.377 219.653 144.455 219.416 144.611C219.181 144.766 218.999 144.968 218.87 145.218C218.744 145.465 218.681 145.734 218.681 146.024V146.687C218.681 147.076 218.749 147.407 218.886 147.68C219.024 147.952 219.218 148.161 219.465 148.305C219.713 148.446 220.002 148.517 220.333 148.517C220.547 148.517 220.743 148.486 220.92 148.426C221.096 148.363 221.249 148.269 221.378 148.146C221.507 148.022 221.605 147.869 221.673 147.687L222.745 147.88C222.66 148.196 222.506 148.473 222.283 148.71C222.064 148.945 221.787 149.128 221.454 149.259C221.123 149.388 220.745 149.452 220.321 149.452ZM225.767 149.464C225.399 149.464 225.065 149.396 224.767 149.259C224.469 149.12 224.233 148.92 224.059 148.657C223.887 148.394 223.801 148.072 223.801 147.691C223.801 147.363 223.864 147.093 223.991 146.88C224.117 146.668 224.287 146.5 224.502 146.377C224.717 146.253 224.957 146.159 225.222 146.096C225.487 146.033 225.757 145.985 226.032 145.952C226.381 145.912 226.664 145.879 226.881 145.854C227.098 145.826 227.256 145.782 227.354 145.721C227.453 145.661 227.502 145.562 227.502 145.426V145.399C227.502 145.069 227.409 144.812 227.222 144.63C227.037 144.449 226.762 144.358 226.396 144.358C226.015 144.358 225.714 144.442 225.494 144.611C225.277 144.778 225.127 144.964 225.044 145.168L223.979 144.926C224.106 144.572 224.29 144.287 224.532 144.07C224.777 143.85 225.059 143.691 225.377 143.593C225.695 143.492 226.03 143.441 226.381 143.441C226.613 143.441 226.859 143.469 227.119 143.524C227.382 143.577 227.627 143.676 227.854 143.82C228.084 143.964 228.272 144.17 228.419 144.437C228.565 144.702 228.638 145.047 228.638 145.471V149.335H227.532V148.54H227.487C227.414 148.686 227.304 148.83 227.157 148.971C227.011 149.113 226.823 149.23 226.593 149.324C226.363 149.417 226.088 149.464 225.767 149.464ZM226.013 148.555C226.327 148.555 226.594 148.493 226.816 148.369C227.041 148.245 227.212 148.084 227.328 147.884C227.446 147.682 227.506 147.466 227.506 147.236V146.486C227.465 146.527 227.387 146.565 227.271 146.6C227.157 146.633 227.027 146.662 226.881 146.687C226.734 146.71 226.592 146.731 226.453 146.752C226.314 146.769 226.198 146.784 226.104 146.797C225.885 146.825 225.684 146.872 225.502 146.937C225.323 147.003 225.179 147.098 225.07 147.221C224.964 147.343 224.911 147.504 224.911 147.706C224.911 147.986 225.015 148.199 225.222 148.343C225.429 148.484 225.693 148.555 226.013 148.555ZM234.507 144.937L233.48 145.119C233.437 144.988 233.369 144.863 233.276 144.744C233.185 144.625 233.061 144.528 232.905 144.452C232.748 144.377 232.552 144.339 232.317 144.339C231.997 144.339 231.729 144.411 231.514 144.555C231.3 144.696 231.192 144.879 231.192 145.104C231.192 145.298 231.264 145.455 231.408 145.574C231.552 145.692 231.785 145.79 232.105 145.865L233.03 146.077C233.565 146.201 233.964 146.392 234.226 146.649C234.489 146.907 234.62 147.242 234.62 147.653C234.62 148.002 234.519 148.312 234.317 148.585C234.118 148.855 233.839 149.067 233.48 149.221C233.124 149.375 232.711 149.452 232.242 149.452C231.59 149.452 231.059 149.313 230.647 149.036C230.235 148.755 229.983 148.358 229.889 147.843L230.984 147.676C231.052 147.961 231.192 148.177 231.405 148.324C231.617 148.468 231.893 148.54 232.234 148.54C232.605 148.54 232.902 148.462 233.124 148.308C233.346 148.152 233.458 147.961 233.458 147.736C233.458 147.555 233.389 147.402 233.253 147.278C233.119 147.154 232.913 147.061 232.636 146.998L231.651 146.782C231.108 146.658 230.706 146.461 230.446 146.191C230.189 145.921 230.06 145.579 230.06 145.165C230.06 144.821 230.156 144.521 230.348 144.263C230.54 144.005 230.805 143.805 231.143 143.661C231.482 143.514 231.869 143.441 232.306 143.441C232.935 143.441 233.43 143.577 233.791 143.85C234.152 144.12 234.391 144.483 234.507 144.937ZM238.373 149.452C237.8 149.452 237.306 149.33 236.892 149.085C236.481 148.837 236.162 148.49 235.938 148.043C235.715 147.594 235.604 147.067 235.604 146.464C235.604 145.868 235.715 145.343 235.938 144.888C236.162 144.433 236.476 144.079 236.877 143.824C237.281 143.569 237.753 143.441 238.294 143.441C238.622 143.441 238.94 143.495 239.248 143.604C239.556 143.712 239.833 143.883 240.078 144.115C240.323 144.348 240.516 144.649 240.657 145.021C240.799 145.389 240.869 145.837 240.869 146.365V146.767H236.244V145.918H239.76C239.76 145.62 239.699 145.356 239.578 145.127C239.457 144.894 239.286 144.711 239.066 144.577C238.849 144.444 238.594 144.377 238.301 144.377C237.983 144.377 237.705 144.455 237.468 144.611C237.233 144.766 237.051 144.968 236.922 145.218C236.796 145.465 236.733 145.734 236.733 146.024V146.687C236.733 147.076 236.801 147.407 236.938 147.68C237.077 147.952 237.27 148.161 237.517 148.305C237.765 148.446 238.054 148.517 238.385 148.517C238.599 148.517 238.795 148.486 238.972 148.426C239.149 148.363 239.301 148.269 239.43 148.146C239.559 148.022 239.657 147.869 239.726 147.687L240.797 147.88C240.712 148.196 240.558 148.473 240.335 148.71C240.116 148.945 239.839 149.128 239.506 149.259C239.175 149.388 238.797 149.452 238.373 149.452ZM246.082 145.88V149.335H244.949V143.517H246.036V144.464H246.108C246.242 144.156 246.452 143.908 246.737 143.721C247.025 143.534 247.387 143.441 247.824 143.441C248.22 143.441 248.568 143.524 248.866 143.691C249.164 143.855 249.395 144.1 249.559 144.426C249.723 144.752 249.805 145.154 249.805 145.634V149.335H248.672V145.771C248.672 145.349 248.563 145.019 248.343 144.782C248.123 144.542 247.821 144.422 247.438 144.422C247.175 144.422 246.941 144.479 246.737 144.593C246.535 144.706 246.375 144.873 246.256 145.093C246.14 145.31 246.082 145.572 246.082 145.88ZM253.775 149.452C253.229 149.452 252.753 149.327 252.347 149.077C251.94 148.827 251.625 148.478 251.4 148.028C251.175 147.579 251.063 147.053 251.063 146.452C251.063 145.849 251.175 145.321 251.4 144.869C251.625 144.417 251.94 144.066 252.347 143.816C252.753 143.566 253.229 143.441 253.775 143.441C254.32 143.441 254.796 143.566 255.203 143.816C255.609 144.066 255.925 144.417 256.15 144.869C256.375 145.321 256.487 145.849 256.487 146.452C256.487 147.053 256.375 147.579 256.15 148.028C255.925 148.478 255.609 148.827 255.203 149.077C254.796 149.327 254.32 149.452 253.775 149.452ZM253.779 148.502C254.132 148.502 254.425 148.408 254.657 148.221C254.89 148.034 255.061 147.786 255.172 147.475C255.286 147.165 255.343 146.822 255.343 146.449C255.343 146.077 255.286 145.736 255.172 145.426C255.061 145.113 254.89 144.861 254.657 144.672C254.425 144.483 254.132 144.388 253.779 144.388C253.422 144.388 253.127 144.483 252.892 144.672C252.66 144.861 252.487 145.113 252.373 145.426C252.262 145.736 252.207 146.077 252.207 146.449C252.207 146.822 252.262 147.165 252.373 147.475C252.487 147.786 252.66 148.034 252.892 148.221C253.127 148.408 253.422 148.502 253.779 148.502ZM260.467 143.517V144.426H257.289V143.517H260.467ZM258.141 142.123H259.274V147.627C259.274 147.846 259.307 148.012 259.372 148.123C259.438 148.231 259.523 148.306 259.626 148.346C259.732 148.384 259.847 148.403 259.971 148.403C260.062 148.403 260.141 148.397 260.209 148.384C260.278 148.372 260.331 148.361 260.369 148.354L260.573 149.29C260.507 149.315 260.414 149.34 260.293 149.365C260.172 149.393 260.02 149.408 259.838 149.411C259.54 149.416 259.262 149.363 259.005 149.252C258.747 149.141 258.539 148.969 258.38 148.736C258.221 148.504 258.141 148.212 258.141 147.861V142.123ZM264.165 149.452C263.592 149.452 263.098 149.33 262.684 149.085C262.272 148.837 261.954 148.49 261.729 148.043C261.507 147.594 261.396 147.067 261.396 146.464C261.396 145.868 261.507 145.343 261.729 144.888C261.954 144.433 262.267 144.079 262.669 143.824C263.073 143.569 263.545 143.441 264.085 143.441C264.414 143.441 264.732 143.495 265.04 143.604C265.348 143.712 265.625 143.883 265.869 144.115C266.114 144.348 266.308 144.649 266.449 145.021C266.59 145.389 266.661 145.837 266.661 146.365V146.767H262.036V145.918H265.551C265.551 145.62 265.491 145.356 265.369 145.127C265.248 144.894 265.078 144.711 264.858 144.577C264.641 144.444 264.386 144.377 264.093 144.377C263.775 144.377 263.497 144.455 263.26 144.611C263.025 144.766 262.843 144.968 262.714 145.218C262.588 145.465 262.525 145.734 262.525 146.024V146.687C262.525 147.076 262.593 147.407 262.729 147.68C262.868 147.952 263.061 148.161 263.309 148.305C263.556 148.446 263.845 148.517 264.176 148.517C264.391 148.517 264.587 148.486 264.763 148.426C264.94 148.363 265.093 148.269 265.222 148.146C265.351 148.022 265.449 147.869 265.517 147.687L266.589 147.88C266.503 148.196 266.349 148.473 266.127 148.71C265.907 148.945 265.631 149.128 265.297 149.259C264.967 149.388 264.589 149.452 264.165 149.452Z" fill="black"/>
<path d="M387.703 168.441C387.279 168.441 386.905 168.334 386.58 168.12C386.255 167.903 386.001 167.598 385.818 167.205C385.634 166.809 385.542 166.342 385.542 165.803C385.542 165.268 385.634 164.804 385.818 164.411C386.001 164.017 386.256 163.714 386.583 163.499C386.91 163.285 387.288 163.178 387.717 163.178C388.048 163.178 388.31 163.233 388.502 163.343C388.697 163.452 388.845 163.575 388.946 163.715C389.05 163.852 389.131 163.964 389.188 164.053H389.255V161.547H390.037V168.335H389.281V167.553H389.188C389.131 167.646 389.049 167.763 388.943 167.904C388.837 168.043 388.686 168.168 388.489 168.279C388.292 168.387 388.03 168.441 387.703 168.441ZM387.81 167.738C388.123 167.738 388.388 167.657 388.605 167.493C388.821 167.327 388.986 167.099 389.099 166.807C389.211 166.513 389.268 166.174 389.268 165.79C389.268 165.409 389.213 165.077 389.102 164.792C388.992 164.505 388.828 164.281 388.612 164.122C388.395 163.961 388.128 163.88 387.81 163.88C387.478 163.88 387.202 163.965 386.981 164.136C386.762 164.304 386.598 164.532 386.487 164.822C386.379 165.109 386.325 165.432 386.325 165.79C386.325 166.152 386.38 166.481 386.49 166.777C386.603 167.071 386.769 167.305 386.988 167.48C387.208 167.652 387.482 167.738 387.81 167.738ZM393.076 168.454C392.753 168.454 392.461 168.394 392.198 168.272C391.935 168.148 391.726 167.97 391.571 167.738C391.417 167.504 391.339 167.221 391.339 166.89C391.339 166.598 391.397 166.362 391.512 166.181C391.627 165.997 391.78 165.854 391.972 165.75C392.165 165.646 392.377 165.569 392.609 165.518C392.843 165.465 393.078 165.423 393.315 165.392C393.624 165.352 393.875 165.322 394.067 165.302C394.262 165.28 394.403 165.244 394.491 165.193C394.582 165.142 394.627 165.054 394.627 164.928V164.901C394.627 164.574 394.538 164.32 394.359 164.139C394.182 163.958 393.914 163.867 393.553 163.867C393.18 163.867 392.887 163.949 392.675 164.112C392.463 164.276 392.314 164.45 392.228 164.636L391.485 164.371C391.618 164.062 391.795 163.821 392.015 163.648C392.239 163.474 392.482 163.352 392.745 163.284C393.01 163.213 393.271 163.178 393.527 163.178C393.69 163.178 393.878 163.198 394.09 163.237C394.305 163.275 394.511 163.353 394.71 163.473C394.911 163.592 395.078 163.772 395.211 164.013C395.343 164.254 395.409 164.576 395.409 164.981V168.335H394.627V167.646H394.587C394.534 167.756 394.446 167.874 394.322 168C394.199 168.126 394.034 168.233 393.828 168.322C393.623 168.41 393.372 168.454 393.076 168.454ZM393.195 167.752C393.505 167.752 393.765 167.691 393.978 167.569C394.192 167.448 394.353 167.291 394.461 167.099C394.572 166.906 394.627 166.704 394.627 166.492V165.776C394.594 165.816 394.521 165.852 394.408 165.886C394.298 165.917 394.17 165.944 394.024 165.968C393.88 165.991 393.74 166.01 393.603 166.028C393.468 166.044 393.359 166.057 393.275 166.068C393.072 166.094 392.882 166.138 392.705 166.197C392.53 166.255 392.389 166.342 392.281 166.459C392.175 166.574 392.122 166.731 392.122 166.93C392.122 167.201 392.222 167.407 392.423 167.546C392.626 167.683 392.884 167.752 393.195 167.752ZM396.837 168.335V163.244H397.593V164.013H397.646C397.739 163.761 397.907 163.557 398.15 163.4C398.393 163.243 398.667 163.165 398.972 163.165C399.029 163.165 399.101 163.166 399.187 163.168C399.273 163.17 399.338 163.173 399.383 163.178V163.973C399.356 163.967 399.295 163.957 399.2 163.943C399.107 163.928 399.009 163.92 398.905 163.92C398.658 163.92 398.437 163.972 398.242 164.076C398.05 164.178 397.898 164.319 397.785 164.5C397.675 164.679 397.619 164.884 397.619 165.113V168.335H396.837ZM401.039 166.479L401.026 165.511H401.185L403.412 163.244H404.38L402.007 165.644H401.94L401.039 166.479ZM400.31 168.335V161.547H401.092V168.335H400.31ZM403.545 168.335L401.556 165.816L402.113 165.272L404.539 168.335H403.545ZM410.226 163.244V163.907H407.587V163.244H410.226ZM408.356 162.024H409.138V166.877C409.138 167.098 409.17 167.263 409.235 167.374C409.301 167.482 409.385 167.555 409.486 167.593C409.59 167.628 409.7 167.646 409.815 167.646C409.901 167.646 409.971 167.641 410.027 167.632C410.082 167.621 410.126 167.612 410.159 167.606L410.318 168.308C410.265 168.328 410.191 168.348 410.096 168.368C410.001 168.39 409.881 168.401 409.735 168.401C409.514 168.401 409.298 168.354 409.085 168.259C408.875 168.164 408.701 168.019 408.562 167.825C408.425 167.63 408.356 167.385 408.356 167.089V162.024ZM412.294 165.272V168.335H411.512V161.547H412.294V164.04H412.36C412.479 163.777 412.658 163.568 412.897 163.413C413.138 163.256 413.458 163.178 413.858 163.178C414.205 163.178 414.509 163.247 414.77 163.387C415.03 163.524 415.233 163.735 415.376 164.02C415.522 164.302 415.595 164.663 415.595 165.1V168.335H414.813V165.153C414.813 164.749 414.708 164.436 414.498 164.215C414.29 163.992 414.002 163.88 413.633 163.88C413.376 163.88 413.147 163.935 412.943 164.043C412.742 164.151 412.583 164.309 412.466 164.517C412.351 164.724 412.294 164.976 412.294 165.272ZM419.16 168.441C418.67 168.441 418.247 168.333 417.891 168.116C417.537 167.897 417.265 167.593 417.072 167.201C416.882 166.808 416.787 166.351 416.787 165.829C416.787 165.308 416.882 164.848 417.072 164.45C417.265 164.051 417.532 163.739 417.874 163.516C418.219 163.29 418.621 163.178 419.081 163.178C419.346 163.178 419.608 163.222 419.866 163.31C420.125 163.399 420.36 163.542 420.572 163.741C420.784 163.938 420.953 164.199 421.079 164.523C421.205 164.848 421.268 165.248 421.268 165.723V166.055H417.344V165.379H420.473C420.473 165.091 420.415 164.835 420.3 164.61C420.188 164.384 420.027 164.206 419.817 164.076C419.609 163.946 419.364 163.88 419.081 163.88C418.769 163.88 418.5 163.958 418.272 164.112C418.047 164.265 417.873 164.464 417.752 164.709C417.63 164.954 417.569 165.217 417.569 165.498V165.949C417.569 166.333 417.636 166.659 417.768 166.926C417.903 167.191 418.09 167.394 418.328 167.533C418.567 167.67 418.844 167.738 419.16 167.738C419.366 167.738 419.551 167.71 419.717 167.652C419.885 167.593 420.03 167.504 420.151 167.387C420.273 167.268 420.367 167.12 420.433 166.943L421.189 167.155C421.109 167.411 420.976 167.637 420.788 167.831C420.6 168.023 420.368 168.174 420.092 168.282C419.815 168.388 419.505 168.441 419.16 168.441ZM422.458 168.335V163.244H423.214V164.04H423.28C423.386 163.768 423.557 163.557 423.794 163.406C424.03 163.254 424.314 163.178 424.646 163.178C424.982 163.178 425.261 163.254 425.484 163.406C425.71 163.557 425.885 163.768 426.011 164.04H426.064C426.195 163.777 426.39 163.568 426.651 163.413C426.912 163.256 427.224 163.178 427.589 163.178C428.044 163.178 428.416 163.32 428.706 163.605C428.995 163.888 429.14 164.329 429.14 164.928V168.335H428.358V164.928C428.358 164.552 428.255 164.284 428.05 164.122C427.844 163.961 427.602 163.88 427.324 163.88C426.966 163.88 426.688 163.989 426.492 164.205C426.295 164.42 426.197 164.691 426.197 165.021V168.335H425.401V164.848C425.401 164.559 425.307 164.326 425.12 164.149C424.932 163.97 424.69 163.88 424.394 163.88C424.19 163.88 424 163.935 423.824 164.043C423.649 164.151 423.508 164.301 423.399 164.494C423.293 164.684 423.24 164.903 423.24 165.153V168.335H422.458ZM432.705 168.441C432.214 168.441 431.791 168.333 431.435 168.116C431.082 167.897 430.809 167.593 430.617 167.201C430.427 166.808 430.332 166.351 430.332 165.829C430.332 165.308 430.427 164.848 430.617 164.45C430.809 164.051 431.076 163.739 431.419 163.516C431.763 163.29 432.165 163.178 432.625 163.178C432.89 163.178 433.152 163.222 433.411 163.31C433.669 163.399 433.904 163.542 434.117 163.741C434.329 163.938 434.498 164.199 434.624 164.523C434.75 164.848 434.813 165.248 434.813 165.723V166.055H430.888V165.379H434.017C434.017 165.091 433.96 164.835 433.845 164.61C433.732 164.384 433.571 164.206 433.361 164.076C433.153 163.946 432.908 163.88 432.625 163.88C432.314 163.88 432.044 163.958 431.816 164.112C431.591 164.265 431.418 164.464 431.296 164.709C431.174 164.954 431.114 165.217 431.114 165.498V165.949C431.114 166.333 431.18 166.659 431.313 166.926C431.447 167.191 431.634 167.394 431.873 167.533C432.111 167.67 432.389 167.738 432.705 167.738C432.91 167.738 433.096 167.71 433.261 167.652C433.429 167.593 433.574 167.504 433.696 167.387C433.817 167.268 433.911 167.12 433.977 166.943L434.733 167.155C434.653 167.411 434.52 167.637 434.332 167.831C434.144 168.023 433.912 168.174 433.636 168.282C433.36 168.388 433.049 168.441 432.705 168.441ZM510.541 168.335V163.244H511.324V168.335H510.541ZM510.939 162.396C510.787 162.396 510.655 162.344 510.545 162.24C510.437 162.136 510.382 162.011 510.382 161.865C510.382 161.719 510.437 161.595 510.545 161.491C510.655 161.387 510.787 161.335 510.939 161.335C511.092 161.335 511.222 161.387 511.33 161.491C511.441 161.595 511.496 161.719 511.496 161.865C511.496 162.011 511.441 162.136 511.33 162.24C511.222 162.344 511.092 162.396 510.939 162.396ZM513.539 165.272V168.335H512.756V163.244H513.512V164.04H513.578C513.698 163.781 513.879 163.573 514.122 163.416C514.365 163.257 514.679 163.178 515.063 163.178C515.408 163.178 515.709 163.248 515.968 163.39C516.226 163.529 516.428 163.741 516.571 164.026C516.715 164.309 516.787 164.667 516.787 165.1V168.335H516.004V165.153C516.004 164.753 515.901 164.442 515.693 164.218C515.485 163.993 515.2 163.88 514.838 163.88C514.588 163.88 514.365 163.935 514.168 164.043C513.974 164.151 513.82 164.309 513.708 164.517C513.595 164.724 513.539 164.976 513.539 165.272ZM523.055 163.244V163.907H520.417V163.244H523.055ZM521.186 162.024H521.968V166.877C521.968 167.098 522 167.263 522.064 167.374C522.13 167.482 522.214 167.555 522.316 167.593C522.42 167.628 522.529 167.646 522.644 167.646C522.73 167.646 522.801 167.641 522.856 167.632C522.911 167.621 522.956 167.612 522.989 167.606L523.148 168.308C523.095 168.328 523.021 168.348 522.926 168.368C522.831 168.39 522.71 168.401 522.564 168.401C522.343 168.401 522.127 168.354 521.915 168.259C521.705 168.164 521.53 168.019 521.391 167.825C521.254 167.63 521.186 167.385 521.186 167.089V162.024ZM525.123 165.272V168.335H524.341V161.547H525.123V164.04H525.189C525.309 163.777 525.488 163.568 525.726 163.413C525.967 163.256 526.288 163.178 526.688 163.178C527.034 163.178 527.338 163.247 527.599 163.387C527.86 163.524 528.062 163.735 528.206 164.02C528.351 164.302 528.424 164.663 528.424 165.1V168.335H527.642V165.153C527.642 164.749 527.537 164.436 527.327 164.215C527.12 163.992 526.831 163.88 526.462 163.88C526.206 163.88 525.976 163.935 525.773 164.043C525.572 164.151 525.413 164.309 525.295 164.517C525.181 164.724 525.123 164.976 525.123 165.272ZM531.99 168.441C531.499 168.441 531.076 168.333 530.72 168.116C530.367 167.897 530.094 167.593 529.902 167.201C529.712 166.808 529.617 166.351 529.617 165.829C529.617 165.308 529.712 164.848 529.902 164.45C530.094 164.051 530.361 163.739 530.704 163.516C531.048 163.29 531.451 163.178 531.91 163.178C532.175 163.178 532.437 163.222 532.696 163.31C532.954 163.399 533.19 163.542 533.402 163.741C533.614 163.938 533.783 164.199 533.909 164.523C534.035 164.848 534.098 165.248 534.098 165.723V166.055H530.173V165.379H533.302C533.302 165.091 533.245 164.835 533.13 164.61C533.017 164.384 532.856 164.206 532.646 164.076C532.438 163.946 532.193 163.88 531.91 163.88C531.599 163.88 531.329 163.958 531.101 164.112C530.876 164.265 530.703 164.464 530.581 164.709C530.46 164.954 530.399 165.217 530.399 165.498V165.949C530.399 166.333 530.465 166.659 530.598 166.926C530.732 167.191 530.919 167.394 531.158 167.533C531.396 167.67 531.674 167.738 531.99 167.738C532.195 167.738 532.381 167.71 532.547 167.652C532.714 167.593 532.859 167.504 532.981 167.387C533.102 167.268 533.196 167.12 533.262 166.943L534.018 167.155C533.939 167.411 533.805 167.637 533.617 167.831C533.429 168.023 533.197 168.174 532.921 168.282C532.645 168.388 532.334 168.441 531.99 168.441ZM539.411 168.454C539.088 168.454 538.795 168.394 538.532 168.272C538.269 168.148 538.061 167.97 537.906 167.738C537.751 167.504 537.674 167.221 537.674 166.89C537.674 166.598 537.731 166.362 537.846 166.181C537.961 165.997 538.115 165.854 538.307 165.75C538.499 165.646 538.711 165.569 538.943 165.518C539.178 165.465 539.413 165.423 539.649 165.392C539.959 165.352 540.209 165.322 540.402 165.302C540.596 165.28 540.738 165.244 540.826 165.193C540.916 165.142 540.962 165.054 540.962 164.928V164.901C540.962 164.574 540.872 164.32 540.693 164.139C540.517 163.958 540.248 163.867 539.888 163.867C539.514 163.867 539.222 163.949 539.01 164.112C538.797 164.276 538.648 164.45 538.562 164.636L537.82 164.371C537.952 164.062 538.129 163.821 538.35 163.648C538.573 163.474 538.816 163.352 539.079 163.284C539.344 163.213 539.605 163.178 539.861 163.178C540.025 163.178 540.213 163.198 540.425 163.237C540.639 163.275 540.846 163.353 541.045 163.473C541.246 163.592 541.413 163.772 541.545 164.013C541.678 164.254 541.744 164.576 541.744 164.981V168.335H540.962V167.646H540.922C540.869 167.756 540.781 167.874 540.657 168C540.533 168.126 540.368 168.233 540.163 168.322C539.958 168.41 539.707 168.454 539.411 168.454ZM539.53 167.752C539.839 167.752 540.1 167.691 540.312 167.569C540.526 167.448 540.688 167.291 540.796 167.099C540.907 166.906 540.962 166.704 540.962 166.492V165.776C540.929 165.816 540.856 165.852 540.743 165.886C540.633 165.917 540.504 165.944 540.359 165.968C540.215 165.991 540.075 166.01 539.938 166.028C539.803 166.044 539.693 166.057 539.61 166.068C539.406 166.094 539.216 166.138 539.039 166.197C538.865 166.255 538.723 166.342 538.615 166.459C538.509 166.574 538.456 166.731 538.456 166.93C538.456 167.201 538.557 167.407 538.758 167.546C538.961 167.683 539.218 167.752 539.53 167.752ZM543.172 170.244V163.244H543.927V164.053H544.02C544.078 163.964 544.157 163.852 544.259 163.715C544.363 163.575 544.511 163.452 544.703 163.343C544.897 163.233 545.16 163.178 545.492 163.178C545.92 163.178 546.298 163.285 546.625 163.499C546.952 163.714 547.207 164.017 547.391 164.411C547.574 164.804 547.666 165.268 547.666 165.803C547.666 166.342 547.574 166.809 547.391 167.205C547.207 167.598 546.953 167.903 546.629 168.12C546.304 168.334 545.929 168.441 545.505 168.441C545.178 168.441 544.916 168.387 544.719 168.279C544.523 168.168 544.371 168.043 544.265 167.904C544.159 167.763 544.078 167.646 544.02 167.553H543.954V170.244H543.172ZM543.941 165.79C543.941 166.174 543.997 166.513 544.11 166.807C544.222 167.099 544.387 167.327 544.603 167.493C544.82 167.657 545.085 167.738 545.399 167.738C545.726 167.738 545.999 167.652 546.218 167.48C546.439 167.305 546.604 167.071 546.715 166.777C546.827 166.481 546.884 166.152 546.884 165.79C546.884 165.432 546.829 165.109 546.718 164.822C546.61 164.532 546.445 164.304 546.224 164.136C546.005 163.965 545.73 163.88 545.399 163.88C545.081 163.88 544.813 163.961 544.597 164.122C544.38 164.281 544.217 164.505 544.106 164.792C543.996 165.077 543.941 165.409 543.941 165.79ZM548.859 170.244V163.244H549.615V164.053H549.708C549.765 163.964 549.845 163.852 549.946 163.715C550.05 163.575 550.198 163.452 550.39 163.343C550.585 163.233 550.848 163.178 551.179 163.178C551.608 163.178 551.986 163.285 552.313 163.499C552.64 163.714 552.895 164.017 553.078 164.411C553.262 164.804 553.353 165.268 553.353 165.803C553.353 166.342 553.262 166.809 553.078 167.205C552.895 167.598 552.641 167.903 552.316 168.12C551.991 168.334 551.617 168.441 551.192 168.441C550.865 168.441 550.604 168.387 550.407 168.279C550.21 168.168 550.059 168.043 549.953 167.904C549.847 167.763 549.765 167.646 549.708 167.553H549.641V170.244H548.859ZM549.628 165.79C549.628 166.174 549.684 166.513 549.797 166.807C549.91 167.099 550.074 167.327 550.291 167.493C550.508 167.657 550.773 167.738 551.086 167.738C551.413 167.738 551.686 167.652 551.905 167.48C552.126 167.305 552.292 167.071 552.402 166.777C552.515 166.481 552.571 166.152 552.571 165.79C552.571 165.432 552.516 165.109 552.406 164.822C552.297 164.532 552.133 164.304 551.912 164.136C551.693 163.965 551.418 163.88 551.086 163.88C550.768 163.88 550.501 163.961 550.284 164.122C550.068 164.281 549.904 164.505 549.794 164.792C549.683 165.077 549.628 165.409 549.628 165.79Z" fill="black"/>
<path d="M555.279 145.082C555.279 143.854 556.275 142.858 557.503 142.858H599.951C601.179 142.858 602.174 143.854 602.174 145.082V157.082C602.174 158.31 601.179 159.306 599.951 159.306H555.279V145.082Z" fill="#EA1093"/>
<path d="M560.205 148.23H561.281L562.721 151.746H562.778L564.218 148.23H565.294V153.082H564.45V149.749H564.405L563.065 153.068H562.434L561.094 149.742H561.049V153.082H560.205V148.23ZM567.26 153.155C567.03 153.155 566.822 153.114 566.637 153.032C566.454 152.949 566.309 152.825 566.201 152.663C566.095 152.5 566.042 152.299 566.042 152.061C566.042 151.856 566.08 151.686 566.156 151.552C566.232 151.417 566.335 151.31 566.467 151.229C566.598 151.149 566.745 151.088 566.91 151.047C567.075 151.004 567.247 150.974 567.424 150.955C567.637 150.932 567.81 150.913 567.942 150.895C568.075 150.876 568.172 150.848 568.232 150.81C568.293 150.771 568.324 150.71 568.324 150.628V150.613C568.324 150.435 568.271 150.297 568.165 150.199C568.059 150.101 567.907 150.052 567.708 150.052C567.498 150.052 567.331 150.098 567.208 150.189C567.086 150.281 567.004 150.389 566.962 150.514L566.161 150.4C566.224 150.179 566.328 149.994 566.474 149.846C566.619 149.696 566.797 149.584 567.007 149.509C567.217 149.434 567.449 149.396 567.703 149.396C567.879 149.396 568.053 149.416 568.227 149.457C568.401 149.498 568.559 149.566 568.703 149.661C568.847 149.754 568.962 149.881 569.049 150.043C569.137 150.204 569.182 150.405 569.182 150.647V153.082H568.357V152.582H568.329C568.277 152.683 568.203 152.778 568.108 152.866C568.015 152.953 567.897 153.024 567.755 153.077C567.615 153.129 567.45 153.155 567.26 153.155ZM567.483 152.525C567.655 152.525 567.804 152.491 567.931 152.423C568.057 152.354 568.154 152.262 568.222 152.149C568.292 152.035 568.326 151.911 568.326 151.777V151.348C568.299 151.37 568.254 151.391 568.189 151.409C568.126 151.428 568.055 151.445 567.976 151.459C567.897 151.473 567.819 151.486 567.741 151.497C567.664 151.508 567.597 151.518 567.54 151.526C567.412 151.543 567.297 151.571 567.196 151.611C567.095 151.65 567.015 151.706 566.957 151.777C566.899 151.846 566.869 151.936 566.869 152.047C566.869 152.205 566.927 152.324 567.042 152.404C567.158 152.485 567.304 152.525 567.483 152.525ZM570.044 153.082V149.443H570.875V150.05H570.913C570.98 149.84 571.093 149.678 571.254 149.564C571.417 149.449 571.603 149.391 571.811 149.391C571.859 149.391 571.911 149.393 571.97 149.398C572.03 149.401 572.08 149.407 572.119 149.415V150.204C572.083 150.191 572.025 150.18 571.946 150.17C571.869 150.159 571.794 150.154 571.721 150.154C571.565 150.154 571.424 150.188 571.299 150.256C571.176 150.322 571.079 150.414 571.008 150.533C570.937 150.651 570.901 150.788 570.901 150.943V153.082H570.044ZM572.689 153.082V149.443H573.547V153.082H572.689ZM573.12 148.927C572.984 148.927 572.867 148.882 572.769 148.792C572.672 148.7 572.623 148.59 572.623 148.462C572.623 148.333 572.672 148.223 572.769 148.133C572.867 148.041 572.984 147.996 573.12 147.996C573.257 147.996 573.374 148.041 573.471 148.133C573.569 148.223 573.618 148.333 573.618 148.462C573.618 148.59 573.569 148.7 573.471 148.792C573.374 148.882 573.257 148.927 573.12 148.927ZM575.476 153.155C575.245 153.155 575.037 153.114 574.852 153.032C574.669 152.949 574.524 152.825 574.417 152.663C574.311 152.5 574.258 152.299 574.258 152.061C574.258 151.856 574.296 151.686 574.372 151.552C574.447 151.417 574.551 151.31 574.682 151.229C574.813 151.149 574.961 151.088 575.125 151.047C575.291 151.004 575.462 150.974 575.639 150.955C575.852 150.932 576.025 150.913 576.158 150.895C576.29 150.876 576.387 150.848 576.447 150.81C576.508 150.771 576.539 150.71 576.539 150.628V150.613C576.539 150.435 576.486 150.297 576.381 150.199C576.275 150.101 576.122 150.052 575.923 150.052C575.713 150.052 575.547 150.098 575.423 150.189C575.302 150.281 575.22 150.389 575.177 150.514L574.376 150.4C574.439 150.179 574.544 149.994 574.689 149.846C574.834 149.696 575.012 149.584 575.222 149.509C575.432 149.434 575.664 149.396 575.919 149.396C576.094 149.396 576.268 149.416 576.442 149.457C576.616 149.498 576.775 149.566 576.918 149.661C577.062 149.754 577.177 149.881 577.264 150.043C577.353 150.204 577.397 150.405 577.397 150.647V153.082H576.572V152.582H576.544C576.492 152.683 576.418 152.778 576.324 152.866C576.23 152.953 576.113 153.024 575.971 153.077C575.83 153.129 575.665 153.155 575.476 153.155ZM575.698 152.525C575.87 152.525 576.02 152.491 576.146 152.423C576.272 152.354 576.369 152.262 576.437 152.149C576.507 152.035 576.542 151.911 576.542 151.777V151.348C576.515 151.37 576.469 151.391 576.404 151.409C576.341 151.428 576.27 151.445 576.191 151.459C576.112 151.473 576.034 151.486 575.956 151.497C575.879 151.508 575.812 151.518 575.755 151.526C575.627 151.543 575.513 151.571 575.412 151.611C575.31 151.65 575.231 151.706 575.172 151.777C575.114 151.846 575.085 151.936 575.085 152.047C575.085 152.205 575.142 152.324 575.258 152.404C575.373 152.485 575.52 152.525 575.698 152.525ZM579.952 153.082V148.23H580.831V152.345H582.968V153.082H579.952ZM586.012 151.552V149.443H586.87V153.082H586.038V152.435H586C585.918 152.639 585.783 152.806 585.595 152.935C585.409 153.065 585.179 153.129 584.906 153.129C584.667 153.129 584.456 153.077 584.273 152.971C584.091 152.863 583.949 152.708 583.847 152.504C583.744 152.299 583.693 152.051 583.693 151.76V149.443H584.55V151.627C584.55 151.858 584.613 152.041 584.74 152.177C584.866 152.313 585.032 152.381 585.237 152.381C585.364 152.381 585.486 152.35 585.604 152.288C585.723 152.227 585.82 152.135 585.896 152.014C585.973 151.89 586.012 151.736 586.012 151.552ZM587.789 153.082V148.23H588.647V150.045H588.682C588.727 149.956 588.789 149.862 588.87 149.763C588.95 149.662 589.059 149.576 589.197 149.505C589.334 149.432 589.509 149.396 589.723 149.396C590.004 149.396 590.257 149.468 590.483 149.611C590.71 149.753 590.89 149.964 591.023 150.244C591.157 150.522 591.225 150.863 591.225 151.267C591.225 151.667 591.159 152.006 591.028 152.286C590.897 152.566 590.718 152.779 590.492 152.926C590.267 153.073 590.011 153.146 589.725 153.146C589.516 153.146 589.343 153.111 589.206 153.042C589.069 152.972 588.958 152.889 588.874 152.791C588.792 152.691 588.728 152.597 588.682 152.509H588.633V153.082H587.789ZM588.63 151.263C588.63 151.498 588.664 151.704 588.73 151.881C588.798 152.058 588.895 152.196 589.021 152.296C589.149 152.393 589.304 152.442 589.486 152.442C589.675 152.442 589.834 152.392 589.962 152.291C590.09 152.188 590.186 152.048 590.251 151.871C590.317 151.693 590.35 151.49 590.35 151.263C590.35 151.037 590.318 150.836 590.253 150.661C590.188 150.486 590.092 150.348 589.964 150.249C589.836 150.149 589.677 150.099 589.486 150.099C589.302 150.099 589.147 150.148 589.019 150.244C588.891 150.34 588.794 150.475 588.728 150.649C588.663 150.823 588.63 151.027 588.63 151.263ZM591.954 153.082V149.443H592.811V153.082H591.954ZM592.385 148.927C592.249 148.927 592.132 148.882 592.034 148.792C591.936 148.7 591.887 148.59 591.887 148.462C591.887 148.333 591.936 148.223 592.034 148.133C592.132 148.041 592.249 147.996 592.385 147.996C592.522 147.996 592.639 148.041 592.735 148.133C592.833 148.223 592.882 148.333 592.882 148.462C592.882 148.59 592.833 148.7 592.735 148.792C592.639 148.882 592.522 148.927 592.385 148.927ZM594.551 150.95V153.082H593.693V149.443H594.513V150.061H594.555C594.639 149.858 594.773 149.696 594.956 149.576C595.141 149.456 595.369 149.396 595.64 149.396C595.892 149.396 596.11 149.449 596.297 149.557C596.485 149.664 596.63 149.82 596.733 150.024C596.837 150.227 596.888 150.474 596.887 150.765V153.082H596.029V150.898C596.029 150.655 595.966 150.464 595.839 150.327C595.715 150.189 595.542 150.121 595.321 150.121C595.171 150.121 595.037 150.154 594.92 150.22C594.805 150.285 594.714 150.379 594.648 150.502C594.583 150.625 594.551 150.775 594.551 150.95Z" fill="white"/>
<rect x="555.279" y="159.306" width="1.11188" height="13.3661" fill="#EA1093"/>
<path d="M268.323 125.205C268.323 123.977 269.318 122.981 270.547 122.981H318.994C320.222 122.981 321.218 123.977 321.218 125.205V137.205C321.218 138.433 320.222 139.429 318.994 139.429H268.323V125.205Z" fill="#EA9E10"/>
<path d="M273.249 133.205V128.353H274.128V130.583H274.187L276.08 128.353H277.153L275.277 130.53L277.17 133.205H276.113L274.666 131.125L274.128 131.76V133.205H273.249ZM278.773 133.279C278.543 133.279 278.335 133.237 278.15 133.155C277.967 133.072 277.822 132.948 277.714 132.786C277.608 132.623 277.555 132.422 277.555 132.184C277.555 131.979 277.593 131.809 277.669 131.675C277.745 131.54 277.848 131.433 277.979 131.352C278.111 131.272 278.258 131.211 278.423 131.17C278.588 131.127 278.76 131.097 278.937 131.078C279.15 131.056 279.323 131.036 279.455 131.018C279.588 130.999 279.684 130.971 279.744 130.933C279.806 130.894 279.837 130.833 279.837 130.751V130.737C279.837 130.558 279.784 130.42 279.678 130.322C279.572 130.224 279.42 130.175 279.221 130.175C279.011 130.175 278.844 130.221 278.721 130.312C278.599 130.404 278.517 130.512 278.475 130.637L277.674 130.523C277.737 130.302 277.841 130.117 277.987 129.969C278.132 129.819 278.31 129.707 278.52 129.633C278.73 129.557 278.962 129.519 279.216 129.519C279.391 129.519 279.566 129.539 279.74 129.58C279.913 129.621 280.072 129.689 280.216 129.784C280.36 129.877 280.475 130.004 280.562 130.166C280.65 130.327 280.694 130.528 280.694 130.77V133.205H279.87V132.705H279.842C279.789 132.806 279.716 132.901 279.621 132.989C279.528 133.076 279.41 133.147 279.268 133.2C279.128 133.252 278.963 133.279 278.773 133.279ZM278.996 132.648C279.168 132.648 279.317 132.614 279.444 132.546C279.57 132.477 279.667 132.385 279.735 132.272C279.804 132.158 279.839 132.034 279.839 131.9V131.471C279.812 131.493 279.767 131.514 279.702 131.533C279.639 131.551 279.568 131.568 279.489 131.582C279.41 131.596 279.331 131.609 279.254 131.62C279.177 131.631 279.11 131.641 279.053 131.649C278.925 131.666 278.81 131.694 278.709 131.734C278.608 131.773 278.528 131.829 278.47 131.9C278.411 131.969 278.382 132.059 278.382 132.17C278.382 132.328 278.44 132.447 278.555 132.528C278.67 132.608 278.817 132.648 278.996 132.648ZM282.907 133.269C282.621 133.269 282.365 133.196 282.14 133.049C281.914 132.902 281.735 132.689 281.604 132.409C281.473 132.13 281.408 131.79 281.408 131.39C281.408 130.986 281.474 130.645 281.607 130.367C281.741 130.087 281.922 129.877 282.149 129.734C282.376 129.591 282.63 129.519 282.91 129.519C283.123 129.519 283.298 129.555 283.435 129.628C283.573 129.699 283.682 129.785 283.762 129.886C283.843 129.986 283.905 130.079 283.95 130.168H283.985V128.353H284.845V133.205H284.002V132.632H283.95C283.905 132.72 283.841 132.814 283.758 132.914C283.674 133.012 283.563 133.095 283.426 133.165C283.289 133.234 283.116 133.269 282.907 133.269ZM283.146 132.565C283.328 132.565 283.483 132.516 283.611 132.419C283.739 132.319 283.836 132.181 283.902 132.004C283.969 131.827 284.002 131.621 284.002 131.386C284.002 131.15 283.969 130.946 283.902 130.772C283.837 130.598 283.741 130.463 283.613 130.367C283.487 130.271 283.331 130.222 283.146 130.222C282.955 130.222 282.796 130.272 282.668 130.372C282.54 130.471 282.444 130.609 282.379 130.784C282.314 130.959 282.282 131.16 282.282 131.386C282.282 131.613 282.314 131.816 282.379 131.994C282.445 132.171 282.542 132.311 282.67 132.414C282.8 132.515 282.958 132.565 283.146 132.565ZM285.759 133.205V129.566H286.617V133.205H285.759ZM286.19 129.05C286.054 129.05 285.937 129.005 285.839 128.915C285.742 128.823 285.693 128.713 285.693 128.585C285.693 128.456 285.742 128.346 285.839 128.256C285.937 128.164 286.054 128.119 286.19 128.119C286.328 128.119 286.444 128.164 286.541 128.256C286.639 128.346 286.688 128.456 286.688 128.585C286.688 128.713 286.639 128.823 286.541 128.915C286.444 129.005 286.328 129.05 286.19 129.05ZM288.356 131.073V133.205H287.498V129.566H288.318V130.185H288.361C288.444 129.981 288.578 129.819 288.761 129.699C288.946 129.579 289.174 129.519 289.446 129.519C289.697 129.519 289.916 129.573 290.102 129.68C290.29 129.787 290.435 129.943 290.538 130.147C290.642 130.35 290.693 130.598 290.692 130.888V133.205H289.834V131.021C289.834 130.778 289.771 130.587 289.645 130.45C289.52 130.312 289.347 130.244 289.126 130.244C288.976 130.244 288.842 130.277 288.726 130.343C288.61 130.408 288.519 130.502 288.453 130.625C288.388 130.748 288.356 130.898 288.356 131.073ZM296.507 129.903C296.467 129.775 296.413 129.66 296.343 129.559C296.275 129.456 296.193 129.369 296.097 129.296C296.002 129.223 295.893 129.169 295.77 129.133C295.647 129.095 295.513 129.076 295.367 129.076C295.107 129.076 294.875 129.141 294.671 129.272C294.467 129.404 294.307 129.596 294.19 129.85C294.075 130.103 294.017 130.411 294.017 130.774C294.017 131.141 294.075 131.451 294.19 131.705C294.305 131.96 294.465 132.153 294.671 132.286C294.876 132.417 295.115 132.483 295.386 132.483C295.633 132.483 295.846 132.435 296.026 132.34C296.208 132.246 296.347 132.111 296.445 131.938C296.543 131.762 296.592 131.557 296.592 131.322L296.791 131.352H295.474V130.665H297.443V131.248C297.443 131.664 297.354 132.023 297.177 132.326C297 132.629 296.757 132.863 296.448 133.027C296.138 133.19 295.783 133.271 295.381 133.271C294.935 133.271 294.542 133.171 294.204 132.971C293.868 132.768 293.605 132.482 293.415 132.111C293.227 131.738 293.133 131.296 293.133 130.784C293.133 130.392 293.189 130.042 293.299 129.734C293.411 129.426 293.568 129.165 293.768 128.95C293.969 128.734 294.204 128.57 294.474 128.457C294.744 128.344 295.038 128.287 295.355 128.287C295.624 128.287 295.874 128.326 296.106 128.405C296.339 128.483 296.545 128.593 296.725 128.737C296.906 128.881 297.056 129.051 297.173 129.249C297.289 129.446 297.366 129.664 297.402 129.903H296.507ZM299.866 133.276C299.501 133.276 299.186 133.2 298.92 133.049C298.657 132.896 298.454 132.679 298.311 132.4C298.169 132.118 298.098 131.788 298.098 131.407C298.098 131.033 298.169 130.704 298.311 130.421C298.455 130.137 298.656 129.916 298.913 129.758C299.171 129.599 299.473 129.519 299.821 129.519C300.045 129.519 300.256 129.555 300.455 129.628C300.656 129.699 300.833 129.809 300.986 129.959C301.141 130.109 301.263 130.301 301.351 130.533C301.439 130.763 301.484 131.038 301.484 131.357V131.62H298.501V131.042H300.662C300.66 130.878 300.624 130.732 300.555 130.604C300.485 130.474 300.388 130.372 300.264 130.298C300.14 130.224 299.997 130.187 299.832 130.187C299.657 130.187 299.503 130.23 299.37 130.315C299.238 130.399 299.134 130.509 299.06 130.646C298.987 130.782 298.95 130.932 298.949 131.094V131.599C298.949 131.81 298.987 131.992 299.065 132.144C299.142 132.294 299.25 132.409 299.389 132.49C299.528 132.569 299.691 132.608 299.877 132.608C300.002 132.608 300.115 132.591 300.216 132.556C300.317 132.52 300.405 132.467 300.479 132.397C300.553 132.328 300.609 132.242 300.647 132.139L301.448 132.229C301.398 132.441 301.301 132.625 301.159 132.783C301.018 132.94 300.838 133.061 300.619 133.148C300.399 133.234 300.148 133.276 299.866 133.276ZM303.796 133.276C303.441 133.276 303.133 133.198 302.872 133.042C302.612 132.885 302.41 132.667 302.266 132.385C302.124 132.104 302.053 131.776 302.053 131.4C302.053 131.024 302.124 130.695 302.266 130.412C302.41 130.129 302.612 129.91 302.872 129.753C303.133 129.597 303.441 129.519 303.796 129.519C304.152 129.519 304.46 129.597 304.72 129.753C304.981 129.91 305.182 130.129 305.324 130.412C305.468 130.695 305.54 131.024 305.54 131.4C305.54 131.776 305.468 132.104 305.324 132.385C305.182 132.667 304.981 132.885 304.72 133.042C304.46 133.198 304.152 133.276 303.796 133.276ZM303.801 132.589C303.994 132.589 304.155 132.536 304.284 132.43C304.414 132.323 304.51 132.179 304.573 131.999C304.638 131.819 304.671 131.619 304.671 131.397C304.671 131.175 304.638 130.973 304.573 130.793C304.51 130.612 304.414 130.467 304.284 130.36C304.155 130.252 303.994 130.199 303.801 130.199C303.604 130.199 303.439 130.252 303.308 130.36C303.179 130.467 303.082 130.612 303.017 130.793C302.954 130.973 302.922 131.175 302.922 131.397C302.922 131.619 302.954 131.819 303.017 131.999C303.082 132.179 303.179 132.323 303.308 132.43C303.439 132.536 303.604 132.589 303.801 132.589ZM306.268 133.205V129.566H307.099V130.173H307.137C307.204 129.963 307.317 129.801 307.479 129.687C307.641 129.572 307.827 129.514 308.035 129.514C308.083 129.514 308.136 129.516 308.194 129.521C308.254 129.524 308.304 129.53 308.343 129.538V130.327C308.307 130.314 308.249 130.303 308.17 130.293C308.093 130.282 308.018 130.277 307.945 130.277C307.789 130.277 307.648 130.311 307.524 130.379C307.4 130.445 307.303 130.538 307.232 130.656C307.161 130.774 307.126 130.911 307.126 131.066V133.205H306.268ZM310.346 134.645C310.038 134.645 309.773 134.604 309.552 134.52C309.331 134.438 309.153 134.327 309.019 134.188C308.885 134.049 308.792 133.895 308.739 133.726L309.512 133.539C309.547 133.61 309.597 133.68 309.663 133.75C309.73 133.821 309.819 133.879 309.931 133.925C310.045 133.973 310.188 133.996 310.36 133.996C310.603 133.996 310.805 133.937 310.964 133.819C311.124 133.702 311.203 133.509 311.203 133.241V132.551H311.161C311.116 132.64 311.052 132.73 310.966 132.824C310.883 132.917 310.771 132.995 310.632 133.058C310.495 133.121 310.322 133.153 310.114 133.153C309.834 133.153 309.58 133.087 309.353 132.956C309.127 132.824 308.947 132.626 308.813 132.364C308.68 132.1 308.614 131.77 308.614 131.374C308.614 130.974 308.68 130.637 308.813 130.362C308.947 130.086 309.128 129.877 309.355 129.734C309.583 129.591 309.836 129.519 310.116 129.519C310.329 129.519 310.504 129.555 310.642 129.628C310.781 129.699 310.891 129.785 310.974 129.886C311.056 129.986 311.118 130.079 311.161 130.168H311.208V129.566H312.054V133.264C312.054 133.575 311.98 133.833 311.831 134.037C311.683 134.24 311.48 134.393 311.222 134.494C310.965 134.595 310.673 134.645 310.346 134.645ZM310.353 132.48C310.534 132.48 310.689 132.436 310.817 132.347C310.945 132.259 311.042 132.132 311.109 131.966C311.175 131.8 311.208 131.601 311.208 131.369C311.208 131.14 311.175 130.939 311.109 130.767C311.044 130.595 310.947 130.462 310.82 130.367C310.693 130.271 310.538 130.222 310.353 130.222C310.162 130.222 310.002 130.272 309.874 130.372C309.746 130.471 309.65 130.608 309.585 130.782C309.52 130.954 309.488 131.15 309.488 131.369C309.488 131.592 309.52 131.787 309.585 131.954C309.652 132.12 309.749 132.25 309.877 132.343C310.006 132.434 310.165 132.48 310.353 132.48ZM314.544 133.276C314.179 133.276 313.864 133.2 313.598 133.049C313.335 132.896 313.132 132.679 312.99 132.4C312.847 132.118 312.776 131.788 312.776 131.407C312.776 131.033 312.847 130.704 312.99 130.421C313.133 130.137 313.334 129.916 313.591 129.758C313.849 129.599 314.151 129.519 314.499 129.519C314.723 129.519 314.935 129.555 315.134 129.628C315.334 129.699 315.511 129.809 315.664 129.959C315.819 130.109 315.941 130.301 316.029 130.533C316.118 130.763 316.162 131.038 316.162 131.357V131.62H313.179V131.042H315.34C315.338 130.878 315.303 130.732 315.233 130.604C315.164 130.474 315.066 130.372 314.942 130.298C314.819 130.224 314.675 130.187 314.511 130.187C314.335 130.187 314.181 130.23 314.049 130.315C313.916 130.399 313.812 130.509 313.738 130.646C313.666 130.782 313.628 130.932 313.627 131.094V131.599C313.627 131.81 313.666 131.992 313.743 132.144C313.82 132.294 313.929 132.409 314.068 132.49C314.206 132.569 314.369 132.608 314.556 132.608C314.68 132.608 314.793 132.591 314.894 132.556C314.995 132.52 315.083 132.467 315.157 132.397C315.232 132.328 315.288 132.242 315.325 132.139L316.126 132.229C316.076 132.441 315.979 132.625 315.837 132.783C315.697 132.94 315.517 133.061 315.297 133.148C315.078 133.234 314.826 133.276 314.544 133.276Z" fill="white"/>
<rect x="268.323" y="139.429" width="1.11188" height="13.3661" fill="#EA9E10"/>
<path d="M532.92 177.379C532.92 176.151 533.916 175.155 535.144 175.155H584.591C585.819 175.155 586.815 176.151 586.815 177.379V189.379C586.815 190.607 585.819 191.603 584.591 191.603H532.92V177.379Z" fill="#09BB90"/>
<path d="M541.999 182.164H541.113C541.087 182.019 541.041 181.89 540.973 181.778C540.905 181.664 540.82 181.568 540.719 181.489C540.618 181.41 540.503 181.351 540.374 181.311C540.246 181.27 540.107 181.25 539.959 181.25C539.695 181.25 539.461 181.316 539.258 181.449C539.054 181.58 538.894 181.772 538.779 182.027C538.664 182.279 538.606 182.588 538.606 182.953C538.606 183.324 538.664 183.637 538.779 183.891C538.896 184.144 539.056 184.335 539.258 184.464C539.461 184.592 539.694 184.656 539.957 184.656C540.102 184.656 540.238 184.637 540.364 184.599C540.492 184.56 540.606 184.502 540.708 184.427C540.81 184.351 540.896 184.258 540.966 184.147C541.037 184.036 541.086 183.91 541.113 183.768L541.999 183.773C541.966 184.003 541.894 184.22 541.783 184.422C541.674 184.624 541.531 184.802 541.354 184.957C541.177 185.11 540.971 185.23 540.734 185.317C540.497 185.403 540.234 185.445 539.945 185.445C539.518 185.445 539.138 185.347 538.803 185.149C538.468 184.952 538.204 184.667 538.012 184.294C537.819 183.921 537.723 183.474 537.723 182.953C537.723 182.43 537.82 181.983 538.014 181.612C538.208 181.239 538.473 180.954 538.808 180.757C539.142 180.559 539.521 180.461 539.945 180.461C540.215 180.461 540.466 180.499 540.698 180.574C540.93 180.65 541.137 180.762 541.319 180.908C541.5 181.054 541.65 181.232 541.767 181.444C541.885 181.654 541.962 181.894 541.999 182.164ZM543.623 183.247V185.379H542.766V180.527H543.604V182.358H543.647C543.732 182.153 543.864 181.991 544.043 181.873C544.223 181.753 544.452 181.693 544.73 181.693C544.982 181.693 545.203 181.746 545.391 181.851C545.579 181.957 545.724 182.112 545.827 182.316C545.931 182.519 545.983 182.768 545.983 183.062V185.379H545.125V183.195C545.125 182.95 545.062 182.76 544.936 182.624C544.811 182.486 544.636 182.418 544.41 182.418C544.258 182.418 544.122 182.451 544.002 182.517C543.884 182.582 543.791 182.676 543.723 182.799C543.656 182.922 543.623 183.071 543.623 183.247ZM547.904 185.452C547.674 185.452 547.466 185.411 547.281 185.329C547.098 185.245 546.953 185.122 546.845 184.96C546.739 184.797 546.687 184.596 546.687 184.358C546.687 184.153 546.724 183.983 546.8 183.848C546.876 183.714 546.979 183.607 547.111 183.526C547.242 183.446 547.389 183.385 547.554 183.344C547.719 183.301 547.891 183.27 548.068 183.251C548.281 183.229 548.454 183.21 548.587 183.192C548.719 183.173 548.816 183.145 548.876 183.107C548.937 183.067 548.968 183.007 548.968 182.925V182.91C548.968 182.732 548.915 182.594 548.809 182.496C548.703 182.398 548.551 182.349 548.352 182.349C548.142 182.349 547.975 182.395 547.852 182.486C547.73 182.578 547.648 182.686 547.606 182.811L546.805 182.697C546.868 182.476 546.972 182.291 547.118 182.143C547.263 181.993 547.441 181.881 547.651 181.806C547.861 181.731 548.093 181.693 548.347 181.693C548.523 181.693 548.697 181.713 548.871 181.754C549.045 181.795 549.203 181.863 549.347 181.958C549.491 182.051 549.606 182.178 549.693 182.339C549.781 182.5 549.826 182.702 549.826 182.944V185.379H549.001V184.879H548.973C548.921 184.98 548.847 185.075 548.752 185.163C548.659 185.25 548.541 185.32 548.399 185.374C548.259 185.426 548.094 185.452 547.904 185.452ZM548.127 184.822C548.299 184.822 548.448 184.788 548.575 184.72C548.701 184.651 548.798 184.559 548.866 184.445C548.936 184.332 548.97 184.208 548.97 184.074V183.645C548.943 183.667 548.898 183.687 548.833 183.706C548.77 183.725 548.699 183.742 548.62 183.756C548.541 183.77 548.463 183.783 548.385 183.794C548.308 183.805 548.241 183.815 548.184 183.822C548.056 183.84 547.941 183.868 547.84 183.908C547.739 183.947 547.659 184.002 547.601 184.074C547.543 184.143 547.513 184.233 547.513 184.344C547.513 184.502 547.571 184.621 547.686 184.701C547.802 184.782 547.948 184.822 548.127 184.822ZM550.688 185.379V181.74H551.519V182.346H551.557C551.624 182.136 551.737 181.975 551.898 181.861C552.061 181.746 552.247 181.688 552.455 181.688C552.503 181.688 552.555 181.69 552.614 181.695C552.674 181.698 552.724 181.704 552.763 181.712V182.5C552.727 182.488 552.669 182.477 552.59 182.467C552.513 182.456 552.438 182.451 552.365 182.451C552.209 182.451 552.068 182.485 551.943 182.553C551.82 182.619 551.723 182.711 551.652 182.83C551.581 182.948 551.545 183.085 551.545 183.24V185.379H550.688ZM554.191 180.527V185.379H553.333V180.527H554.191ZM555.072 185.379V181.74H555.93V185.379H555.072ZM555.504 181.224C555.368 181.224 555.251 181.179 555.153 181.089C555.055 180.997 555.006 180.887 555.006 180.759C555.006 180.63 555.055 180.52 555.153 180.43C555.251 180.338 555.368 180.293 555.504 180.293C555.641 180.293 555.758 180.338 555.854 180.43C555.952 180.52 556.001 180.63 556.001 180.759C556.001 180.887 555.952 180.997 555.854 181.089C555.758 181.179 555.641 181.224 555.504 181.224ZM558.423 185.45C558.058 185.45 557.743 185.374 557.478 185.223C557.214 185.069 557.011 184.853 556.869 184.573C556.727 184.292 556.656 183.961 556.656 183.581C556.656 183.206 556.727 182.878 556.869 182.595C557.012 182.311 557.213 182.09 557.471 181.932C557.728 181.772 558.03 181.693 558.378 181.693C558.602 181.693 558.814 181.729 559.013 181.802C559.213 181.873 559.39 181.983 559.543 182.133C559.698 182.283 559.82 182.474 559.908 182.707C559.997 182.937 560.041 183.212 560.041 183.531V183.794H557.058V183.216H559.219C559.217 183.052 559.182 182.906 559.112 182.778C559.043 182.648 558.946 182.546 558.821 182.472C558.698 182.398 558.554 182.361 558.39 182.361C558.214 182.361 558.06 182.403 557.928 182.489C557.795 182.572 557.692 182.683 557.617 182.82C557.545 182.956 557.508 183.105 557.506 183.268V183.773C557.506 183.984 557.545 184.166 557.622 184.318C557.7 184.468 557.808 184.583 557.947 184.663C558.086 184.742 558.248 184.782 558.435 184.782C558.559 184.782 558.672 184.765 558.773 184.73C558.875 184.693 558.962 184.641 559.036 184.571C559.111 184.502 559.167 184.415 559.205 184.313L560.005 184.403C559.955 184.614 559.859 184.799 559.716 184.957C559.576 185.114 559.396 185.235 559.176 185.322C558.957 185.407 558.706 185.45 558.423 185.45ZM566.612 182.164H565.726C565.701 182.019 565.654 181.89 565.586 181.778C565.518 181.664 565.434 181.568 565.333 181.489C565.232 181.41 565.116 181.351 564.987 181.311C564.859 181.27 564.721 181.25 564.572 181.25C564.309 181.25 564.075 181.316 563.871 181.449C563.667 181.58 563.508 181.772 563.393 182.027C563.277 182.279 563.22 182.588 563.22 182.953C563.22 183.324 563.277 183.637 563.393 183.891C563.509 184.144 563.669 184.335 563.871 184.464C564.075 184.592 564.308 184.656 564.57 184.656C564.715 184.656 564.851 184.637 564.977 184.599C565.105 184.56 565.22 184.502 565.321 184.427C565.424 184.351 565.51 184.258 565.579 184.147C565.65 184.036 565.699 183.91 565.726 183.768L566.612 183.773C566.579 184.003 566.507 184.22 566.397 184.422C566.288 184.624 566.145 184.802 565.968 184.957C565.791 185.11 565.584 185.23 565.347 185.317C565.11 185.403 564.847 185.445 564.558 185.445C564.132 185.445 563.751 185.347 563.416 185.149C563.081 184.952 562.818 184.667 562.625 184.294C562.432 183.921 562.336 183.474 562.336 182.953C562.336 182.43 562.433 181.983 562.627 181.612C562.822 181.239 563.086 180.954 563.421 180.757C563.756 180.559 564.135 180.461 564.558 180.461C564.828 180.461 565.079 180.499 565.312 180.574C565.544 180.65 565.751 180.762 565.932 180.908C566.114 181.054 566.263 181.232 566.38 181.444C566.498 181.654 566.576 181.894 566.612 182.164ZM569.698 183.848V181.74H570.556V185.379H569.725V184.732H569.687C569.604 184.936 569.469 185.103 569.281 185.232C569.095 185.362 568.865 185.426 568.592 185.426C568.354 185.426 568.143 185.373 567.96 185.268C567.778 185.16 567.636 185.005 567.533 184.801C567.43 184.596 567.379 184.348 567.379 184.057V181.74H568.237V183.924C568.237 184.155 568.3 184.338 568.426 184.474C568.553 184.61 568.718 184.678 568.924 184.678C569.05 184.678 569.173 184.647 569.291 184.585C569.409 184.524 569.507 184.432 569.582 184.31C569.66 184.187 569.698 184.033 569.698 183.848ZM571.438 185.379V181.74H572.269V182.346H572.307C572.374 182.136 572.487 181.975 572.649 181.861C572.811 181.746 572.997 181.688 573.205 181.688C573.253 181.688 573.306 181.69 573.364 181.695C573.424 181.698 573.474 181.704 573.513 181.712V182.5C573.477 182.488 573.419 182.477 573.34 182.467C573.263 182.456 573.188 182.451 573.115 182.451C572.959 182.451 572.818 182.485 572.694 182.553C572.57 182.619 572.473 182.711 572.402 182.83C572.331 182.948 572.296 183.085 572.296 183.24V185.379H571.438ZM576.096 181.74V182.403H574.004V181.74H576.096ZM574.52 180.868H575.378V184.284C575.378 184.4 575.395 184.488 575.43 184.55C575.466 184.61 575.514 184.651 575.572 184.673C575.63 184.695 575.695 184.706 575.766 184.706C575.82 184.706 575.869 184.702 575.913 184.694C575.959 184.686 575.994 184.679 576.017 184.673L576.162 185.343C576.116 185.359 576.051 185.377 575.965 185.395C575.882 185.414 575.779 185.425 575.657 185.429C575.442 185.435 575.249 185.403 575.077 185.332C574.905 185.259 574.768 185.147 574.667 184.995C574.567 184.843 574.519 184.654 574.52 184.427V180.868ZM576.813 185.379V181.74H577.67V185.379H576.813ZM577.244 181.224C577.108 181.224 576.991 181.179 576.893 181.089C576.795 180.997 576.746 180.887 576.746 180.759C576.746 180.63 576.795 180.52 576.893 180.43C576.991 180.338 577.108 180.293 577.244 180.293C577.381 180.293 577.498 180.338 577.595 180.43C577.692 180.52 577.741 180.63 577.741 180.759C577.741 180.887 577.692 180.997 577.595 181.089C577.498 181.179 577.381 181.224 577.244 181.224ZM581.428 182.702L580.647 182.787C580.624 182.708 580.586 182.634 580.53 182.564C580.477 182.495 580.404 182.439 580.312 182.396C580.221 182.354 580.109 182.332 579.976 182.332C579.798 182.332 579.648 182.371 579.526 182.448C579.406 182.526 579.347 182.626 579.348 182.749C579.347 182.855 579.385 182.941 579.464 183.007C579.545 183.074 579.678 183.128 579.862 183.171L580.483 183.304C580.827 183.378 581.083 183.495 581.251 183.657C581.42 183.818 581.505 184.029 581.506 184.289C581.505 184.518 581.438 184.72 581.305 184.896C581.174 185.069 580.992 185.205 580.758 185.303C580.524 185.401 580.256 185.45 579.952 185.45C579.507 185.45 579.148 185.357 578.877 185.17C578.605 184.982 578.443 184.721 578.391 184.386L579.227 184.306C579.265 184.47 579.346 184.594 579.469 184.678C579.592 184.761 579.753 184.803 579.95 184.803C580.154 184.803 580.317 184.761 580.44 184.678C580.565 184.594 580.628 184.491 580.628 184.367C580.628 184.263 580.587 184.177 580.507 184.109C580.428 184.041 580.305 183.989 580.137 183.953L579.516 183.822C579.167 183.75 578.909 183.627 578.742 183.455C578.574 183.281 578.491 183.062 578.493 182.797C578.491 182.572 578.552 182.378 578.675 182.214C578.8 182.048 578.973 181.92 579.194 181.83C579.417 181.738 579.674 181.693 579.964 181.693C580.391 181.693 580.726 181.783 580.971 181.965C581.217 182.147 581.37 182.392 581.428 182.702Z" fill="white"/>
<rect x="532.92" y="191.603" width="1.11188" height="13.3661" fill="#09BB90"/>
<path d="M438.377 165.96H437.821V164.304H438.377V162.147C438.295 161.977 438.187 161.826 438.095 161.737C438.008 161.671 437.908 161.617 437.819 161.585C437.654 161.555 437.486 161.545 437.319 161.556L436.764 161.591L436.657 159.927L437.211 159.891C437.541 159.87 437.868 159.893 438.262 159.977C438.571 160.072 438.856 160.221 439.163 160.46C439.182 160.477 439.201 160.494 439.219 160.512C439.256 160.479 439.294 160.446 439.333 160.414C439.584 160.228 439.856 160.086 440.175 159.976L440.249 159.956C440.564 159.893 440.887 159.871 441.209 159.891L441.764 159.926L441.659 161.59L441.104 161.556C440.95 161.546 440.788 161.553 440.651 161.574C440.536 161.62 440.429 161.677 440.366 161.722C440.23 161.836 440.119 161.976 440.039 162.133V164.304H440.595V165.96H440.039V167.59C440.119 167.745 440.225 167.881 440.329 167.97C440.425 168.041 440.535 168.103 440.631 168.144C440.789 168.173 440.95 168.183 441.111 168.174L441.666 168.144L441.757 169.809L441.202 169.84C440.873 169.858 440.551 169.831 440.206 169.756L440.137 169.737C439.848 169.634 439.579 169.489 439.299 169.28C439.272 169.258 439.246 169.235 439.22 169.212C439.183 169.248 439.145 169.284 439.105 169.32C438.846 169.517 438.559 169.662 438.18 169.775C437.861 169.838 437.535 169.86 437.211 169.839L436.656 169.803L436.764 168.139L437.319 168.175C437.482 168.185 437.651 168.176 437.798 168.151C437.902 168.116 437.999 168.066 438.035 168.043C438.177 167.912 438.293 167.756 438.377 167.582V165.96Z" fill="white"/>
<path fill-rule="evenodd" clip-rule="evenodd" d="M439.207 161.329C439.088 161.148 438.947 160.983 438.787 160.836C438.566 160.666 438.339 160.549 438.098 160.475C437.799 160.413 437.523 160.395 437.247 160.413L437.283 160.967C437.51 160.953 437.738 160.968 437.961 161.013C438.113 161.061 438.281 161.148 438.431 161.262C438.639 161.454 438.817 161.711 438.933 161.997V164.826H438.377V165.371H438.933V167.666C438.817 167.952 438.638 168.21 438.411 168.419C438.281 168.516 438.113 168.603 437.933 168.658C437.737 168.696 437.51 168.711 437.283 168.696L437.247 169.251C437.522 169.269 437.799 169.251 438.07 169.196C438.339 169.115 438.566 168.998 438.767 168.845C438.94 168.687 439.087 168.515 439.209 168.33C439.334 168.512 439.484 168.677 439.655 168.82C439.868 168.978 440.089 169.096 440.324 169.18C440.627 169.246 440.9 169.266 441.172 169.251L441.141 168.696C440.917 168.708 440.693 168.691 440.474 168.646C440.327 168.591 440.155 168.499 439.999 168.383C439.781 168.201 439.6 167.956 439.483 167.68V165.371H440.039V164.826H439.483V161.978C439.599 161.702 439.778 161.457 440.007 161.264C440.149 161.159 440.322 161.067 440.505 161.002C440.687 160.968 440.914 160.953 441.139 160.967L441.174 160.412C440.9 160.395 440.626 160.414 440.357 160.467C440.083 160.562 439.863 160.68 439.663 160.828C439.485 160.977 439.333 161.145 439.207 161.329Z" fill="black"/>
<path d="M250.932 177.379C250.932 176.151 251.927 175.155 253.155 175.155H301.603C302.831 175.155 303.827 176.151 303.827 177.379V189.379C303.827 190.607 302.831 191.603 301.603 191.603H250.932V177.379Z" fill="#3F8FF7"/>
<path d="M255.858 185.379V180.527H256.737V182.756H256.796L258.689 180.527H259.762L257.886 182.704L259.779 185.379H258.722L257.275 183.299L256.737 183.934V185.379H255.858ZM261.382 185.452C261.151 185.452 260.944 185.411 260.759 185.329C260.576 185.245 260.43 185.122 260.323 184.96C260.217 184.797 260.164 184.596 260.164 184.358C260.164 184.153 260.202 183.983 260.278 183.848C260.354 183.714 260.457 183.607 260.588 183.526C260.719 183.446 260.867 183.385 261.031 183.344C261.197 183.301 261.369 183.27 261.545 183.251C261.759 183.229 261.932 183.21 262.064 183.192C262.197 183.173 262.293 183.145 262.353 183.107C262.415 183.067 262.446 183.007 262.446 182.925V182.91C262.446 182.732 262.393 182.594 262.287 182.496C262.181 182.398 262.029 182.349 261.83 182.349C261.62 182.349 261.453 182.395 261.33 182.486C261.208 182.578 261.126 182.686 261.084 182.811L260.283 182.697C260.346 182.476 260.45 182.291 260.595 182.143C260.741 181.993 260.918 181.881 261.129 181.806C261.339 181.731 261.571 181.693 261.825 181.693C262 181.693 262.175 181.713 262.349 181.754C262.522 181.795 262.681 181.863 262.825 181.958C262.969 182.051 263.084 182.178 263.171 182.339C263.259 182.5 263.303 182.702 263.303 182.944V185.379H262.479V184.879H262.45C262.398 184.98 262.325 185.075 262.23 185.163C262.137 185.25 262.019 185.32 261.877 185.374C261.737 185.426 261.572 185.452 261.382 185.452ZM261.605 184.822C261.777 184.822 261.926 184.788 262.052 184.72C262.179 184.651 262.276 184.559 262.344 184.445C262.413 184.332 262.448 184.208 262.448 184.074V183.645C262.421 183.667 262.375 183.687 262.311 183.706C262.248 183.725 262.176 183.742 262.097 183.756C262.019 183.77 261.94 183.783 261.863 183.794C261.786 183.805 261.718 183.815 261.662 183.822C261.534 183.84 261.419 183.868 261.318 183.908C261.217 183.947 261.137 184.002 261.079 184.074C261.02 184.143 260.991 184.233 260.991 184.344C260.991 184.502 261.049 184.621 261.164 184.701C261.279 184.782 261.426 184.822 261.605 184.822ZM265.516 185.443C265.23 185.443 264.974 185.369 264.748 185.223C264.523 185.076 264.344 184.862 264.213 184.583C264.082 184.303 264.016 183.964 264.016 183.564C264.016 183.16 264.083 182.819 264.215 182.541C264.35 182.261 264.531 182.05 264.758 181.908C264.985 181.764 265.239 181.693 265.518 181.693C265.732 181.693 265.907 181.729 266.044 181.802C266.182 181.873 266.291 181.959 266.371 182.06C266.452 182.159 266.514 182.253 266.558 182.342H266.594V180.527H267.454V185.379H266.611V184.806H266.558C266.514 184.894 266.45 184.988 266.367 185.088C266.283 185.185 266.172 185.269 266.035 185.339C265.897 185.408 265.725 185.443 265.516 185.443ZM265.755 184.739C265.937 184.739 266.092 184.69 266.22 184.592C266.348 184.493 266.445 184.355 266.511 184.178C266.577 184.001 266.611 183.795 266.611 183.559C266.611 183.324 266.577 183.12 266.511 182.946C266.446 182.772 266.35 182.637 266.222 182.541C266.096 182.444 265.94 182.396 265.755 182.396C265.564 182.396 265.405 182.446 265.277 182.546C265.149 182.645 265.052 182.782 264.988 182.958C264.923 183.133 264.891 183.334 264.891 183.559C264.891 183.787 264.923 183.99 264.988 184.168C265.054 184.345 265.151 184.485 265.279 184.588C265.409 184.689 265.567 184.739 265.755 184.739ZM268.368 185.379V181.74H269.225V185.379H268.368ZM268.799 181.224C268.663 181.224 268.546 181.179 268.448 181.089C268.35 180.997 268.301 180.887 268.301 180.759C268.301 180.63 268.35 180.52 268.448 180.43C268.546 180.338 268.663 180.293 268.799 180.293C268.936 180.293 269.053 180.338 269.15 180.43C269.248 180.52 269.296 180.63 269.296 180.759C269.296 180.887 269.248 180.997 269.15 181.089C269.053 181.179 268.936 181.224 268.799 181.224ZM270.965 183.247V185.379H270.107V181.74H270.927V182.358H270.97C271.053 182.155 271.187 181.993 271.37 181.873C271.555 181.753 271.783 181.693 272.055 181.693C272.306 181.693 272.525 181.746 272.711 181.854C272.899 181.961 273.044 182.117 273.147 182.32C273.251 182.524 273.302 182.771 273.301 183.062V185.379H272.443V183.195C272.443 182.951 272.38 182.761 272.254 182.624C272.129 182.486 271.956 182.418 271.735 182.418C271.585 182.418 271.451 182.451 271.334 182.517C271.219 182.582 271.128 182.676 271.062 182.799C270.997 182.922 270.965 183.071 270.965 183.247ZM279.116 182.076C279.076 181.948 279.022 181.834 278.952 181.733C278.884 181.63 278.802 181.543 278.706 181.47C278.611 181.397 278.502 181.343 278.379 181.306C278.256 181.269 278.121 181.25 277.976 181.25C277.716 181.25 277.483 181.315 277.28 181.446C277.076 181.577 276.916 181.77 276.799 182.024C276.683 182.277 276.626 182.585 276.626 182.948C276.626 183.315 276.683 183.625 276.799 183.879C276.914 184.134 277.074 184.327 277.28 184.46C277.485 184.591 277.723 184.656 277.995 184.656C278.241 184.656 278.455 184.609 278.635 184.514C278.816 184.419 278.956 184.285 279.054 184.111C279.152 183.936 279.201 183.731 279.201 183.495L279.4 183.526H278.083V182.839H280.051V183.422C280.051 183.837 279.963 184.197 279.786 184.5C279.609 184.803 279.366 185.037 279.056 185.201C278.747 185.364 278.392 185.445 277.99 185.445C277.543 185.445 277.151 185.345 276.813 185.144C276.477 184.942 276.214 184.656 276.024 184.284C275.836 183.912 275.742 183.469 275.742 182.958C275.742 182.566 275.797 182.216 275.908 181.908C276.02 181.6 276.176 181.339 276.377 181.124C276.578 180.908 276.813 180.743 277.083 180.631C277.353 180.518 277.647 180.461 277.964 180.461C278.233 180.461 278.483 180.5 278.715 180.579C278.947 180.657 279.154 180.767 279.334 180.911C279.515 181.055 279.665 181.225 279.781 181.423C279.898 181.62 279.975 181.838 280.011 182.076H279.116ZM282.474 185.45C282.11 185.45 281.795 185.374 281.529 185.223C281.265 185.069 281.062 184.853 280.92 184.573C280.778 184.292 280.707 183.961 280.707 183.581C280.707 183.206 280.778 182.878 280.92 182.595C281.064 182.311 281.265 182.09 281.522 181.932C281.78 181.772 282.082 181.693 282.429 181.693C282.654 181.693 282.865 181.729 283.064 181.802C283.265 181.873 283.442 181.983 283.595 182.133C283.75 182.283 283.871 182.474 283.96 182.707C284.048 182.937 284.093 183.212 284.093 183.531V183.794H281.11V183.216H283.27C283.269 183.052 283.233 182.906 283.164 182.778C283.094 182.648 282.997 182.546 282.872 182.472C282.749 182.398 282.606 182.361 282.441 182.361C282.266 182.361 282.112 182.403 281.979 182.489C281.847 182.572 281.743 182.683 281.669 182.82C281.596 182.956 281.559 183.105 281.558 183.268V183.773C281.558 183.984 281.596 184.166 281.674 184.318C281.751 184.468 281.859 184.583 281.998 184.663C282.137 184.742 282.3 184.782 282.486 184.782C282.611 184.782 282.724 184.765 282.825 184.73C282.926 184.693 283.014 184.641 283.088 184.571C283.162 184.502 283.218 184.415 283.256 184.313L284.057 184.403C284.006 184.614 283.91 184.799 283.768 184.957C283.627 185.114 283.447 185.235 283.228 185.322C283.008 185.407 282.757 185.45 282.474 185.45ZM286.405 185.45C286.05 185.45 285.742 185.372 285.481 185.215C285.221 185.059 285.019 184.84 284.875 184.559C284.733 184.278 284.662 183.95 284.662 183.574C284.662 183.198 284.733 182.868 284.875 182.586C285.019 182.303 285.221 182.084 285.481 181.927C285.742 181.771 286.05 181.693 286.405 181.693C286.761 181.693 287.069 181.771 287.329 181.927C287.59 182.084 287.791 182.303 287.933 182.586C288.077 182.868 288.149 183.198 288.149 183.574C288.149 183.95 288.077 184.278 287.933 184.559C287.791 184.84 287.59 185.059 287.329 185.215C287.069 185.372 286.761 185.45 286.405 185.45ZM286.41 184.763C286.603 184.763 286.764 184.71 286.893 184.604C287.023 184.497 287.119 184.353 287.182 184.173C287.247 183.993 287.279 183.792 287.279 183.571C287.279 183.349 287.247 183.147 287.182 182.967C287.119 182.786 287.023 182.641 286.893 182.534C286.764 182.426 286.603 182.373 286.41 182.373C286.213 182.373 286.048 182.426 285.917 182.534C285.788 182.641 285.691 182.786 285.626 182.967C285.563 183.147 285.531 183.349 285.531 183.571C285.531 183.792 285.563 183.993 285.626 184.173C285.691 184.353 285.788 184.497 285.917 184.604C286.048 184.71 286.213 184.763 286.41 184.763ZM288.877 185.379V181.74H289.708V182.346H289.746C289.813 182.136 289.926 181.975 290.087 181.861C290.25 181.746 290.436 181.688 290.644 181.688C290.692 181.688 290.744 181.69 290.803 181.695C290.863 181.698 290.913 181.704 290.952 181.712V182.5C290.916 182.488 290.858 182.477 290.779 182.467C290.702 182.456 290.627 182.451 290.554 182.451C290.398 182.451 290.257 182.485 290.132 182.553C290.009 182.619 289.912 182.711 289.841 182.83C289.77 182.948 289.734 183.085 289.734 183.24V185.379H288.877ZM292.955 186.819C292.647 186.819 292.382 186.777 292.161 186.694C291.94 186.612 291.762 186.501 291.628 186.362C291.494 186.223 291.4 186.069 291.348 185.9L292.121 185.713C292.155 185.784 292.206 185.854 292.272 185.924C292.339 185.995 292.428 186.053 292.54 186.099C292.654 186.146 292.797 186.17 292.969 186.17C293.212 186.17 293.413 186.111 293.573 185.992C293.732 185.876 293.812 185.683 293.812 185.414V184.725H293.77C293.725 184.813 293.661 184.904 293.575 184.997C293.492 185.091 293.38 185.169 293.241 185.232C293.104 185.295 292.931 185.327 292.722 185.327C292.443 185.327 292.189 185.261 291.962 185.13C291.736 184.997 291.556 184.8 291.422 184.538C291.289 184.274 291.223 183.944 291.223 183.548C291.223 183.148 291.289 182.811 291.422 182.536C291.556 182.26 291.737 182.05 291.964 181.908C292.192 181.764 292.445 181.693 292.725 181.693C292.938 181.693 293.113 181.729 293.251 181.802C293.39 181.873 293.5 181.959 293.582 182.06C293.665 182.159 293.727 182.253 293.77 182.342H293.817V181.74H294.663V185.438C294.663 185.749 294.588 186.007 294.44 186.21C294.292 186.414 294.089 186.567 293.831 186.668C293.574 186.769 293.282 186.819 292.955 186.819ZM292.962 184.654C293.143 184.654 293.298 184.61 293.426 184.521C293.554 184.433 293.651 184.306 293.717 184.14C293.784 183.974 293.817 183.775 293.817 183.543C293.817 183.314 293.784 183.113 293.717 182.941C293.653 182.769 293.556 182.636 293.428 182.541C293.302 182.444 293.146 182.396 292.962 182.396C292.771 182.396 292.611 182.446 292.483 182.546C292.355 182.645 292.259 182.782 292.194 182.955C292.129 183.128 292.097 183.323 292.097 183.543C292.097 183.766 292.129 183.961 292.194 184.128C292.26 184.294 292.358 184.423 292.486 184.517C292.615 184.608 292.774 184.654 292.962 184.654ZM297.153 185.45C296.788 185.45 296.473 185.374 296.207 185.223C295.944 185.069 295.741 184.853 295.598 184.573C295.456 184.292 295.385 183.961 295.385 183.581C295.385 183.206 295.456 182.878 295.598 182.595C295.742 182.311 295.943 182.09 296.2 181.932C296.458 181.772 296.76 181.693 297.108 181.693C297.332 181.693 297.543 181.729 297.742 181.802C297.943 181.873 298.12 181.983 298.273 182.133C298.428 182.283 298.55 182.474 298.638 182.707C298.726 182.937 298.771 183.212 298.771 183.531V183.794H295.788V183.216H297.949C297.947 183.052 297.911 182.906 297.842 182.778C297.772 182.648 297.675 182.546 297.551 182.472C297.427 182.398 297.284 182.361 297.119 182.361C296.944 182.361 296.79 182.403 296.657 182.489C296.525 182.572 296.421 182.683 296.347 182.82C296.274 182.956 296.237 183.105 296.236 183.268V183.773C296.236 183.984 296.274 184.166 296.352 184.318C296.429 184.468 296.537 184.583 296.676 184.663C296.815 184.742 296.978 184.782 297.164 184.782C297.289 184.782 297.402 184.765 297.503 184.73C297.604 184.693 297.692 184.641 297.766 184.571C297.84 184.502 297.896 184.415 297.934 184.313L298.735 184.403C298.685 184.614 298.588 184.799 298.446 184.957C298.306 185.114 298.125 185.235 297.906 185.322C297.686 185.407 297.435 185.45 297.153 185.45Z" fill="white"/>
<rect x="250.932" y="191.603" width="1.11188" height="13.3661" fill="#3F8FF7"/>
</svg>
